AbhayaLibre-Regular.ufo
<glyph name="quotedbl" format="1">
  <advance width="306"/>
  <unicode hex="0022"/>
  <outline>
    <contour>
      <point x="92" y="655" type="curve" smooth="yes"/>
      <point x="67" y="655"/>
      <point x="50" y="638"/>
      <point x="50" y="613" type="curve" smooth="yes"/>
      <point x="50" y="580"/>
      <point x="74" y="522"/>
      <point x="78" y="450" type="curve"/>
      <point x="105" y="450" type="line"/>
      <point x="109" y="519"/>
      <point x="133" y="581"/>
      <point x="133" y="614" type="curve" smooth="yes"/>
      <point x="133" y="637"/>
      <point x="118" y="655"/>
    </contour>
    <contour>
      <point x="215" y="655" type="curve" smooth="yes"/>
      <point x="188" y="655"/>
      <point x="173" y="638"/>
      <point x="173" y="613" type="curve" smooth="yes"/>
      <point x="173" y="580"/>
      <point x="197" y="522"/>
      <point x="201" y="450" type="curve"/>
      <point x="228" y="450" type="line"/>
      <point x="232" y="519"/>
      <point x="256" y="581"/>
      <point x="256" y="614" type="curve" smooth="yes"/>
      <point x="256" y="637"/>
      <point x="241" y="655"/>
    </contour>
  </outline>
</glyph>
<glyph name="dollar" format="1">
  <advance width="538"/>
  <unicode hex="0024"/>
  <outline>
    <contour>
      <point x="488" y="157" type="curve" smooth="yes"/>
      <point x="488" y="357"/>
      <point x="154" y="323"/>
      <point x="154" y="483" type="curve" smooth="yes"/>
      <point x="154" y="544"/>
      <point x="201" y="582"/>
      <point x="273" y="582" type="curve" smooth="yes"/>
      <point x="421" y="582"/>
      <point x="331" y="446"/>
      <point x="430" y="446" type="curve" smooth="yes"/>
      <point x="462" y="446"/>
      <point x="477" y="468"/>
      <point x="477" y="500" type="curve" smooth="yes"/>
      <point x="477" y="570"/>
      <point x="385" y="610"/>
      <point x="288" y="610" type="curve" smooth="yes"/>
      <point x="183" y="610"/>
      <point x="72" y="562"/>
      <point x="72" y="457" type="curve" smooth="yes"/>
      <point x="72" y="261"/>
      <point x="403" y="292"/>
      <point x="403" y="133" type="curve" smooth="yes"/>
      <point x="403" y="59"/>
      <point x="349" y="18"/>
      <point x="254" y="18" type="curve" smooth="yes"/>
      <point x="113" y="18"/>
      <point x="210" y="165"/>
      <point x="104" y="165" type="curve" smooth="yes"/>
      <point x="69" y="165"/>
      <point x="50" y="140"/>
      <point x="50" y="106" type="curve" smooth="yes"/>
      <point x="50" y="34"/>
      <point x="149" y="-9"/>
      <point x="256" y="-9" type="curve" smooth="yes"/>
      <point x="370" y="-9"/>
      <point x="488" y="40"/>
    </contour>
    <contour>
      <point x="287" y="-91" type="line"/>
      <point x="287" y="699" type="line"/>
      <point x="258" y="699" type="line"/>
      <point x="258" y="-91" type="line"/>
    </contour>
  </outline>
</glyph>
<glyph name="percent" format="1">
  <advance width="796"/>
  <unicode hex="0025"/>
  <outline>
    <contour>
      <point x="211" y="613" type="curve" smooth="yes"/>
      <point x="124" y="613"/>
      <point x="60" y="552"/>
      <point x="60" y="448" type="curve" smooth="yes"/>
      <point x="60" y="340"/>
      <point x="121" y="277"/>
      <point x="208" y="277" type="curve" smooth="yes"/>
      <point x="297" y="277"/>
      <point x="359" y="341"/>
      <point x="359" y="445" type="curve" smooth="yes"/>
      <point x="359" y="554"/>
      <point x="299" y="613"/>
    </contour>
    <contour>
      <point x="210" y="297" type="curve" smooth="yes"/>
      <point x="158" y="297"/>
      <point x="137" y="337"/>
      <point x="137" y="445" type="curve" smooth="yes"/>
      <point x="137" y="553"/>
      <point x="158" y="593"/>
      <point x="209" y="593" type="curve" smooth="yes"/>
      <point x="257" y="593"/>
      <point x="281" y="558"/>
      <point x="281" y="448" type="curve" smooth="yes"/>
      <point x="281" y="342"/>
      <point x="257" y="297"/>
    </contour>
    <contour>
      <point x="184" y="-29" type="line"/>
      <point x="621" y="610" type="line"/>
      <point x="592" y="630" type="line"/>
      <point x="154" y="-10" type="line"/>
    </contour>
    <contour>
      <point x="583" y="326" type="curve" smooth="yes"/>
      <point x="496" y="326"/>
      <point x="432" y="265"/>
      <point x="432" y="161" type="curve" smooth="yes"/>
      <point x="432" y="53"/>
      <point x="493" y="-10"/>
      <point x="580" y="-10" type="curve" smooth="yes"/>
      <point x="669" y="-10"/>
      <point x="731" y="54"/>
      <point x="731" y="158" type="curve" smooth="yes"/>
      <point x="731" y="267"/>
      <point x="671" y="326"/>
    </contour>
    <contour>
      <point x="582" y="10" type="curve" smooth="yes"/>
      <point x="530" y="10"/>
      <point x="509" y="50"/>
      <point x="509" y="158" type="curve" smooth="yes"/>
      <point x="509" y="266"/>
      <point x="530" y="306"/>
      <point x="581" y="306" type="curve" smooth="yes"/>
      <point x="629" y="306"/>
      <point x="653" y="271"/>
      <point x="653" y="161" type="curve" smooth="yes"/>
      <point x="653" y="55"/>
      <point x="629" y="10"/>
    </contour>
  </outline>
</glyph>
<glyph name="asterisk" format="1">
  <advance width="333"/>
  <unicode hex="002A"/>
  <outline>
    <contour>
      <point x="167" y="650" type="curve" smooth="yes"/>
      <point x="145" y="650"/>
      <point x="131" y="637"/>
      <point x="131" y="617" type="curve" smooth="yes"/>
      <point x="131" y="591"/>
      <point x="156" y="544"/>
      <point x="159" y="487" type="curve"/>
      <point x="174" y="487" type="line"/>
      <point x="177" y="542"/>
      <point x="202" y="591"/>
      <point x="202" y="618" type="curve" smooth="yes"/>
      <point x="202" y="636"/>
      <point x="190" y="650"/>
    </contour>
    <contour>
      <point x="166" y="327" type="curve" smooth="yes"/>
      <point x="188" y="327"/>
      <point x="202" y="340"/>
      <point x="202" y="360" type="curve" smooth="yes"/>
      <point x="202" y="386"/>
      <point x="177" y="433"/>
      <point x="174" y="490" type="curve"/>
      <point x="159" y="490" type="line"/>
      <point x="156" y="435"/>
      <point x="131" y="386"/>
      <point x="131" y="359" type="curve" smooth="yes"/>
      <point x="131" y="341"/>
      <point x="143" y="327"/>
    </contour>
    <contour>
      <point x="313" y="549" type="curve" smooth="yes"/>
      <point x="313" y="564"/>
      <point x="300" y="588"/>
      <point x="277" y="588" type="curve" smooth="yes"/>
      <point x="244" y="588"/>
      <point x="213" y="523"/>
      <point x="161" y="494" type="curve"/>
      <point x="169" y="481" type="line"/>
      <point x="218" y="506"/>
      <point x="273" y="509"/>
      <point x="296" y="523" type="curve" smooth="yes"/>
      <point x="306" y="529"/>
      <point x="313" y="538"/>
    </contour>
    <contour>
      <point x="20" y="428" type="curve" smooth="yes"/>
      <point x="20" y="413"/>
      <point x="33" y="389"/>
      <point x="56" y="389" type="curve" smooth="yes"/>
      <point x="88" y="389"/>
      <point x="122" y="455"/>
      <point x="172" y="483" type="curve"/>
      <point x="164" y="496" type="line"/>
      <point x="115" y="471"/>
      <point x="60" y="468"/>
      <point x="37" y="454" type="curve" smooth="yes"/>
      <point x="27" y="448"/>
      <point x="20" y="439"/>
    </contour>
    <contour>
      <point x="278" y="389" type="curve" smooth="yes"/>
      <point x="297" y="389"/>
      <point x="312" y="409"/>
      <point x="312" y="427" type="curve" smooth="yes"/>
      <point x="312" y="439"/>
      <point x="306" y="449"/>
      <point x="295" y="455" type="curve" smooth="yes"/>
      <point x="273" y="467"/>
      <point x="219" y="470"/>
      <point x="169" y="496" type="curve"/>
      <point x="161" y="483" type="line"/>
      <point x="206" y="461"/>
      <point x="246" y="389"/>
    </contour>
    <contour>
      <point x="55" y="588" type="curve" smooth="yes"/>
      <point x="36" y="588"/>
      <point x="21" y="568"/>
      <point x="21" y="550" type="curve" smooth="yes"/>
      <point x="21" y="538"/>
      <point x="27" y="528"/>
      <point x="38" y="522" type="curve" smooth="yes"/>
      <point x="60" y="510"/>
      <point x="114" y="507"/>
      <point x="164" y="481" type="curve"/>
      <point x="172" y="494" type="line"/>
      <point x="118" y="527"/>
      <point x="88" y="588"/>
    </contour>
  </outline>
</glyph>
<glyph name="comma" format="1">
  <advance width="193"/>
  <unicode hex="002C"/>
  <outline>
    <contour>
      <point x="153" y="37" type="curve" smooth="yes"/>
      <point x="153" y="75"/>
      <point x="134" y="103"/>
      <point x="98" y="103" type="curve" smooth="yes"/>
      <point x="71" y="103"/>
      <point x="50" y="81"/>
      <point x="50" y="53" type="curve" smooth="yes"/>
      <point x="50" y="27"/>
      <point x="70" y="11"/>
      <point x="90" y="7" type="curve" smooth="yes"/>
      <point x="104" y="4"/>
      <point x="113" y="-1"/>
      <point x="113" y="-10" type="curve" smooth="yes"/>
      <point x="113" y="-27"/>
      <point x="93" y="-57"/>
      <point x="69" y="-82" type="curve"/>
      <point x="90" y="-97" type="line"/>
      <point x="131" y="-55"/>
      <point x="153" y="-4"/>
    </contour>
  </outline>
</glyph>
<glyph name="one" format="1">
  <advance width="418"/>
  <unicode hex="0031"/>
  <outline>
    <contour>
      <point x="221" y="530" type="line"/>
      <point x="20" y="397" type="line"/>
      <point x="38" y="368" type="line"/>
      <point x="194" y="468" type="line"/>
      <point x="194" y="35" type="line"/>
      <point x="57" y="26" type="line"/>
      <point x="57" y="0" type="line"/>
      <point x="403" y="0" type="line"/>
      <point x="403" y="19"/>
      <point x="397" y="25"/>
      <point x="377" y="27" type="curve" smooth="yes"/>
      <point x="274" y="35" type="line"/>
      <point x="274" y="530" type="line"/>
    </contour>
  </outline>
</glyph>
<glyph name="six" format="1">
  <advance width="506"/>
  <unicode hex="0036"/>
  <outline>
    <contour>
      <point x="461" y="184" type="curve" smooth="yes"/>
      <point x="461" y="307"/>
      <point x="368" y="371"/>
      <point x="270" y="371" type="curve" smooth="yes"/>
      <point x="218" y="371"/>
      <point x="157" y="350"/>
      <point x="117" y="305" type="curve"/>
      <point x="140" y="303" type="line"/>
      <point x="147" y="467"/>
      <point x="170" y="584"/>
      <point x="280" y="584" type="curve" smooth="yes"/>
      <point x="403" y="584"/>
      <point x="317" y="456"/>
      <point x="405" y="456" type="curve" smooth="yes"/>
      <point x="436" y="456"/>
      <point x="452" y="477"/>
      <point x="452" y="506" type="curve" smooth="yes"/>
      <point x="452" y="566"/>
      <point x="381" y="610"/>
      <point x="290" y="610" type="curve" smooth="yes"/>
      <point x="131" y="610"/>
      <point x="50" y="469"/>
      <point x="50" y="284" type="curve" smooth="yes"/>
      <point x="50" y="117"/>
      <point x="113" y="-10"/>
      <point x="259" y="-10" type="curve" smooth="yes"/>
      <point x="366" y="-10"/>
      <point x="461" y="61"/>
    </contour>
    <contour>
      <point x="135" y="174" type="curve" smooth="yes"/>
      <point x="135" y="295"/>
      <point x="195" y="342"/>
      <point x="259" y="342" type="curve" smooth="yes"/>
      <point x="321" y="342"/>
      <point x="376" y="299"/>
      <point x="376" y="188" type="curve" smooth="yes"/>
      <point x="376" y="87"/>
      <point x="341" y="16"/>
      <point x="257" y="16" type="curve" smooth="yes"/>
      <point x="178" y="16"/>
      <point x="135" y="80"/>
    </contour>
  </outline>
</glyph>
<glyph name="nine" format="1">
  <advance width="510"/>
  <unicode hex="0039"/>
  <outline>
    <contour>
      <point x="460" y="245" type="curve" smooth="yes"/>
      <point x="460" y="420"/>
      <point x="385" y="540"/>
      <point x="244" y="540" type="curve" smooth="yes"/>
      <point x="128" y="540"/>
      <point x="45" y="465"/>
      <point x="45" y="356" type="curve" smooth="yes"/>
      <point x="45" y="241"/>
      <point x="130" y="177"/>
      <point x="230" y="177" type="curve" smooth="yes"/>
      <point x="288" y="177"/>
      <point x="350" y="200"/>
      <point x="391" y="248" type="curve"/>
      <point x="370" y="249" type="line"/>
      <point x="370" y="85"/>
      <point x="340" y="-54"/>
      <point x="224" y="-54" type="curve" smooth="yes"/>
      <point x="104" y="-54"/>
      <point x="192" y="73"/>
      <point x="101" y="73" type="curve" smooth="yes"/>
      <point x="73" y="73"/>
      <point x="54" y="55"/>
      <point x="54" y="25" type="curve" smooth="yes"/>
      <point x="54" y="-34"/>
      <point x="119" y="-80"/>
      <point x="212" y="-80" type="curve" smooth="yes"/>
      <point x="394" y="-80"/>
      <point x="460" y="72"/>
    </contour>
    <contour>
      <point x="130" y="369" type="curve" smooth="yes"/>
      <point x="130" y="449"/>
      <point x="159" y="514"/>
      <point x="244" y="514" type="curve" smooth="yes"/>
      <point x="330" y="514"/>
      <point x="367" y="444"/>
      <point x="367" y="358" type="curve" smooth="yes"/>
      <point x="367" y="253"/>
      <point x="315" y="207"/>
      <point x="242" y="207" type="curve" smooth="yes"/>
      <point x="157" y="207"/>
      <point x="130" y="277"/>
    </contour>
  </outline>
</glyph>
<glyph name="colon" format="1">
  <advance width="208"/>
  <unicode hex="003A"/>
  <outline>
    <contour>
      <point x="153" y="335" type="curve" smooth="yes"/>
      <point x="153" y="362"/>
      <point x="131" y="384"/>
      <point x="104" y="384" type="curve" smooth="yes"/>
      <point x="77" y="384"/>
      <point x="55" y="362"/>
      <point x="55" y="335" type="curve" smooth="yes"/>
      <point x="55" y="308"/>
      <point x="77" y="286"/>
      <point x="104" y="286" type="curve" smooth="yes"/>
      <point x="131" y="286"/>
      <point x="153" y="308"/>
    </contour>
    <contour>
      <point x="153" y="101" type="curve" smooth="yes"/>
      <point x="153" y="128"/>
      <point x="131" y="150"/>
      <point x="104" y="150" type="curve" smooth="yes"/>
      <point x="77" y="150"/>
      <point x="55" y="128"/>
      <point x="55" y="101" type="curve" smooth="yes"/>
      <point x="55" y="74"/>
      <point x="77" y="52"/>
      <point x="104" y="52" type="curve" smooth="yes"/>
      <point x="131" y="52"/>
      <point x="153" y="74"/>
    </contour>
  </outline>
</glyph>
<glyph name="semicolon" format="1">
  <advance width="193"/>
  <unicode hex="003B"/>
  <outline>
    <contour>
      <point x="148" y="282" type="curve" smooth="yes"/>
      <point x="148" y="309"/>
      <point x="126" y="331"/>
      <point x="99" y="331" type="curve" smooth="yes"/>
      <point x="72" y="331"/>
      <point x="50" y="309"/>
      <point x="50" y="282" type="curve" smooth="yes"/>
      <point x="50" y="255"/>
      <point x="72" y="233"/>
      <point x="99" y="233" type="curve" smooth="yes"/>
      <point x="126" y="233"/>
      <point x="148" y="255"/>
    </contour>
    <contour>
      <point x="153" y="54" type="curve" smooth="yes"/>
      <point x="153" y="92"/>
      <point x="134" y="120"/>
      <point x="98" y="120" type="curve" smooth="yes"/>
      <point x="71" y="120"/>
      <point x="50" y="98"/>
      <point x="50" y="70" type="curve" smooth="yes"/>
      <point x="50" y="44"/>
      <point x="70" y="28"/>
      <point x="90" y="24" type="curve" smooth="yes"/>
      <point x="104" y="21"/>
      <point x="113" y="16"/>
      <point x="113" y="7" type="curve" smooth="yes"/>
      <point x="113" y="-10"/>
      <point x="93" y="-40"/>
      <point x="69" y="-65" type="curve"/>
      <point x="90" y="-80" type="line"/>
      <point x="131" y="-38"/>
      <point x="153" y="13"/>
    </contour>
  </outline>
</glyph>
<glyph name="greater" format="1">
  <advance width="462"/>
  <unicode hex="003E"/>
  <outline>
    <contour>
      <point x="59" y="393" type="line"/>
      <point x="45" y="361" type="line"/>
      <point x="373" y="229" type="line"/>
      <point x="373" y="239" type="line"/>
      <point x="45" y="106" type="line"/>
      <point x="57" y="77" type="line"/>
      <point x="417" y="221" type="line"/>
      <point x="417" y="249" type="line"/>
    </contour>
  </outline>
</glyph>
<glyph name="question" format="1">
  <advance width="457"/>
  <unicode hex="003F"/>
  <outline>
    <contour>
      <point x="223" y="167" type="line"/>
      <point x="223" y="339"/>
      <point x="405" y="355"/>
      <point x="405" y="480" type="curve" smooth="yes"/>
      <point x="405" y="573"/>
      <point x="324" y="610"/>
      <point x="232" y="610" type="curve" smooth="yes"/>
      <point x="142" y="610"/>
      <point x="60" y="570"/>
      <point x="60" y="506" type="curve" smooth="yes"/>
      <point x="60" y="476"/>
      <point x="74" y="453"/>
      <point x="109" y="453" type="curve" smooth="yes"/>
      <point x="197" y="453"/>
      <point x="114" y="584"/>
      <point x="223" y="584" type="curve" smooth="yes"/>
      <point x="292" y="584"/>
      <point x="309" y="548"/>
      <point x="309" y="500" type="curve" smooth="yes"/>
      <point x="309" y="367"/>
      <point x="193" y="338"/>
      <point x="193" y="167" type="curve"/>
    </contour>
    <component base="period" xOffset="107"/>
  </outline>
</glyph>
<glyph name="at" format="1">
  <advance width="891"/>
  <unicode hex="0040"/>
  <outline>
    <contour>
      <point x="666" y="-118" type="curve"/>
      <point x="654" y="-93" type="line"/>
      <point x="594" y="-122"/>
      <point x="534" y="-135"/>
      <point x="478" y="-135" type="curve" smooth="yes"/>
      <point x="294" y="-135"/>
      <point x="140" y="5"/>
      <point x="140" y="217" type="curve" smooth="yes"/>
      <point x="140" y="387"/>
      <point x="236" y="555"/>
      <point x="449" y="555" type="curve" smooth="yes"/>
      <point x="601" y="555"/>
      <point x="756" y="442"/>
      <point x="756" y="205" type="curve" smooth="yes"/>
      <point x="756" y="82"/>
      <point x="697" y="35"/>
      <point x="648" y="35" type="curve" smooth="yes"/>
      <point x="616" y="35"/>
      <point x="596" y="52"/>
      <point x="596" y="96" type="curve" smooth="yes"/>
      <point x="596" y="278" type="line" smooth="yes"/>
      <point x="596" y="371"/>
      <point x="546" y="415"/>
      <point x="447" y="415" type="curve" smooth="yes"/>
      <point x="346" y="415"/>
      <point x="300" y="374"/>
      <point x="300" y="337" type="curve" smooth="yes"/>
      <point x="300" y="320"/>
      <point x="310" y="303"/>
      <point x="335" y="303" type="curve" smooth="yes"/>
      <point x="407" y="303"/>
      <point x="349" y="392"/>
      <point x="437" y="392" type="curve" smooth="yes"/>
      <point x="492" y="392"/>
      <point x="521" y="362"/>
      <point x="521" y="299" type="curve" smooth="yes"/>
      <point x="521" y="147" type="line"/>
      <point x="507" y="85"/>
      <point x="461" y="47"/>
      <point x="418" y="47" type="curve" smooth="yes"/>
      <point x="382" y="47"/>
      <point x="353" y="76"/>
      <point x="353" y="131" type="curve" smooth="yes"/>
      <point x="353" y="199"/>
      <point x="426" y="217"/>
      <point x="532" y="217" type="curve"/>
      <point x="532" y="242" type="line"/>
      <point x="362" y="242"/>
      <point x="275" y="211"/>
      <point x="275" y="115" type="curve" smooth="yes"/>
      <point x="275" y="42"/>
      <point x="329" y="11"/>
      <point x="388" y="11" type="curve" smooth="yes"/>
      <point x="451" y="11"/>
      <point x="511" y="51"/>
      <point x="525" y="105" type="curve"/>
      <point x="519" y="105" type="line"/>
      <point x="519" y="45"/>
      <point x="571" y="10"/>
      <point x="639" y="10" type="curve" smooth="yes"/>
      <point x="723" y="10"/>
      <point x="821" y="71"/>
      <point x="821" y="215" type="curve" smooth="yes"/>
      <point x="821" y="466"/>
      <point x="641" y="583"/>
      <point x="458" y="583" type="curve" smooth="yes"/>
      <point x="186" y="583"/>
      <point x="65" y="385"/>
      <point x="65" y="192" type="curve" smooth="yes"/>
      <point x="65" y="-33"/>
      <point x="247" y="-171"/>
      <point x="450" y="-171" type="curve" smooth="yes"/>
      <point x="522" y="-171"/>
      <point x="596" y="-154"/>
    </contour>
  </outline>
</glyph>
<glyph name="B" format="1">
  <advance width="589"/>
  <unicode hex="0042"/>
  <outline>
    <contour>
      <point x="506" y="464" type="curve" smooth="yes"/>
      <point x="506" y="538"/>
      <point x="445" y="600"/>
      <point x="321" y="600" type="curve" smooth="yes"/>
      <point x="40" y="600" type="line"/>
      <point x="40" y="574" type="line"/>
      <point x="297" y="574" type="line" smooth="yes"/>
      <point x="384" y="574"/>
      <point x="416" y="521"/>
      <point x="416" y="456" type="curve" smooth="yes"/>
      <point x="416" y="396"/>
      <point x="375" y="339"/>
      <point x="295" y="339" type="curve" smooth="yes"/>
      <point x="162" y="339" type="line"/>
      <point x="162" y="312" type="line"/>
      <point x="314" y="312" type="line" smooth="yes"/>
      <point x="408" y="312"/>
      <point x="448" y="244"/>
      <point x="448" y="174" type="curve" smooth="yes"/>
      <point x="448" y="101"/>
      <point x="404" y="26"/>
      <point x="319" y="26" type="curve" smooth="yes"/>
      <point x="40" y="26" type="line"/>
      <point x="40" y="0" type="line"/>
      <point x="324" y="0" type="line" smooth="yes"/>
      <point x="470" y="0"/>
      <point x="544" y="89"/>
      <point x="544" y="176" type="curve" smooth="yes"/>
      <point x="544" y="246"/>
      <point x="495" y="310"/>
      <point x="397" y="327" type="curve"/>
      <point x="466" y="353"/>
      <point x="506" y="412"/>
    </contour>
    <component base="vertical_stem_upper" xOffset="80"/>
  </outline>
</glyph>
<glyph name="F" format="1">
  <advance width="516"/>
  <unicode hex="0046"/>
  <outline>
    <contour>
      <point x="506" y="420" type="line"/>
      <point x="501" y="600" type="line"/>
      <point x="40" y="600" type="line"/>
      <point x="40" y="574" type="line"/>
      <point x="366" y="574" type="line" smooth="yes"/>
      <point x="433" y="574"/>
      <point x="458" y="515"/>
      <point x="472" y="467" type="curve" smooth="yes"/>
      <point x="486" y="420" type="line"/>
    </contour>
    <contour>
      <point x="326" y="0" type="line"/>
      <point x="326" y="26" type="line"/>
      <point x="40" y="26" type="line"/>
      <point x="40" y="0" type="line"/>
    </contour>
    <contour>
      <point x="412" y="295" type="line"/>
      <point x="412" y="324" type="line"/>
      <point x="162" y="324" type="line"/>
      <point x="162" y="295" type="line"/>
    </contour>
    <component base="vertical_stem_upper" xOffset="80"/>
  </outline>
</glyph>
<glyph name="G" format="1">
  <advance width="694"/>
  <unicode hex="0047"/>
  <outline>
    <contour>
      <point x="415" y="270" type="line"/>
      <point x="415" y="244" type="line"/>
      <point x="505" y="244" type="line"/>
      <point x="505" y="64" type="line"/>
      <point x="515" y="101" type="line"/>
      <point x="479" y="47"/>
      <point x="414" y="20"/>
      <point x="355" y="20" type="curve" smooth="yes"/>
      <point x="238" y="20"/>
      <point x="155" y="90"/>
      <point x="155" y="300" type="curve" smooth="yes"/>
      <point x="155" y="508"/>
      <point x="242" y="582"/>
      <point x="352" y="582" type="curve" smooth="yes"/>
      <point x="477" y="582"/>
      <point x="518" y="530"/>
      <point x="555" y="403" type="curve"/>
      <point x="581" y="403" type="line"/>
      <point x="576" y="597" type="line"/>
      <point x="489" y="579" type="line"/>
      <point x="447" y="600"/>
      <point x="401" y="610"/>
      <point x="355" y="610" type="curve" smooth="yes"/>
      <point x="207" y="610"/>
      <point x="55" y="502"/>
      <point x="55" y="304" type="curve" smooth="yes"/>
      <point x="55" y="95"/>
      <point x="214" y="-10"/>
      <point x="355" y="-10" type="curve" smooth="yes"/>
      <point x="403" y="-10"/>
      <point x="467" y="6"/>
      <point x="504" y="31" type="curve"/>
      <point x="589" y="0" type="line"/>
      <point x="589" y="244" type="line"/>
      <point x="664" y="244" type="line"/>
      <point x="664" y="270" type="line"/>
    </contour>
    <contour>
      <point x="350" y="630" type="move" name="top"/>
    </contour>
    <contour>
      <point x="350" y="0" type="move" name="bottom"/>
    </contour>
  </outline>
</glyph>
<glyph name="I" format="1">
  <advance width="325"/>
  <unicode hex="0049"/>
  <outline>
    <contour>
      <point x="285" y="9" type="move" name="ogonek"/>
    </contour>
    <contour>
      <point x="165" y="630" type="move" name="top"/>
    </contour>
    <contour>
      <point x="285" y="574" type="line"/>
      <point x="285" y="600" type="line"/>
      <point x="40" y="600" type="line"/>
      <point x="40" y="574" type="line"/>
    </contour>
    <contour>
      <point x="285" y="0" type="line"/>
      <point x="285" y="20"/>
      <point x="279" y="26"/>
      <point x="259" y="26" type="curve" smooth="yes"/>
      <point x="40" y="26" type="line"/>
      <point x="40" y="0" type="line"/>
    </contour>
    <component base="vertical_stem_upper" xOffset="80"/>
  </outline>
</glyph>
<glyph name="L" format="1">
  <advance width="493"/>
  <unicode hex="004C"/>
  <outline>
    <contour>
      <point x="242" y="630" type="move" name="top"/>
    </contour>
    <contour>
      <point x="252" y="0" type="move" name="bottom"/>
    </contour>
    <contour>
      <point x="481" y="630" type="move" name="topright"/>
    </contour>
    <contour>
      <point x="478" y="0" type="line"/>
      <point x="483" y="200" type="line"/>
      <point x="463" y="200" type="line"/>
      <point x="446" y="133" type="line" smooth="yes"/>
      <point x="433" y="83"/>
      <point x="410" y="26"/>
      <point x="343" y="26" type="curve" smooth="yes"/>
      <point x="40" y="26" type="line"/>
      <point x="40" y="0" type="line"/>
    </contour>
    <contour>
      <point x="290" y="574" type="line"/>
      <point x="290" y="600" type="line"/>
      <point x="40" y="600" type="line"/>
      <point x="40" y="574" type="line"/>
    </contour>
    <component base="vertical_stem_upper" xOffset="80"/>
  </outline>
</glyph>
<glyph name="O" format="1">
  <advance width="705"/>
  <unicode hex="004F"/>
  <outline>
    <contour>
      <point x="355" y="610" type="curve" smooth="yes"/>
      <point x="207" y="610"/>
      <point x="55" y="502"/>
      <point x="55" y="304" type="curve" smooth="yes"/>
      <point x="55" y="99"/>
      <point x="203" y="-10"/>
      <point x="352" y="-10" type="curve" smooth="yes"/>
      <point x="500" y="-10"/>
      <point x="650" y="102"/>
      <point x="650" y="300" type="curve" smooth="yes"/>
      <point x="650" y="507"/>
      <point x="502" y="610"/>
    </contour>
    <contour>
      <point x="355" y="18" type="curve" smooth="yes"/>
      <point x="245" y="18"/>
      <point x="155" y="90"/>
      <point x="155" y="300" type="curve" smooth="yes"/>
      <point x="155" y="508"/>
      <point x="242" y="582"/>
      <point x="352" y="582" type="curve" smooth="yes"/>
      <point x="462" y="582"/>
      <point x="550" y="517"/>
      <point x="550" y="304" type="curve" smooth="yes"/>
      <point x="550" y="100"/>
      <point x="465" y="18"/>
    </contour>
    <contour>
      <point x="353" y="630" type="move" name="top"/>
    </contour>
  </outline>
</glyph>
<glyph name="Q" format="1">
  <advance width="707"/>
  <unicode hex="0051"/>
  <outline>
    <contour>
      <point x="357" y="610" type="curve" smooth="yes"/>
      <point x="209" y="610"/>
      <point x="57" y="504"/>
      <point x="57" y="301" type="curve" smooth="yes"/>
      <point x="57" y="101"/>
      <point x="205" y="-10"/>
      <point x="354" y="-10" type="curve" smooth="yes"/>
      <point x="502" y="-10"/>
      <point x="652" y="100"/>
      <point x="652" y="303" type="curve" smooth="yes"/>
      <point x="652" y="505"/>
      <point x="504" y="610"/>
    </contour>
    <contour>
      <point x="354" y="18" type="curve" smooth="yes"/>
      <point x="248" y="18"/>
      <point x="157" y="89"/>
      <point x="157" y="301" type="curve" smooth="yes"/>
      <point x="157" y="507"/>
      <point x="243" y="582"/>
      <point x="356" y="582" type="curve" smooth="yes"/>
      <point x="463" y="582"/>
      <point x="552" y="516"/>
      <point x="552" y="305" type="curve" smooth="yes"/>
      <point x="552" y="101"/>
      <point x="469" y="18"/>
    </contour>
    <contour>
      <point x="339" y="84" type="curve" smooth="yes"/>
      <point x="437" y="84"/>
      <point x="460" y="-140"/>
      <point x="585" y="-140" type="curve" smooth="yes"/>
      <point x="643" y="-140"/>
      <point x="685" y="-96"/>
      <point x="717" y="-24" type="curve"/>
      <point x="696" y="-12" type="line"/>
      <point x="662" y="-53"/>
      <point x="631" y="-75"/>
      <point x="597" y="-75" type="curve" smooth="yes"/>
      <point x="505" y="-75"/>
      <point x="459" y="119"/>
      <point x="342" y="119" type="curve" smooth="yes"/>
      <point x="297" y="119"/>
      <point x="258" y="85"/>
      <point x="231" y="39" type="curve"/>
      <point x="250" y="20" type="line"/>
      <point x="280" y="64"/>
      <point x="310" y="84"/>
    </contour>
  </outline>
</glyph>
<glyph name="U" format="1">
  <advance width="632"/>
  <unicode hex="0055"/>
  <outline>
    <contour>
      <point x="451" y="9" type="move" name="ogonek"/>
    </contour>
    <contour>
      <point x="337" y="630" type="move" name="top"/>
    </contour>
    <contour>
      <point x="10" y="574" type="line"/>
      <point x="10" y="600" type="line"/>
      <point x="254" y="600" type="line"/>
      <point x="254" y="574" type="line"/>
    </contour>
    <contour>
      <point x="432" y="574" type="line"/>
      <point x="432" y="600" type="line"/>
      <point x="627" y="600" type="line"/>
      <point x="627" y="574" type="line"/>
    </contour>
    <contour>
      <point x="547" y="600" type="line"/>
      <point x="547" y="234" type="line" smooth="yes"/>
      <point x="547" y="69"/>
      <point x="478" y="-10"/>
      <point x="323" y="-10" type="curve" smooth="yes"/>
      <point x="178" y="-10"/>
      <point x="90" y="59"/>
      <point x="90" y="225" type="curve" smooth="yes"/>
      <point x="90" y="600" type="line"/>
      <point x="175" y="600" type="line"/>
      <point x="175" y="231" type="line" smooth="yes"/>
      <point x="175" y="76"/>
      <point x="233" y="18"/>
      <point x="344" y="18" type="curve" smooth="yes"/>
      <point x="444" y="18"/>
      <point x="512" y="78"/>
      <point x="512" y="228" type="curve" smooth="yes"/>
      <point x="512" y="600" type="line"/>
    </contour>
  </outline>
</glyph>
<glyph name="Z" format="1">
  <advance width="550"/>
  <unicode hex="005A"/>
  <outline>
    <contour>
      <point x="298" y="630" type="move" name="top"/>
    </contour>
    <contour>
      <point x="518" y="0" type="line"/>
      <point x="520" y="207" type="line"/>
      <point x="498" y="207" type="line"/>
      <point x="477" y="111" type="line" smooth="yes"/>
      <point x="467" y="66"/>
      <point x="440" y="26"/>
      <point x="379" y="26" type="curve" smooth="yes"/>
      <point x="132" y="26" type="line"/>
      <point x="515" y="579" type="line"/>
      <point x="515" y="600" type="line"/>
      <point x="70" y="600" type="line"/>
      <point x="61" y="419" type="line"/>
      <point x="81" y="419" type="line"/>
      <point x="120" y="509" type="line" smooth="yes"/>
      <point x="138" y="550"/>
      <point x="164" y="574"/>
      <point x="201" y="574" type="curve" smooth="yes"/>
      <point x="419" y="574" type="line"/>
      <point x="25" y="20" type="line"/>
      <point x="25" y="0" type="line"/>
    </contour>
  </outline>
</glyph>
<glyph name="asciicircum" format="1">
  <advance width="558"/>
  <unicode hex="005E"/>
  <outline>
    <contour>
      <point x="90" y="332" type="line"/>
      <point x="118" y="314" type="line"/>
      <point x="282" y="580" type="line"/>
      <point x="276" y="580" type="line"/>
      <point x="440" y="314" type="line"/>
      <point x="468" y="332" type="line"/>
      <point x="288" y="624" type="line"/>
      <point x="270" y="624" type="line"/>
    </contour>
  </outline>
</glyph>
<glyph name="a" format="1">
  <advance width="482"/>
  <unicode hex="0061"/>
  <outline>
    <contour>
      <point x="314" y="94" type="curve"/>
      <point x="308" y="94" type="line"/>
      <point x="311" y="34"/>
      <point x="334" y="-10"/>
      <point x="391" y="-10" type="curve" smooth="yes"/>
      <point x="449" y="-10"/>
      <point x="474" y="26"/>
      <point x="477" y="94" type="curve"/>
      <point x="451" y="95" type="line"/>
      <point x="447" y="45"/>
      <point x="433" y="21"/>
      <point x="412" y="21" type="curve" smooth="yes"/>
      <point x="395" y="21"/>
      <point x="385" y="40"/>
      <point x="385" y="73" type="curve" smooth="yes"/>
      <point x="385" y="284" type="line" smooth="yes"/>
      <point x="385" y="386"/>
      <point x="333" y="435"/>
      <point x="224" y="435" type="curve" smooth="yes"/>
      <point x="113" y="435"/>
      <point x="62" y="390"/>
      <point x="62" y="349" type="curve" smooth="yes"/>
      <point x="62" y="330"/>
      <point x="74" y="312"/>
      <point x="101" y="312" type="curve" smooth="yes"/>
      <point x="158" y="312"/>
      <point x="116" y="410"/>
      <point x="213" y="410" type="curve" smooth="yes"/>
      <point x="274" y="410"/>
      <point x="310" y="377"/>
      <point x="310" y="307" type="curve" smooth="yes"/>
      <point x="310" y="137" type="line"/>
      <point x="295" y="68"/>
      <point x="240" y="30"/>
      <point x="192" y="30" type="curve" smooth="yes"/>
      <point x="147" y="30"/>
      <point x="114" y="59"/>
      <point x="114" y="122" type="curve" smooth="yes"/>
      <point x="114" y="205"/>
      <point x="195" y="217"/>
      <point x="318" y="217" type="curve"/>
      <point x="318" y="244" type="line"/>
      <point x="131" y="244"/>
      <point x="35" y="205"/>
      <point x="35" y="105" type="curve" smooth="yes"/>
      <point x="35" y="28"/>
      <point x="94" y="-10"/>
      <point x="159" y="-10" type="curve" smooth="yes"/>
      <point x="229" y="-10"/>
      <point x="299" y="34"/>
    </contour>
    <contour>
      <point x="456" y="9" type="move" name="ogonek"/>
    </contour>
    <contour>
      <point x="241" y="500" type="move" name="top"/>
    </contour>
  </outline>
</glyph>
<glyph name="c" format="1">
  <advance width="435"/>
  <unicode hex="0063"/>
  <outline>
    <contour>
      <point x="40" y="208" type="curve" smooth="yes"/>
      <point x="40" y="69"/>
      <point x="138" y="-10"/>
      <point x="254" y="-10" type="curve" smooth="yes"/>
      <point x="334" y="-10"/>
      <point x="401" y="28"/>
      <point x="430" y="97" type="curve"/>
      <point x="404" y="106" type="line"/>
      <point x="378" y="50"/>
      <point x="328" y="18"/>
      <point x="266" y="18" type="curve" smooth="yes"/>
      <point x="189" y="18"/>
      <point x="125" y="93"/>
      <point x="125" y="217" type="curve" smooth="yes"/>
      <point x="125" y="327"/>
      <point x="168" y="410"/>
      <point x="258" y="410" type="curve" smooth="yes"/>
      <point x="369" y="410"/>
      <point x="292" y="293"/>
      <point x="372" y="287" type="curve" smooth="yes"/>
      <point x="401" y="285"/>
      <point x="417" y="305"/>
      <point x="417" y="328" type="curve" smooth="yes"/>
      <point x="417" y="388"/>
      <point x="334" y="435"/>
      <point x="252" y="435" type="curve" smooth="yes"/>
      <point x="104" y="435"/>
      <point x="40" y="326"/>
    </contour>
    <contour>
      <point x="245" y="500" type="move" name="top"/>
    </contour>
    <contour>
      <point x="230" y="0" type="move" name="bottom"/>
    </contour>
  </outline>
</glyph>
<glyph name="d" format="1">
  <advance width="548"/>
  <unicode hex="0064"/>
  <outline>
    <contour>
      <point x="274" y="250" type="move" name="center"/>
    </contour>
    <contour>
      <point x="528" y="500" type="move" name="topright"/>
    </contour>
    <contour>
      <point x="381" y="128" type="curve"/>
      <point x="371" y="128" type="line"/>
      <point x="381" y="0" type="line"/>
      <point x="524" y="0" type="line"/>
      <point x="524" y="20"/>
      <point x="519" y="25"/>
      <point x="499" y="25" type="curve" smooth="yes"/>
      <point x="449" y="25" type="line"/>
      <point x="447" y="650" type="line"/>
      <point x="277" y="650" type="line"/>
      <point x="277" y="625" type="line"/>
      <point x="372" y="625" type="line"/>
      <point x="372" y="325" type="line"/>
      <point x="404" y="325" type="line"/>
      <point x="382" y="394"/>
      <point x="319" y="435"/>
      <point x="240" y="435" type="curve" smooth="yes"/>
      <point x="107" y="435"/>
      <point x="40" y="317"/>
      <point x="40" y="202" type="curve" smooth="yes"/>
      <point x="40" y="67"/>
      <point x="120" y="-10"/>
      <point x="215" y="-10" type="curve" smooth="yes"/>
      <point x="289" y="-10"/>
      <point x="349" y="33"/>
    </contour>
    <contour>
      <point x="125" y="214" type="curve" smooth="yes"/>
      <point x="125" y="347"/>
      <point x="182" y="410"/>
      <point x="254" y="410" type="curve" smooth="yes"/>
      <point x="323" y="410"/>
      <point x="375" y="350"/>
      <point x="375" y="233" type="curve" smooth="yes"/>
      <point x="375" y="117"/>
      <point x="324" y="30"/>
      <point x="242" y="30" type="curve" smooth="yes"/>
      <point x="165" y="30"/>
      <point x="125" y="103"/>
    </contour>
  </outline>
</glyph>
<glyph name="f" format="1">
  <advance width="304"/>
  <unicode hex="0066"/>
  <outline>
    <contour>
      <point x="251" y="25" type="curve" smooth="yes"/>
      <point x="181" y="25" type="line"/>
      <point x="181" y="431" type="line"/>
      <point x="106" y="441" type="line"/>
      <point x="106" y="85" type="line" smooth="yes"/>
      <point x="106" y="30"/>
      <point x="86" y="25"/>
      <point x="31" y="25" type="curve"/>
      <point x="31" y="0" type="line"/>
      <point x="276" y="0" type="line"/>
      <point x="276" y="20"/>
      <point x="271" y="25"/>
    </contour>
    <contour>
      <point x="391" y="586" type="curve" smooth="yes"/>
      <point x="391" y="623"/>
      <point x="345" y="655"/>
      <point x="277" y="655" type="curve" smooth="yes"/>
      <point x="196" y="655"/>
      <point x="106" y="603"/>
      <point x="106" y="441" type="curve"/>
      <point x="181" y="431" type="line"/>
      <point x="181" y="591"/>
      <point x="210" y="630"/>
      <point x="256" y="630" type="curve" smooth="yes"/>
      <point x="316" y="630"/>
      <point x="308" y="549"/>
      <point x="352" y="549" type="curve" smooth="yes"/>
      <point x="378" y="549"/>
      <point x="391" y="566"/>
    </contour>
    <contour>
      <point x="36" y="400" type="line"/>
      <point x="296" y="400" type="line"/>
      <point x="296" y="425" type="line"/>
      <point x="36" y="425" type="line"/>
    </contour>
  </outline>
</glyph>
<glyph name="k" format="1">
  <advance width="500"/>
  <unicode hex="006B"/>
  <outline>
    <contour>
      <point x="289" y="0" type="move" name="bottom"/>
    </contour>
    <contour>
      <point x="226" y="25" type="curve" smooth="yes"/>
      <point x="181" y="25" type="line"/>
      <point x="181" y="650" type="line"/>
      <point x="31" y="650" type="line"/>
      <point x="31" y="625" type="line"/>
      <point x="106" y="625" type="line"/>
      <point x="106" y="85" type="line" smooth="yes"/>
      <point x="106" y="30"/>
      <point x="86" y="25"/>
      <point x="31" y="25" type="curve"/>
      <point x="31" y="0" type="line"/>
      <point x="251" y="0" type="line"/>
      <point x="251" y="20"/>
      <point x="246" y="25"/>
    </contour>
    <contour>
      <point x="164" y="157" type="line"/>
      <point x="382" y="361" type="line" smooth="yes"/>
      <point x="412" y="389"/>
      <point x="424" y="400"/>
      <point x="453" y="400" type="curve" smooth="yes"/>
      <point x="473" y="400"/>
      <point x="478" y="405"/>
      <point x="478" y="425" type="curve"/>
      <point x="308" y="425" type="line"/>
      <point x="308" y="400" type="line"/>
      <point x="383" y="400" type="line"/>
      <point x="158" y="192" type="line"/>
    </contour>
    <contour>
      <point x="233" y="229" type="line"/>
      <point x="377" y="0" type="line"/>
      <point x="510" y="0" type="line"/>
      <point x="510" y="20"/>
      <point x="505" y="25"/>
      <point x="485" y="25" type="curve" smooth="yes"/>
      <point x="448" y="25" type="line"/>
      <point x="284" y="278" type="line"/>
    </contour>
  </outline>
</glyph>
<glyph name="l" format="1">
  <advance width="289"/>
  <unicode hex="006C"/>
  <outline>
    <contour>
      <point x="237" y="25" type="curve" smooth="yes"/>
      <point x="183" y="25" type="line"/>
      <point x="183" y="650" type="line"/>
      <point x="33" y="650" type="line"/>
      <point x="33" y="625" type="line"/>
      <point x="108" y="625" type="line"/>
      <point x="108" y="85" type="line" smooth="yes"/>
      <point x="108" y="30"/>
      <point x="88" y="25"/>
      <point x="33" y="25" type="curve"/>
      <point x="33" y="0" type="line"/>
      <point x="262" y="0" type="line"/>
      <point x="262" y="20"/>
      <point x="257" y="25"/>
    </contour>
  </outline>
</glyph>
<glyph name="m" format="1">
  <advance width="816"/>
  <unicode hex="006D"/>
  <outline>
    <contour>
      <point x="225" y="25" type="curve" smooth="yes"/>
      <point x="180" y="25" type="line"/>
      <point x="180" y="297" type="line"/>
      <point x="175" y="425" type="line"/>
      <point x="30" y="425" type="line"/>
      <point x="30" y="400" type="line"/>
      <point x="105" y="400" type="line"/>
      <point x="105" y="85" type="line" smooth="yes"/>
      <point x="105" y="30"/>
      <point x="85" y="25"/>
      <point x="30" y="25" type="curve"/>
      <point x="30" y="0" type="line"/>
      <point x="250" y="0" type="line"/>
      <point x="250" y="19"/>
      <point x="245" y="25"/>
    </contour>
    <contour>
      <point x="447" y="273" type="line" smooth="yes"/>
      <point x="447" y="378"/>
      <point x="389" y="435"/>
      <point x="325" y="435" type="curve" smooth="yes"/>
      <point x="269" y="435"/>
      <point x="207" y="400"/>
      <point x="178" y="323" type="curve"/>
      <point x="180" y="241" type="line"/>
      <point x="183" y="337"/>
      <point x="245" y="392"/>
      <point x="295" y="392" type="curve" smooth="yes"/>
      <point x="336" y="392"/>
      <point x="372" y="358"/>
      <point x="372" y="283" type="curve" smooth="yes"/>
      <point x="372" y="85" type="line" smooth="yes"/>
      <point x="372" y="30"/>
      <point x="357" y="25"/>
      <point x="302" y="25" type="curve"/>
      <point x="302" y="0" type="line"/>
      <point x="517" y="0" type="line"/>
      <point x="517" y="20"/>
      <point x="512" y="25"/>
      <point x="492" y="25" type="curve" smooth="yes"/>
      <point x="447" y="25" type="line"/>
    </contour>
    <contour>
      <point x="715" y="273" type="line" smooth="yes"/>
      <point x="715" y="378"/>
      <point x="654" y="435"/>
      <point x="583" y="435" type="curve" smooth="yes"/>
      <point x="527" y="435"/>
      <point x="469" y="400"/>
      <point x="440" y="323" type="curve"/>
      <point x="442" y="241" type="line"/>
      <point x="445" y="338"/>
      <point x="507" y="393"/>
      <point x="558" y="393" type="curve" smooth="yes"/>
      <point x="601" y="393"/>
      <point x="640" y="358"/>
      <point x="640" y="283" type="curve" smooth="yes"/>
      <point x="640" y="85" type="line" smooth="yes"/>
      <point x="640" y="30"/>
      <point x="625" y="25"/>
      <point x="570" y="25" type="curve"/>
      <point x="570" y="0" type="line"/>
      <point x="791" y="0" type="line"/>
      <point x="791" y="20"/>
      <point x="786" y="25"/>
      <point x="766" y="25" type="curve" smooth="yes"/>
      <point x="715" y="25" type="line"/>
    </contour>
  </outline>
</glyph>
<glyph name="o" format="1">
  <advance width="513"/>
  <unicode hex="006F"/>
  <outline>
    <contour>
      <point x="262" y="500" type="move" name="top"/>
    </contour>
    <contour>
      <point x="125" y="213" type="curve" smooth="yes"/>
      <point x="125" y="330"/>
      <point x="166" y="410"/>
      <point x="256" y="410" type="curve" smooth="yes"/>
      <point x="350" y="410"/>
      <point x="388" y="330"/>
      <point x="388" y="217" type="curve" smooth="yes"/>
      <point x="388" y="99"/>
      <point x="350" y="15"/>
      <point x="259" y="15" type="curve" smooth="yes"/>
      <point x="166" y="15"/>
      <point x="125" y="97"/>
    </contour>
    <contour>
      <point x="259" y="435" type="curve" smooth="yes"/>
      <point x="151" y="435"/>
      <point x="40" y="359"/>
      <point x="40" y="217" type="curve" smooth="yes"/>
      <point x="40" y="68"/>
      <point x="148" y="-10"/>
      <point x="256" y="-10" type="curve" smooth="yes"/>
      <point x="364" y="-10"/>
      <point x="473" y="69"/>
      <point x="473" y="213" type="curve" smooth="yes"/>
      <point x="473" y="361"/>
      <point x="366" y="435"/>
    </contour>
  </outline>
</glyph>
<glyph name="p" format="1">
  <advance width="550"/>
  <unicode hex="0070"/>
  <outline>
    <contour>
      <point x="176" y="-165" type="line"/>
      <point x="176" y="42" type="line"/>
      <point x="208" y="9"/>
      <point x="258" y="-10"/>
      <point x="303" y="-10" type="curve" smooth="yes"/>
      <point x="403" y="-10"/>
      <point x="510" y="68"/>
      <point x="510" y="222" type="curve" smooth="yes"/>
      <point x="510" y="329"/>
      <point x="458" y="435"/>
      <point x="340" y="435" type="curve" smooth="yes"/>
      <point x="273" y="435"/>
      <point x="204" y="402"/>
      <point x="175" y="316" type="curve"/>
      <point x="170" y="425" type="line"/>
      <point x="26" y="425" type="line"/>
      <point x="26" y="400" type="line"/>
      <point x="101" y="400" type="line"/>
      <point x="101" y="-105" type="line" smooth="yes"/>
      <point x="101" y="-160"/>
      <point x="81" y="-165"/>
      <point x="26" y="-165" type="curve"/>
      <point x="26" y="-190" type="line"/>
      <point x="271" y="-190" type="line"/>
      <point x="271" y="-170"/>
      <point x="266" y="-165"/>
      <point x="246" y="-165" type="curve" smooth="yes"/>
    </contour>
    <contour>
      <point x="308" y="395" type="curve" smooth="yes"/>
      <point x="385" y="395"/>
      <point x="425" y="326"/>
      <point x="425" y="212" type="curve" smooth="yes"/>
      <point x="425" y="84"/>
      <point x="375" y="15"/>
      <point x="296" y="15" type="curve" smooth="yes"/>
      <point x="231" y="15"/>
      <point x="175" y="66"/>
      <point x="175" y="193" type="curve" smooth="yes"/>
      <point x="175" y="318"/>
      <point x="229" y="395"/>
    </contour>
  </outline>
</glyph>
<glyph name="q" format="1">
  <advance width="550"/>
  <unicode hex="0071"/>
  <outline>
    <contour>
      <point x="40" y="195" type="curve" smooth="yes"/>
      <point x="40" y="60"/>
      <point x="122" y="-10"/>
      <point x="214" y="-10" type="curve" smooth="yes"/>
      <point x="288" y="-10"/>
      <point x="360" y="35"/>
      <point x="386" y="129" type="curve"/>
      <point x="375" y="129" type="line"/>
      <point x="374" y="-105" type="line" smooth="yes"/>
      <point x="374" y="-160"/>
      <point x="349" y="-165"/>
      <point x="279" y="-165" type="curve"/>
      <point x="279" y="-190" type="line"/>
      <point x="525" y="-190" type="line"/>
      <point x="525" y="-170"/>
      <point x="520" y="-165"/>
      <point x="500" y="-165" type="curve" smooth="yes"/>
      <point x="449" y="-165" type="line"/>
      <point x="449" y="400" type="line"/>
      <point x="524" y="400" type="line"/>
      <point x="524" y="425" type="line"/>
      <point x="384" y="425" type="line"/>
      <point x="372" y="325" type="line"/>
      <point x="418" y="325" type="line"/>
      <point x="390" y="396"/>
      <point x="314" y="435"/>
      <point x="242" y="435" type="curve" smooth="yes"/>
      <point x="143" y="435"/>
      <point x="40" y="361"/>
    </contour>
    <contour>
      <point x="375" y="232" type="curve" smooth="yes"/>
      <point x="375" y="105"/>
      <point x="324" y="30"/>
      <point x="244" y="30" type="curve" smooth="yes"/>
      <point x="168" y="30"/>
      <point x="125" y="96"/>
      <point x="125" y="213" type="curve" smooth="yes"/>
      <point x="125" y="331"/>
      <point x="169" y="410"/>
      <point x="255" y="410" type="curve" smooth="yes"/>
      <point x="331" y="410"/>
      <point x="375" y="350"/>
    </contour>
  </outline>
</glyph>
<glyph name="s" format="1">
  <advance width="400"/>
  <unicode hex="0073"/>
  <outline>
    <contour>
      <point x="190" y="17" type="curve" smooth="yes"/>
      <point x="245" y="17"/>
      <point x="292" y="43"/>
      <point x="292" y="92" type="curve" smooth="yes"/>
      <point x="292" y="196"/>
      <point x="50" y="174"/>
      <point x="50" y="325" type="curve" smooth="yes"/>
      <point x="50" y="398"/>
      <point x="123" y="435"/>
      <point x="202" y="435" type="curve" smooth="yes"/>
      <point x="242" y="435"/>
      <point x="283" y="426"/>
      <point x="316" y="407" type="curve"/>
      <point x="316" y="434"/>
      <point x="321" y="441"/>
      <point x="343" y="441" type="curve"/>
      <point x="343" y="316" type="line"/>
      <point x="317" y="316" type="line"/>
      <point x="317" y="374"/>
      <point x="286" y="409"/>
      <point x="215" y="409" type="curve" smooth="yes"/>
      <point x="161" y="409"/>
      <point x="117" y="387"/>
      <point x="117" y="340" type="curve" smooth="yes"/>
      <point x="117" y="233"/>
      <point x="360" y="261"/>
      <point x="360" y="109" type="curve" smooth="yes"/>
      <point x="360" y="25"/>
      <point x="283" y="-10"/>
      <point x="202" y="-10" type="curve" smooth="yes"/>
      <point x="153" y="-10"/>
      <point x="111" y="3"/>
      <point x="77" y="26" type="curve"/>
      <point x="77" y="0"/>
      <point x="72" y="-5"/>
      <point x="50" y="-5" type="curve"/>
      <point x="50" y="147" type="line"/>
      <point x="78" y="147" type="line"/>
      <point x="78" y="58"/>
      <point x="118" y="17"/>
    </contour>
    <contour>
      <point x="200" y="500" type="move" name="top"/>
    </contour>
    <contour>
      <point x="200" y="0" type="move" name="bottom"/>
    </contour>
  </outline>
</glyph>
<glyph name="v" format="1">
  <advance width="464"/>
  <unicode hex="0076"/>
  <outline>
    <contour>
      <point x="197" y="400" type="line"/>
      <point x="197" y="425" type="line"/>
      <point x="3" y="425" type="line"/>
      <point x="3" y="400" type="line"/>
      <point x="48" y="400" type="line"/>
      <point x="170" y="65" type="line" smooth="yes"/>
      <point x="192" y="5"/>
      <point x="207" y="-5"/>
      <point x="244" y="-5" type="curve" smooth="yes"/>
      <point x="257" y="-5" type="line"/>
      <point x="398" y="365" type="line" smooth="yes"/>
      <point x="408" y="390"/>
      <point x="416" y="400"/>
      <point x="436" y="400" type="curve" smooth="yes"/>
      <point x="456" y="400"/>
      <point x="461" y="405"/>
      <point x="461" y="425" type="curve"/>
      <point x="307" y="425" type="line"/>
      <point x="307" y="400" type="line"/>
      <point x="382" y="400" type="line"/>
      <point x="252" y="51" type="line"/>
      <point x="258" y="51" type="line"/>
      <point x="127" y="400" type="line"/>
    </contour>
  </outline>
</glyph>
<glyph name="x" format="1">
  <advance width="434"/>
  <unicode hex="0078"/>
  <outline>
    <contour>
      <point x="216" y="176" type="line"/>
      <point x="355" y="370" type="line" smooth="yes"/>
      <point x="393" y="423"/>
      <point x="425" y="380"/>
      <point x="425" y="425" type="curve"/>
      <point x="275" y="425" type="line"/>
      <point x="275" y="400" type="line"/>
      <point x="345" y="400" type="line"/>
      <point x="201" y="200" type="line"/>
    </contour>
    <contour>
      <point x="1" y="0" type="curve"/>
      <point x="156" y="0" type="line"/>
      <point x="156" y="25" type="line"/>
      <point x="81" y="25" type="line"/>
      <point x="236" y="229" type="line"/>
      <point x="218" y="250" type="line"/>
      <point x="69" y="55" type="line" smooth="yes"/>
      <point x="29" y="3"/>
      <point x="1" y="46"/>
    </contour>
    <contour>
      <point x="390" y="25" type="line"/>
      <point x="133" y="400" type="line"/>
      <point x="200" y="400" type="line"/>
      <point x="200" y="425" type="line"/>
      <point x="0" y="425" type="line"/>
      <point x="0" y="400" type="line"/>
      <point x="49" y="400" type="line"/>
      <point x="309" y="25" type="line"/>
      <point x="248" y="25" type="line"/>
      <point x="248" y="0" type="line"/>
      <point x="434" y="0" type="line"/>
      <point x="434" y="20"/>
      <point x="429" y="25"/>
      <point x="409" y="25" type="curve" smooth="yes"/>
    </contour>
  </outline>
</glyph>
<glyph name="y" format="1">
  <advance width="484"/>
  <unicode hex="0079"/>
  <outline>
    <contour>
      <point x="103" y="-159" type="curve" smooth="yes"/>
      <point x="68" y="-159"/>
      <point x="87" y="-92"/>
      <point x="37" y="-92" type="curve" smooth="yes"/>
      <point x="12" y="-92"/>
      <point x="-1" y="-108"/>
      <point x="-1" y="-127" type="curve" smooth="yes"/>
      <point x="-1" y="-164"/>
      <point x="39" y="-190"/>
      <point x="85" y="-190" type="curve" smooth="yes"/>
      <point x="147" y="-190"/>
      <point x="206" y="-153"/>
      <point x="268" y="0" type="curve" smooth="yes"/>
      <point x="416" y="365" type="line" smooth="yes"/>
      <point x="426" y="393"/>
      <point x="431" y="399"/>
      <point x="454" y="399" type="curve" smooth="yes"/>
      <point x="472" y="399"/>
      <point x="479" y="400"/>
      <point x="479" y="425" type="curve"/>
      <point x="327" y="425" type="line"/>
      <point x="327" y="399" type="line"/>
      <point x="400" y="399" type="line"/>
      <point x="266" y="64" type="line"/>
      <point x="278" y="64" type="line"/>
      <point x="135" y="399" type="line"/>
      <point x="202" y="399" type="line"/>
      <point x="202" y="425" type="line"/>
      <point x="7" y="425" type="line"/>
      <point x="7" y="399" type="line"/>
      <point x="56" y="399" type="line"/>
      <point x="236" y="0" type="line"/>
      <point x="187" y="-116"/>
      <point x="150" y="-159"/>
    </contour>
  </outline>
</glyph>
<glyph name="bar" format="1">
  <advance width="277"/>
  <unicode hex="007C"/>
  <outline>
    <contour>
      <point x="110" y="-136" type="line"/>
      <point x="110" y="650" type="line"/>
      <point x="167" y="650" type="line"/>
      <point x="167" y="-136" type="line"/>
    </contour>
  </outline>
</glyph>
<glyph name="asciitilde" format="1">
  <advance width="495"/>
  <unicode hex="007E"/>
  <outline>
    <contour>
      <point x="160" y="309" type="curve" smooth="yes"/>
      <point x="230" y="309"/>
      <point x="295" y="241"/>
      <point x="351" y="241" type="curve" smooth="yes"/>
      <point x="390" y="241"/>
      <point x="415" y="269"/>
      <point x="431" y="309" type="curve"/>
      <point x="455" y="301" type="line"/>
      <point x="437" y="219"/>
      <point x="386" y="184"/>
      <point x="340" y="184" type="curve" smooth="yes"/>
      <point x="269" y="184"/>
      <point x="199" y="251"/>
      <point x="140" y="251" type="curve" smooth="yes"/>
      <point x="103" y="251"/>
      <point x="80" y="225"/>
      <point x="64" y="185" type="curve"/>
      <point x="40" y="193" type="line"/>
      <point x="62" y="276"/>
      <point x="112" y="309"/>
    </contour>
  </outline>
</glyph>
<glyph name="sterling" format="1">
  <advance width="574"/>
  <unicode hex="00A3"/>
  <outline>
    <contour>
      <point x="549" y="150" type="curve"/>
      <point x="528" y="150" type="line"/>
      <point x="511" y="96"/>
      <point x="467" y="77"/>
      <point x="399" y="77" type="curve" smooth="yes"/>
      <point x="292" y="77"/>
      <point x="180" y="129"/>
      <point x="127" y="129" type="curve" smooth="yes"/>
      <point x="75" y="129"/>
      <point x="50" y="98"/>
      <point x="50" y="62" type="curve" smooth="yes"/>
      <point x="50" y="30"/>
      <point x="76" y="0"/>
      <point x="117" y="0" type="curve" smooth="yes"/>
      <point x="171" y="0"/>
      <point x="236" y="51"/>
      <point x="236" y="199" type="curve" smooth="yes"/>
      <point x="236" y="279"/>
      <point x="219" y="368"/>
      <point x="219" y="441" type="curve" smooth="yes"/>
      <point x="219" y="554"/>
      <point x="264" y="583"/>
      <point x="321" y="583" type="curve" smooth="yes"/>
      <point x="443" y="583"/>
      <point x="367" y="444"/>
      <point x="458" y="444" type="curve" smooth="yes"/>
      <point x="489" y="444"/>
      <point x="509" y="467"/>
      <point x="509" y="498" type="curve" smooth="yes"/>
      <point x="509" y="570"/>
      <point x="418" y="610"/>
      <point x="331" y="610" type="curve" smooth="yes"/>
      <point x="197" y="610"/>
      <point x="121" y="536"/>
      <point x="121" y="425" type="curve" smooth="yes"/>
      <point x="121" y="324"/>
      <point x="185" y="226"/>
      <point x="185" y="113" type="curve" smooth="yes"/>
      <point x="185" y="56"/>
      <point x="146" y="28"/>
      <point x="116" y="28" type="curve" smooth="yes"/>
      <point x="96" y="28"/>
      <point x="82" y="42"/>
      <point x="82" y="61" type="curve" smooth="yes"/>
      <point x="82" y="83"/>
      <point x="99" y="101"/>
      <point x="125" y="101" type="curve" smooth="yes"/>
      <point x="210" y="101"/>
      <point x="298" y="-9"/>
      <point x="407" y="-9" type="curve" smooth="yes"/>
      <point x="487" y="-9"/>
      <point x="549" y="40"/>
    </contour>
    <contour>
      <point x="385" y="300" type="line"/>
      <point x="385" y="329" type="line"/>
      <point x="64" y="329" type="line"/>
      <point x="64" y="300" type="line"/>
    </contour>
  </outline>
</glyph>
<glyph name="plusminus" format="1">
  <advance width="469"/>
  <unicode hex="00B1"/>
  <outline>
    <contour>
      <point x="424" y="256" type="line"/>
      <point x="424" y="292" type="line"/>
      <point x="45" y="292" type="line"/>
      <point x="45" y="256" type="line"/>
    </contour>
    <contour>
      <point x="212" y="118" type="line"/>
      <point x="257" y="118" type="line"/>
      <point x="257" y="430" type="line"/>
      <point x="212" y="430" type="line"/>
    </contour>
    <contour>
      <point x="424" y="36" type="line"/>
      <point x="424" y="72" type="line"/>
      <point x="45" y="72" type="line"/>
      <point x="45" y="36" type="line"/>
    </contour>
  </outline>
</glyph>
<glyph name="acute" format="1">
  <advance width="500"/>
  <unicode hex="00B4"/>
  <outline>
    <contour>
      <point x="278" y="500" type="move" name="_top"/>
    </contour>
    <contour>
      <point x="368" y="583" type="curve" smooth="yes"/>
      <point x="376" y="591"/>
      <point x="381" y="601"/>
      <point x="381" y="611" type="curve" smooth="yes"/>
      <point x="381" y="634"/>
      <point x="358" y="656"/>
      <point x="335" y="656" type="curve" smooth="yes"/>
      <point x="325" y="656"/>
      <point x="315" y="652"/>
      <point x="306" y="643" type="curve" smooth="yes"/>
      <point x="282" y="619"/>
      <point x="253" y="553"/>
      <point x="204" y="500" type="curve"/>
      <point x="220" y="483" type="line"/>
      <point x="277" y="529"/>
      <point x="343" y="558"/>
    </contour>
  </outline>
</glyph>
<glyph name="paragraph" format="1">
  <advance width="515"/>
  <unicode hex="00B6"/>
  <outline>
    <contour>
      <point x="299" y="215" type="line"/>
      <point x="299" y="574" type="line"/>
      <point x="500" y="574" type="line"/>
      <point x="500" y="600" type="line"/>
      <point x="298" y="600" type="line" smooth="yes"/>
      <point x="129" y="600"/>
      <point x="50" y="509"/>
      <point x="50" y="400" type="curve" smooth="yes"/>
      <point x="50" y="296"/>
      <point x="122" y="215"/>
      <point x="256" y="215" type="curve" smooth="yes"/>
    </contour>
    <contour>
      <point x="350" y="70" type="line" smooth="yes"/>
      <point x="350" y="-29"/>
      <point x="329" y="-68"/>
      <point x="280" y="-82" type="curve"/>
      <point x="294" y="-64"/>
      <point x="299" y="-18"/>
      <point x="299" y="58" type="curve" smooth="yes"/>
      <point x="299" y="585" type="line"/>
      <point x="271" y="585" type="line"/>
      <point x="271" y="48" type="line" smooth="yes"/>
      <point x="271" y="-69"/>
      <point x="260" y="-87"/>
      <point x="231" y="-87" type="curve" smooth="yes"/>
      <point x="174" y="-87"/>
      <point x="214" y="16"/>
      <point x="136" y="16" type="curve" smooth="yes"/>
      <point x="106" y="16"/>
      <point x="86" y="-5"/>
      <point x="86" y="-34" type="curve" smooth="yes"/>
      <point x="86" y="-80"/>
      <point x="149" y="-113"/>
      <point x="221" y="-113" type="curve" smooth="yes"/>
      <point x="314" y="-113"/>
      <point x="423" y="-58"/>
      <point x="422" y="94" type="curve" smooth="yes"/>
      <point x="420" y="600" type="line"/>
      <point x="350" y="600" type="line"/>
    </contour>
  </outline>
</glyph>
<glyph name="onequarter" format="1">
  <advance width="786"/>
  <unicode hex="00BC"/>
  <outline>
    <contour>
      <point x="172" y="629" type="line"/>
      <point x="40" y="536" type="line"/>
      <point x="55" y="514" type="line"/>
      <point x="150" y="579" type="line"/>
      <point x="150" y="336" type="line"/>
      <point x="68" y="329" type="line"/>
      <point x="68" y="309" type="line"/>
      <point x="292" y="309" type="line"/>
      <point x="292" y="325"/>
      <point x="287" y="328"/>
      <point x="270" y="330" type="curve" smooth="yes"/>
      <point x="218" y="336" type="line"/>
      <point x="218" y="629" type="line"/>
    </contour>
    <contour>
      <point x="181" y="-62" type="line"/>
      <point x="618" y="577" type="line"/>
      <point x="589" y="597" type="line"/>
      <point x="151" y="-43" type="line"/>
    </contour>
    <contour>
      <point x="671" y="291" type="curve" smooth="yes"/>
      <point x="671" y="313"/>
      <point x="659" y="325"/>
      <point x="637" y="325" type="curve" smooth="yes"/>
      <point x="575" y="325"/>
      <point x="614" y="218"/>
      <point x="426" y="64" type="curve"/>
      <point x="447" y="55" type="line"/>
      <point x="535" y="129"/>
      <point x="671" y="225"/>
    </contour>
    <contour>
      <point x="736" y="-55" type="line"/>
      <point x="736" y="-37"/>
      <point x="732" y="-34"/>
      <point x="716" y="-34" type="curve" smooth="yes"/>
      <point x="531" y="-34" type="line"/>
      <point x="531" y="-55" type="line"/>
    </contour>
    <contour>
      <point x="736" y="63" type="line"/>
      <point x="426" y="64" type="line"/>
      <point x="431" y="41" type="line"/>
      <point x="736" y="40" type="line"/>
    </contour>
    <contour>
      <point x="670" y="-55" type="line"/>
      <point x="670" y="188" type="line"/>
      <point x="655" y="188" type="line"/>
      <point x="648" y="170" type="line" smooth="yes"/>
      <point x="638" y="145"/>
      <point x="631" y="137"/>
      <point x="609" y="136" type="curve" smooth="yes"/>
      <point x="604" y="136" type="line"/>
      <point x="604" y="-55" type="line"/>
    </contour>
  </outline>
</glyph>
<glyph name="onehalf" format="1">
  <advance width="718"/>
  <unicode hex="00BD"/>
  <outline>
    <contour>
      <point x="577" y="630" type="line"/>
      <point x="139" y="-10" type="line"/>
      <point x="169" y="-29" type="line"/>
      <point x="606" y="610" type="line"/>
    </contour>
    <contour>
      <point x="68" y="309" type="line"/>
      <point x="68" y="289" type="line"/>
      <point x="292" y="289" type="line"/>
      <point x="292" y="305"/>
      <point x="287" y="308"/>
      <point x="270" y="310" type="curve" smooth="yes"/>
      <point x="218" y="316" type="line"/>
      <point x="218" y="609" type="line"/>
      <point x="172" y="609" type="line"/>
      <point x="40" y="516" type="line"/>
      <point x="55" y="494" type="line"/>
      <point x="150" y="559" type="line"/>
      <point x="150" y="316" type="line"/>
    </contour>
    <contour>
      <point x="672" y="106" type="line"/>
      <point x="662" y="81" type="line" smooth="yes"/>
      <point x="653" y="59"/>
      <point x="643" y="56"/>
      <point x="607" y="56" type="curve" smooth="yes"/>
      <point x="476" y="56" type="line"/>
      <point x="476" y="103"/>
      <point x="676" y="135"/>
      <point x="676" y="237" type="curve" smooth="yes"/>
      <point x="676" y="301"/>
      <point x="614" y="326"/>
      <point x="553" y="326" type="curve" smooth="yes"/>
      <point x="491" y="326"/>
      <point x="430" y="299"/>
      <point x="430" y="247" type="curve" smooth="yes"/>
      <point x="430" y="228"/>
      <point x="440" y="213"/>
      <point x="464" y="213" type="curve" smooth="yes"/>
      <point x="537" y="213"/>
      <point x="464" y="306"/>
      <point x="546" y="306" type="curve" smooth="yes"/>
      <point x="588" y="306"/>
      <point x="601" y="285"/>
      <point x="601" y="243" type="curve" smooth="yes"/>
      <point x="601" y="123"/>
      <point x="431" y="124"/>
      <point x="431" y="13" type="curve" smooth="yes"/>
      <point x="431" y="0" type="line"/>
      <point x="683" y="0" type="line"/>
      <point x="684" y="106" type="line"/>
    </contour>
  </outline>
</glyph>
<glyph name="threequarters" format="1">
  <advance width="795"/>
  <unicode hex="00BE"/>
  <outline>
    <contour>
      <point x="593" y="630" type="line"/>
      <point x="155" y="-10" type="line"/>
      <point x="185" y="-29" type="line"/>
      <point x="622" y="610" type="line"/>
    </contour>
    <contour>
      <point x="308" y="425"/>
      <point x="260" y="460"/>
      <point x="193" y="460" type="curve" smooth="yes"/>
      <point x="180" y="460"/>
      <point x="167" y="459"/>
      <point x="154" y="456" type="curve"/>
      <point x="292" y="596" type="line"/>
      <point x="292" y="609" type="line"/>
      <point x="50" y="609" type="line"/>
      <point x="48" y="504" type="line"/>
      <point x="63" y="504" type="line"/>
      <point x="75" y="533" type="line" smooth="yes"/>
      <point x="84" y="554"/>
      <point x="98" y="554"/>
      <point x="125" y="554" type="curve" smooth="yes"/>
      <point x="225" y="554" type="line"/>
      <point x="116" y="443" type="line"/>
      <point x="130" y="431" type="line"/>
      <point x="145" y="438"/>
      <point x="159" y="441"/>
      <point x="173" y="441" type="curve" smooth="yes"/>
      <point x="221" y="441"/>
      <point x="235" y="408"/>
      <point x="235" y="366" type="curve" smooth="yes"/>
      <point x="235" y="317"/>
      <point x="219" y="266"/>
      <point x="155" y="266" type="curve" smooth="yes"/>
      <point x="90" y="266"/>
      <point x="144" y="360"/>
      <point x="77" y="360" type="curve" smooth="yes"/>
      <point x="51" y="360"/>
      <point x="40" y="343"/>
      <point x="40" y="325" type="curve" smooth="yes"/>
      <point x="40" y="274"/>
      <point x="93" y="248"/>
      <point x="154" y="248" type="curve" smooth="yes"/>
      <point x="225" y="248"/>
      <point x="308" y="288"/>
      <point x="308" y="369" type="curve" smooth="yes"/>
    </contour>
    <contour>
      <point x="690" y="50" type="line"/>
      <point x="690" y="73" type="line"/>
      <point x="624" y="73" type="line"/>
      <point x="624" y="198" type="line"/>
      <point x="609" y="198" type="line"/>
      <point x="602" y="180" type="line" smooth="yes"/>
      <point x="592" y="155"/>
      <point x="585" y="147"/>
      <point x="563" y="146" type="curve"/>
      <point x="558" y="146" type="line"/>
      <point x="558" y="73" type="line"/>
      <point x="412" y="74" type="line"/>
      <point x="500" y="147"/>
      <point x="625" y="238"/>
      <point x="625" y="301" type="curve" smooth="yes"/>
      <point x="625" y="323"/>
      <point x="613" y="335"/>
      <point x="591" y="335" type="curve" smooth="yes"/>
      <point x="529" y="335"/>
      <point x="568" y="228"/>
      <point x="380" y="74" type="curve"/>
      <point x="385" y="51" type="line"/>
      <point x="558" y="50" type="line"/>
      <point x="558" y="-24" type="line"/>
      <point x="485" y="-24" type="line"/>
      <point x="485" y="-45" type="line"/>
      <point x="690" y="-45" type="line"/>
      <point x="690" y="-27"/>
      <point x="686" y="-24"/>
      <point x="670" y="-24" type="curve" smooth="yes"/>
      <point x="624" y="-24" type="line"/>
      <point x="624" y="50" type="line"/>
    </contour>
  </outline>
</glyph>
<glyph name="multiply" format="1">
  <advance width="400"/>
  <unicode hex="00D7"/>
  <outline>
    <contour>
      <point x="327" y="79" type="line"/>
      <point x="355" y="107" type="line"/>
      <point x="73" y="389" type="line"/>
      <point x="45" y="361" type="line"/>
    </contour>
    <contour>
      <point x="46" y="107" type="line"/>
      <point x="73" y="80" type="line"/>
      <point x="355" y="362" type="line"/>
      <point x="328" y="389" type="line"/>
    </contour>
  </outline>
</glyph>
<glyph name="Thorn" format="1">
  <advance width="585"/>
  <unicode hex="00DE"/>
  <outline>
    <contour>
      <point x="292" y="145" type="line" smooth="yes"/>
      <point x="447" y="145"/>
      <point x="530" y="214"/>
      <point x="530" y="319" type="curve" smooth="yes"/>
      <point x="530" y="409"/>
      <point x="469" y="480"/>
      <point x="334" y="480" type="curve" smooth="yes"/>
      <point x="160" y="480" type="line"/>
      <point x="160" y="454" type="line"/>
      <point x="313" y="454" type="line" smooth="yes"/>
      <point x="398" y="454"/>
      <point x="436" y="393"/>
      <point x="436" y="318" type="curve" smooth="yes"/>
      <point x="436" y="233"/>
      <point x="396" y="174"/>
      <point x="296" y="174" type="curve" smooth="yes"/>
      <point x="160" y="174" type="line"/>
      <point x="160" y="145" type="line"/>
    </contour>
    <contour>
      <point x="291" y="0" type="line"/>
      <point x="291" y="22"/>
      <point x="286" y="26"/>
      <point x="266" y="26" type="curve" smooth="yes"/>
      <point x="35" y="26" type="line"/>
      <point x="35" y="0" type="line"/>
    </contour>
    <contour>
      <point x="291" y="574" type="line"/>
      <point x="291" y="600" type="line"/>
      <point x="35" y="600" type="line"/>
      <point x="35" y="574" type="line"/>
    </contour>
    <component base="vertical_stem_upper" xOffset="78"/>
  </outline>
</glyph>
<glyph name="germandbls" format="1">
  <advance width="543"/>
  <unicode hex="00DF"/>
  <outline>
    <contour>
      <point x="523" y="119" type="curve" smooth="yes"/>
      <point x="523" y="257"/>
      <point x="342" y="276"/>
      <point x="342" y="363" type="curve" smooth="yes"/>
      <point x="342" y="438"/>
      <point x="468" y="423"/>
      <point x="468" y="530" type="curve" smooth="yes"/>
      <point x="468" y="598"/>
      <point x="393" y="648"/>
      <point x="296" y="648" type="curve" smooth="yes"/>
      <point x="193" y="648"/>
      <point x="107" y="592"/>
      <point x="107" y="441" type="curve" smooth="yes"/>
      <point x="107" y="78" type="line" smooth="yes"/>
      <point x="107" y="36"/>
      <point x="73" y="26"/>
      <point x="31" y="26" type="curve"/>
      <point x="31" y="0" type="line"/>
      <point x="182" y="0" type="line"/>
      <point x="182" y="431" type="line" smooth="yes"/>
      <point x="182" y="577"/>
      <point x="220" y="627"/>
      <point x="292" y="627" type="curve" smooth="yes"/>
      <point x="352" y="627"/>
      <point x="390" y="582"/>
      <point x="390" y="520" type="curve" smooth="yes"/>
      <point x="390" y="412"/>
      <point x="272" y="435"/>
      <point x="272" y="342" type="curve" smooth="yes"/>
      <point x="272" y="222"/>
      <point x="453" y="202"/>
      <point x="453" y="102" type="curve" smooth="yes"/>
      <point x="453" y="47"/>
      <point x="423" y="13"/>
      <point x="382" y="13" type="curve" smooth="yes"/>
      <point x="308" y="13"/>
      <point x="337" y="103"/>
      <point x="282" y="103" type="curve" smooth="yes"/>
      <point x="256" y="103"/>
      <point x="243" y="86"/>
      <point x="243" y="66" type="curve" smooth="yes"/>
      <point x="243" y="20"/>
      <point x="308" y="-9"/>
      <point x="376" y="-9" type="curve" smooth="yes"/>
      <point x="448" y="-9"/>
      <point x="523" y="35"/>
    </contour>
    <contour>
      <point x="158" y="399" type="line"/>
      <point x="158" y="425" type="line"/>
      <point x="36" y="425" type="line"/>
      <point x="36" y="399" type="line"/>
    </contour>
  </outline>
</glyph>
<glyph name="idieresis" format="1">
  <advance width="287"/>
  <unicode hex="00EF"/>
  <outline>
    <contour>
      <point x="113" y="571" type="curve" smooth="yes"/>
      <point x="113" y="599"/>
      <point x="91" y="621"/>
      <point x="64" y="621" type="curve" smooth="yes"/>
      <point x="35" y="621"/>
      <point x="13" y="599"/>
      <point x="13" y="571" type="curve" smooth="yes"/>
      <point x="13" y="542"/>
      <point x="35" y="521"/>
      <point x="64" y="521" type="curve" smooth="yes"/>
      <point x="91" y="521"/>
      <point x="113" y="542"/>
    </contour>
    <contour>
      <point x="276" y="571" type="curve" smooth="yes"/>
      <point x="276" y="599"/>
      <point x="254" y="621"/>
      <point x="226" y="621" type="curve" smooth="yes"/>
      <point x="198" y="621"/>
      <point x="176" y="599"/>
      <point x="176" y="571" type="curve" smooth="yes"/>
      <point x="176" y="542"/>
      <point x="198" y="521"/>
      <point x="226" y="521" type="curve" smooth="yes"/>
      <point x="254" y="521"/>
      <point x="276" y="542"/>
    </contour>
    <component base="dotlessi"/>
  </outline>
</glyph>
<glyph name="divide" format="1">
  <advance width="469"/>
  <unicode hex="00F7"/>
  <outline>
    <contour>
      <point x="424" y="216" type="line"/>
      <point x="424" y="252" type="line"/>
      <point x="45" y="252" type="line"/>
      <point x="45" y="216" type="line"/>
    </contour>
    <component base="dot" xOffset="138" yOffset="32"/>
    <component base="dot" xOffset="138" yOffset="335"/>
  </outline>
</glyph>
<glyph name="thorn" format="1">
  <advance width="557"/>
  <unicode hex="00FE"/>
  <outline>
    <contour>
      <point x="183" y="-164" type="line"/>
      <point x="183" y="42" type="line"/>
      <point x="215" y="9"/>
      <point x="265" y="-10"/>
      <point x="310" y="-10" type="curve" smooth="yes"/>
      <point x="410" y="-10"/>
      <point x="517" y="68"/>
      <point x="517" y="222" type="curve" smooth="yes"/>
      <point x="517" y="329"/>
      <point x="465" y="435"/>
      <point x="347" y="435" type="curve" smooth="yes"/>
      <point x="280" y="435"/>
      <point x="211" y="402"/>
      <point x="182" y="316" type="curve"/>
      <point x="182" y="650" type="line"/>
      <point x="30" y="650" type="line"/>
      <point x="30" y="624" type="line"/>
      <point x="108" y="624" type="line"/>
      <point x="108" y="-112" type="line" smooth="yes"/>
      <point x="108" y="-157"/>
      <point x="83" y="-164"/>
      <point x="32" y="-164" type="curve"/>
      <point x="32" y="-190" type="line"/>
      <point x="279" y="-190" type="line"/>
      <point x="279" y="-168"/>
      <point x="274" y="-164"/>
      <point x="255" y="-164" type="curve"/>
    </contour>
    <contour>
      <point x="315" y="395" type="curve" smooth="yes"/>
      <point x="392" y="395"/>
      <point x="432" y="326"/>
      <point x="432" y="212" type="curve" smooth="yes"/>
      <point x="432" y="84"/>
      <point x="382" y="15"/>
      <point x="303" y="15" type="curve" smooth="yes"/>
      <point x="238" y="15"/>
      <point x="182" y="66"/>
      <point x="182" y="193" type="curve" smooth="yes"/>
      <point x="182" y="318"/>
      <point x="236" y="395"/>
    </contour>
  </outline>
</glyph>
<glyph name="dcroat" format="1">
  <advance width="548"/>
  <unicode hex="0111"/>
  <outline>
    <contour>
      <point x="183" y="509" type="line"/>
      <point x="523" y="509" type="line"/>
      <point x="523" y="542" type="line"/>
      <point x="183" y="542" type="line"/>
    </contour>
    <component base="d"/>
  </outline>
</glyph>
<glyph name="imacron" format="1">
  <advance width="287"/>
  <unicode hex="012B"/>
  <outline>
    <contour>
      <point x="26" y="540" type="line"/>
      <point x="266" y="540" type="line"/>
      <point x="266" y="590" type="line"/>
      <point x="26" y="590" type="line"/>
    </contour>
    <component base="dotlessi"/>
  </outline>
</glyph>
<glyph name="dotlessi" format="1">
  <advance width="287"/>
  <unicode hex="0131"/>
  <outline>
    <contour>
      <point x="262" y="9" type="move" name="ogonek"/>
    </contour>
    <contour>
      <point x="144" y="500" type="move" name="top"/>
    </contour>
    <contour>
      <point x="238" y="26" type="curve" smooth="yes"/>
      <point x="186" y="26" type="line"/>
      <point x="186" y="425" type="line"/>
      <point x="30" y="425" type="line"/>
      <point x="30" y="399" type="line"/>
      <point x="106" y="399" type="line"/>
      <point x="106" y="78" type="line" smooth="yes"/>
      <point x="106" y="36"/>
      <point x="72" y="26"/>
      <point x="30" y="26" type="curve"/>
      <point x="30" y="0" type="line"/>
      <point x="262" y="0" type="line"/>
      <point x="262" y="22"/>
      <point x="257" y="26"/>
    </contour>
  </outline>
</glyph>
<glyph name="lacute" format="1">
  <advance width="287"/>
  <unicode hex="013A"/>
  <outline>
    <contour>
      <point x="215" y="735" type="curve" smooth="yes"/>
      <point x="225" y="740"/>
      <point x="233" y="749"/>
      <point x="236" y="758" type="curve" smooth="yes"/>
      <point x="242" y="781"/>
      <point x="225" y="808"/>
      <point x="202" y="814" type="curve" smooth="yes"/>
      <point x="193" y="816"/>
      <point x="182" y="815"/>
      <point x="172" y="809" type="curve" smooth="yes"/>
      <point x="142" y="792"/>
      <point x="97" y="735"/>
      <point x="35" y="697" type="curve"/>
      <point x="47" y="677" type="line"/>
      <point x="114" y="706"/>
      <point x="185" y="717"/>
    </contour>
    <component base="l"/>
  </outline>
</glyph>
<glyph name="OE" format="1">
  <advance width="900"/>
  <unicode hex="0152"/>
  <outline>
    <contour>
      <point x="257" y="630" type="move" name="top"/>
    </contour>
    <contour>
      <point x="500" y="0" type="curve" smooth="yes"/>
      <point x="845" y="0" type="line"/>
      <point x="850" y="180" type="line"/>
      <point x="830" y="180" type="line"/>
      <point x="817" y="133" type="line" smooth="yes"/>
      <point x="803" y="82"/>
      <point x="770" y="26"/>
      <point x="697" y="26" type="curve" smooth="yes"/>
      <point x="509" y="26" type="line"/>
      <point x="480" y="43" type="line"/>
      <point x="446" y="29"/>
      <point x="408" y="22"/>
      <point x="371" y="22" type="curve" smooth="yes"/>
      <point x="215" y="22"/>
      <point x="155" y="130"/>
      <point x="155" y="300" type="curve" smooth="yes"/>
      <point x="155" y="466"/>
      <point x="210" y="578"/>
      <point x="363" y="578" type="curve" smooth="yes"/>
      <point x="403" y="578"/>
      <point x="443" y="570"/>
      <point x="480" y="557" type="curve"/>
      <point x="509" y="574" type="line"/>
      <point x="697" y="574" type="line" smooth="yes"/>
      <point x="769" y="574"/>
      <point x="802" y="515"/>
      <point x="816" y="467" type="curve" smooth="yes"/>
      <point x="830" y="420" type="line"/>
      <point x="850" y="420" type="line"/>
      <point x="845" y="600" type="line"/>
      <point x="499" y="600" type="line" smooth="yes"/>
      <point x="453" y="600"/>
      <point x="405" y="605"/>
      <point x="360" y="605" type="curve" smooth="yes"/>
      <point x="207" y="605"/>
      <point x="55" y="502"/>
      <point x="55" y="304" type="curve" smooth="yes"/>
      <point x="55" y="99"/>
      <point x="203" y="-5"/>
      <point x="362" y="-5" type="curve" smooth="yes"/>
      <point x="418" y="-5"/>
      <point x="466" y="0"/>
    </contour>
    <contour>
      <point x="756" y="295" type="line"/>
      <point x="756" y="324" type="line"/>
      <point x="506" y="324" type="line"/>
      <point x="506" y="295" type="line"/>
    </contour>
    <component base="vertical_stem_upper" xOffset="424"/>
  </outline>
</glyph>
<glyph name="florin" format="1">
  <advance width="441"/>
  <unicode hex="0192"/>
  <outline>
    <contour>
      <point x="246" y="295" type="curve" smooth="yes"/>
      <point x="254" y="463"/>
      <point x="256" y="584"/>
      <point x="320" y="584" type="curve" smooth="yes"/>
      <point x="388" y="584"/>
      <point x="338" y="483"/>
      <point x="403" y="483" type="curve" smooth="yes"/>
      <point x="431" y="483"/>
      <point x="446" y="505"/>
      <point x="446" y="530" type="curve" smooth="yes"/>
      <point x="446" y="566"/>
      <point x="416" y="610"/>
      <point x="348" y="610" type="curve" smooth="yes"/>
      <point x="264" y="610"/>
      <point x="183" y="549"/>
      <point x="158" y="270" type="curve" smooth="yes"/>
      <point x="140" y="64"/>
      <point x="143" y="-173"/>
      <point x="66" y="-173" type="curve" smooth="yes"/>
      <point x="0" y="-173"/>
      <point x="72" y="-66"/>
      <point x="-5" y="-66" type="curve" smooth="yes"/>
      <point x="-35" y="-66"/>
      <point x="-50" y="-88"/>
      <point x="-50" y="-114" type="curve" smooth="yes"/>
      <point x="-50" y="-151"/>
      <point x="-16" y="-195"/>
      <point x="51" y="-195" type="curve" smooth="yes"/>
      <point x="151" y="-195"/>
      <point x="228" y="-85"/>
    </contour>
    <contour>
      <point x="365" y="316" type="line"/>
      <point x="365" y="342" type="line"/>
      <point x="66" y="342" type="line"/>
      <point x="66" y="316" type="line"/>
    </contour>
  </outline>
</glyph>
<glyph name="tilde" format="1">
  <advance width="500"/>
  <unicode hex="02DC"/>
  <outline>
    <contour>
      <point x="201" y="633" type="curve" smooth="yes"/>
      <point x="258" y="633"/>
      <point x="283" y="574"/>
      <point x="326" y="574" type="curve" smooth="yes"/>
      <point x="353" y="574"/>
      <point x="369" y="591"/>
      <point x="380" y="631" type="curve"/>
      <point x="401" y="626" type="line"/>
      <point x="385" y="547"/>
      <point x="351" y="519"/>
      <point x="311" y="519" type="curve" smooth="yes"/>
      <point x="254" y="519"/>
      <point x="230" y="578"/>
      <point x="185" y="578" type="curve" smooth="yes"/>
      <point x="158" y="578"/>
      <point x="143" y="561"/>
      <point x="132" y="521" type="curve"/>
      <point x="112" y="526" type="line"/>
      <point x="128" y="605"/>
      <point x="161" y="633"/>
    </contour>
    <contour>
      <point x="250" y="500" type="move" name="_top"/>
    </contour>
  </outline>
</glyph>
<glyph name="uni0D83" format="1">
  <advance width="248"/>
  <unicode hex="0D83"/>
  <outline>
    <contour>
      <point x="60" y="111" type="curve" smooth="yes"/>
      <point x="60" y="81"/>
      <point x="85" y="56"/>
      <point x="115" y="56" type="curve" smooth="yes"/>
      <point x="145" y="56"/>
      <point x="170" y="81"/>
      <point x="170" y="111" type="curve" smooth="yes"/>
      <point x="170" y="141"/>
      <point x="145" y="166"/>
      <point x="115" y="166" type="curve" smooth="yes"/>
      <point x="85" y="166"/>
      <point x="60" y="141"/>
    </contour>
    <contour>
      <point x="31" y="110" type="curve" smooth="yes"/>
      <point x="31" y="156"/>
      <point x="69" y="194"/>
      <point x="115" y="194" type="curve" smooth="yes"/>
      <point x="161" y="194"/>
      <point x="199" y="156"/>
      <point x="199" y="110" type="curve" smooth="yes"/>
      <point x="199" y="64"/>
      <point x="161" y="26"/>
      <point x="115" y="26" type="curve" smooth="yes"/>
      <point x="69" y="26"/>
      <point x="31" y="64"/>
    </contour>
    <contour>
      <point x="60" y="313" type="curve" smooth="yes"/>
      <point x="60" y="283"/>
      <point x="85" y="258"/>
      <point x="115" y="258" type="curve" smooth="yes"/>
      <point x="145" y="258"/>
      <point x="170" y="283"/>
      <point x="170" y="313" type="curve" smooth="yes"/>
      <point x="170" y="343"/>
      <point x="145" y="368"/>
      <point x="115" y="368" type="curve" smooth="yes"/>
      <point x="85" y="368"/>
      <point x="60" y="343"/>
    </contour>
    <contour>
      <point x="31" y="312" type="curve" smooth="yes"/>
      <point x="31" y="358"/>
      <point x="69" y="396"/>
      <point x="115" y="396" type="curve" smooth="yes"/>
      <point x="161" y="396"/>
      <point x="199" y="358"/>
      <point x="199" y="312" type="curve" smooth="yes"/>
      <point x="199" y="266"/>
      <point x="161" y="228"/>
      <point x="115" y="228" type="curve" smooth="yes"/>
      <point x="69" y="228"/>
      <point x="31" y="266"/>
    </contour>
  </outline>
</glyph>
<glyph name="si_A" format="1">
  <advance width="573"/>
  <unicode hex="0D85"/>
  <outline>
    <contour>
      <point x="384" y="207" type="curve"/>
      <point x="384" y="235" type="line"/>
      <point x="393" y="230"/>
      <point x="404" y="229"/>
      <point x="411" y="229" type="curve" smooth="yes"/>
      <point x="440" y="229"/>
      <point x="464" y="249"/>
      <point x="464" y="287" type="curve" smooth="yes"/>
      <point x="464" y="311"/>
      <point x="460" y="326"/>
      <point x="448" y="345" type="curve" smooth="yes"/>
      <point x="437" y="362"/>
      <point x="421" y="371"/>
      <point x="421" y="398" type="curve" smooth="yes"/>
      <point x="421" y="400"/>
      <point x="422" y="402"/>
      <point x="422" y="404" type="curve"/>
      <point x="438" y="418" type="line" smooth="yes"/>
      <point x="457" y="422" type="line"/>
      <point x="450" y="418"/>
      <point x="445" y="414"/>
      <point x="445" y="403" type="curve" smooth="yes"/>
      <point x="445" y="369"/>
      <point x="526" y="354"/>
      <point x="526" y="281" type="curve" smooth="yes"/>
      <point x="526" y="229"/>
      <point x="479" y="200"/>
      <point x="428" y="200" type="curve" smooth="yes"/>
      <point x="415" y="200"/>
      <point x="400" y="202"/>
    </contour>
    <contour>
      <point x="359" y="-215" type="line"/>
      <point x="359" y="-39"/>
      <point x="359" y="137"/>
      <point x="359" y="313" type="curve" smooth="yes"/>
      <point x="359" y="350"/>
      <point x="368" y="380"/>
      <point x="386" y="401" type="curve" smooth="yes"/>
      <point x="401" y="418"/>
      <point x="419" y="430"/>
      <point x="439" y="435" type="curve"/>
      <point x="462" y="424" type="line"/>
      <point x="392" y="393"/>
      <point x="388" y="352"/>
      <point x="388" y="315" type="curve" smooth="yes"/>
      <point x="388" y="-215" type="line"/>
    </contour>
    <contour>
      <point x="33" y="160" type="curve" smooth="yes"/>
      <point x="33" y="248"/>
      <point x="94" y="309"/>
      <point x="202" y="309" type="curve" smooth="yes"/>
      <point x="316" y="309" type="line"/>
      <point x="315" y="353"/>
      <point x="287" y="393"/>
      <point x="241" y="393" type="curve" smooth="yes"/>
      <point x="205" y="393"/>
      <point x="196" y="376"/>
      <point x="188" y="358" type="curve" smooth="yes"/>
      <point x="183" y="347"/>
      <point x="172" y="331"/>
      <point x="147" y="331" type="curve" smooth="yes"/>
      <point x="125" y="331"/>
      <point x="106" y="345"/>
      <point x="106" y="369" type="curve" smooth="yes"/>
      <point x="106" y="410"/>
      <point x="154" y="433"/>
      <point x="211" y="433" type="curve" smooth="yes"/>
      <point x="295" y="433"/>
      <point x="347" y="382"/>
      <point x="347" y="290" type="curve" smooth="yes"/>
      <point x="347" y="289"/>
      <point x="347" y="288"/>
      <point x="347" y="287" type="curve"/>
      <point x="252" y="287" type="line" smooth="yes"/>
      <point x="130" y="287"/>
      <point x="113" y="200"/>
      <point x="113" y="164" type="curve" smooth="yes"/>
      <point x="113" y="88"/>
      <point x="161" y="23"/>
      <point x="297" y="23" type="curve" smooth="yes"/>
      <point x="410" y="23"/>
      <point x="480" y="50"/>
      <point x="523" y="83" type="curve"/>
      <point x="523" y="51" type="line"/>
      <point x="472" y="17"/>
      <point x="386" y="-4"/>
      <point x="282" y="-4" type="curve" smooth="yes"/>
      <point x="118" y="-4"/>
      <point x="33" y="62"/>
    </contour>
  </outline>
</glyph>
<glyph name="si_Ii" format="1">
  <advance width="528"/>
  <unicode hex="0D8A"/>
  <outline>
    <contour>
      <point x="410" y="468" type="curve" smooth="yes"/>
      <point x="410" y="447"/>
      <point x="427" y="430"/>
      <point x="448" y="430" type="curve" smooth="yes"/>
      <point x="469" y="430"/>
      <point x="486" y="447"/>
      <point x="486" y="468" type="curve" smooth="yes"/>
      <point x="486" y="489"/>
      <point x="469" y="506"/>
      <point x="448" y="506" type="curve" smooth="yes"/>
      <point x="427" y="506"/>
      <point x="410" y="489"/>
    </contour>
    <contour>
      <point x="383" y="468" type="curve" smooth="yes"/>
      <point x="383" y="504"/>
      <point x="412" y="532"/>
      <point x="448" y="532" type="curve" smooth="yes"/>
      <point x="484" y="532"/>
      <point x="512" y="504"/>
      <point x="512" y="468" type="curve" smooth="yes"/>
      <point x="512" y="432"/>
      <point x="484" y="404"/>
      <point x="448" y="404" type="curve" smooth="yes"/>
      <point x="412" y="404"/>
      <point x="383" y="432"/>
    </contour>
    <contour>
      <point x="145" y="538" type="curve" smooth="yes"/>
      <point x="145" y="517"/>
      <point x="162" y="500"/>
      <point x="183" y="500" type="curve" smooth="yes"/>
      <point x="204" y="500"/>
      <point x="221" y="517"/>
      <point x="221" y="538" type="curve" smooth="yes"/>
      <point x="221" y="559"/>
      <point x="204" y="576"/>
      <point x="183" y="576" type="curve" smooth="yes"/>
      <point x="162" y="576"/>
      <point x="145" y="559"/>
    </contour>
    <contour>
      <point x="118" y="538" type="curve" smooth="yes"/>
      <point x="118" y="574"/>
      <point x="147" y="602"/>
      <point x="183" y="602" type="curve" smooth="yes"/>
      <point x="219" y="602"/>
      <point x="247" y="574"/>
      <point x="247" y="538" type="curve" smooth="yes"/>
      <point x="247" y="502"/>
      <point x="219" y="474"/>
      <point x="183" y="474" type="curve" smooth="yes"/>
      <point x="147" y="474"/>
      <point x="118" y="502"/>
    </contour>
    <contour>
      <point x="31" y="213" type="curve" smooth="yes"/>
      <point x="31" y="323"/>
      <point x="95" y="380"/>
      <point x="170" y="422" type="curve" smooth="yes"/>
      <point x="223" y="450"/>
      <point x="250" y="465"/>
      <point x="308" y="517" type="curve" smooth="yes"/>
      <point x="355" y="559"/>
      <point x="374" y="623"/>
      <point x="409" y="623" type="curve" smooth="yes"/>
      <point x="425" y="623"/>
      <point x="432" y="616"/>
      <point x="432" y="605" type="curve" smooth="yes"/>
      <point x="432" y="585"/>
      <point x="409" y="556"/>
      <point x="360" y="515" type="curve" smooth="yes"/>
      <point x="327" y="488"/>
      <point x="290" y="461"/>
      <point x="247" y="436" type="curve"/>
      <point x="252" y="437"/>
      <point x="253" y="437"/>
      <point x="262" y="437" type="curve" smooth="yes"/>
      <point x="333" y="437"/>
      <point x="388" y="412"/>
      <point x="430" y="366" type="curve" smooth="yes"/>
      <point x="466" y="326"/>
      <point x="482" y="281"/>
      <point x="482" y="225" type="curve" smooth="yes"/>
      <point x="482" y="102"/>
      <point x="384" y="0"/>
      <point x="248" y="0" type="curve" smooth="yes"/>
      <point x="124" y="0"/>
      <point x="31" y="89"/>
    </contour>
    <contour>
      <point x="66" y="237" type="curve" smooth="yes"/>
      <point x="66" y="144"/>
      <point x="132" y="73"/>
      <point x="240" y="73" type="curve" smooth="yes"/>
      <point x="345" y="73"/>
      <point x="430" y="149"/>
      <point x="430" y="254" type="curve" smooth="yes"/>
      <point x="430" y="356"/>
      <point x="356" y="414"/>
      <point x="264" y="414" type="curve" smooth="yes"/>
      <point x="167" y="414"/>
      <point x="66" y="339"/>
    </contour>
  </outline>
</glyph>
<glyph name="si_Ii" format="1">
  <advance width="515"/>
  <unicode hex="0D8A"/>
  <outline>
    <contour>
      <point x="400" y="457" type="curve" smooth="yes"/>
      <point x="400" y="436"/>
      <point x="417" y="420"/>
      <point x="438" y="420" type="curve" smooth="yes"/>
      <point x="459" y="420"/>
      <point x="475" y="436"/>
      <point x="475" y="457" type="curve" smooth="yes"/>
      <point x="475" y="478"/>
      <point x="459" y="494"/>
      <point x="438" y="494" type="curve" smooth="yes"/>
      <point x="417" y="494"/>
      <point x="400" y="478"/>
    </contour>
    <contour>
      <point x="374" y="457" type="curve" smooth="yes"/>
      <point x="374" y="492"/>
      <point x="403" y="520"/>
      <point x="438" y="520" type="curve" smooth="yes"/>
      <point x="473" y="520"/>
      <point x="500" y="492"/>
      <point x="500" y="457" type="curve" smooth="yes"/>
      <point x="500" y="422"/>
      <point x="473" y="395"/>
      <point x="438" y="395" type="curve" smooth="yes"/>
      <point x="403" y="395"/>
      <point x="374" y="422"/>
    </contour>
    <contour>
      <point x="142" y="525" type="curve" smooth="yes"/>
      <point x="142" y="504"/>
      <point x="158" y="488"/>
      <point x="179" y="488" type="curve" smooth="yes"/>
      <point x="200" y="488"/>
      <point x="216" y="504"/>
      <point x="216" y="525" type="curve" smooth="yes"/>
      <point x="216" y="546"/>
      <point x="200" y="562"/>
      <point x="179" y="562" type="curve" smooth="yes"/>
      <point x="158" y="562"/>
      <point x="142" y="546"/>
    </contour>
    <contour>
      <point x="115" y="525" type="curve" smooth="yes"/>
      <point x="115" y="560"/>
      <point x="144" y="588"/>
      <point x="179" y="588" type="curve" smooth="yes"/>
      <point x="214" y="588"/>
      <point x="241" y="560"/>
      <point x="241" y="525" type="curve" smooth="yes"/>
      <point x="241" y="490"/>
      <point x="214" y="463"/>
      <point x="179" y="463" type="curve" smooth="yes"/>
      <point x="144" y="463"/>
      <point x="115" y="490"/>
    </contour>
    <contour>
      <point x="30" y="208" type="curve" smooth="yes"/>
      <point x="30" y="315"/>
      <point x="93" y="371"/>
      <point x="166" y="412" type="curve" smooth="yes"/>
      <point x="218" y="439"/>
      <point x="244" y="454"/>
      <point x="301" y="505" type="curve" smooth="yes"/>
      <point x="347" y="546"/>
      <point x="365" y="608"/>
      <point x="399" y="608" type="curve" smooth="yes"/>
      <point x="415" y="608"/>
      <point x="422" y="602"/>
      <point x="422" y="591" type="curve" smooth="yes"/>
      <point x="422" y="571"/>
      <point x="400" y="543"/>
      <point x="352" y="503" type="curve" smooth="yes"/>
      <point x="320" y="477"/>
      <point x="283" y="450"/>
      <point x="241" y="426" type="curve"/>
      <point x="246" y="427"/>
      <point x="247" y="427"/>
      <point x="256" y="427" type="curve" smooth="yes"/>
      <point x="325" y="427"/>
      <point x="379" y="402"/>
      <point x="420" y="357" type="curve" smooth="yes"/>
      <point x="455" y="318"/>
      <point x="471" y="275"/>
      <point x="471" y="220" type="curve" smooth="yes"/>
      <point x="471" y="100"/>
      <point x="375" y="0"/>
      <point x="242" y="0" type="curve" smooth="yes"/>
      <point x="121" y="0"/>
      <point x="30" y="87"/>
    </contour>
    <contour>
      <point x="64" y="231" type="curve" smooth="yes"/>
      <point x="64" y="140"/>
      <point x="129" y="71"/>
      <point x="234" y="71" type="curve" smooth="yes"/>
      <point x="337" y="71"/>
      <point x="420" y="145"/>
      <point x="420" y="248" type="curve" smooth="yes"/>
      <point x="420" y="348"/>
      <point x="348" y="404"/>
      <point x="258" y="404" type="curve" smooth="yes"/>
      <point x="163" y="404"/>
      <point x="64" y="331"/>
    </contour>
  </outline>
</glyph>
<glyph name="si_vocalicRr" format="1">
  <advance width="1113"/>
  <unicode hex="0D8E"/>
  <outline>
    <contour>
      <point x="30" y="150" type="curve" smooth="yes"/>
      <point x="30" y="254"/>
      <point x="114" y="309"/>
      <point x="204" y="309" type="curve" smooth="yes"/>
      <point x="217" y="309"/>
      <point x="244" y="307"/>
      <point x="257" y="303" type="curve"/>
      <point x="257" y="305"/>
      <point x="257" y="304"/>
      <point x="257" y="306" type="curve" smooth="yes"/>
      <point x="257" y="350"/>
      <point x="225" y="386"/>
      <point x="189" y="386" type="curve" smooth="yes"/>
      <point x="149" y="386"/>
      <point x="139" y="363"/>
      <point x="133" y="347" type="curve" smooth="yes"/>
      <point x="126" y="328"/>
      <point x="117" y="315"/>
      <point x="96" y="315" type="curve" smooth="yes"/>
      <point x="80" y="315"/>
      <point x="61" y="326"/>
      <point x="61" y="351" type="curve" smooth="yes"/>
      <point x="61" y="397"/>
      <point x="109" y="422"/>
      <point x="163" y="422" type="curve" smooth="yes"/>
      <point x="249" y="422"/>
      <point x="286" y="360"/>
      <point x="286" y="289" type="curve" smooth="yes"/>
      <point x="286" y="286"/>
      <point x="286" y="281"/>
      <point x="286" y="275" type="curve"/>
      <point x="271" y="278"/>
      <point x="235" y="284"/>
      <point x="207" y="284" type="curve" smooth="yes"/>
      <point x="140" y="284"/>
      <point x="67" y="249"/>
      <point x="67" y="171" type="curve" smooth="yes"/>
      <point x="67" y="113"/>
      <point x="120" y="69"/>
      <point x="188" y="69" type="curve" smooth="yes"/>
      <point x="243" y="69"/>
      <point x="294" y="99"/>
      <point x="294" y="148" type="curve" smooth="yes"/>
      <point x="294" y="178" type="line"/>
      <point x="320" y="178" type="line"/>
      <point x="320" y="148" type="line" smooth="yes"/>
      <point x="320" y="93"/>
      <point x="379" y="69"/>
      <point x="440" y="69" type="curve" smooth="yes"/>
      <point x="507" y="69"/>
      <point x="558" y="112"/>
      <point x="558" y="171" type="curve" smooth="yes"/>
      <point x="558" y="249"/>
      <point x="496" y="284"/>
      <point x="422" y="284" type="curve" smooth="yes"/>
      <point x="391" y="284"/>
      <point x="362" y="282"/>
      <point x="325" y="275" type="curve"/>
      <point x="325" y="279"/>
      <point x="325" y="280"/>
      <point x="325" y="284" type="curve" smooth="yes"/>
      <point x="325" y="366"/>
      <point x="372" y="422"/>
      <point x="445" y="422" type="curve" smooth="yes"/>
      <point x="498" y="422"/>
      <point x="546" y="399"/>
      <point x="546" y="342" type="curve" smooth="yes"/>
      <point x="546" y="321"/>
      <point x="533" y="299"/>
      <point x="518" y="290" type="curve"/>
      <point x="564" y="268"/>
      <point x="594" y="216"/>
      <point x="594" y="162" type="curve" smooth="yes"/>
      <point x="594" y="57"/>
      <point x="526" y="0"/>
      <point x="430" y="0" type="curve" smooth="yes"/>
      <point x="367" y="0"/>
      <point x="325" y="30"/>
      <point x="306" y="80" type="curve"/>
      <point x="285" y="29"/>
      <point x="245" y="-1"/>
      <point x="179" y="-1" type="curve" smooth="yes"/>
      <point x="86" y="-1"/>
      <point x="30" y="74"/>
    </contour>
    <contour>
      <point x="354" y="303" type="curve"/>
      <point x="365" y="306"/>
      <point x="392" y="309"/>
      <point x="415" y="309" type="curve" smooth="yes"/>
      <point x="448" y="309"/>
      <point x="472" y="306"/>
      <point x="493" y="299" type="curve"/>
      <point x="505" y="312"/>
      <point x="508" y="326"/>
      <point x="508" y="338" type="curve" smooth="yes"/>
      <point x="508" y="370"/>
      <point x="474" y="384"/>
      <point x="439" y="384" type="curve" smooth="yes"/>
      <point x="388" y="384"/>
      <point x="359" y="357"/>
    </contour>
    <component base="si_MatraR" xOffset="811"/>
    <component base="si_MatraR" xOffset="570"/>
  </outline>
</glyph>
<glyph name="si_vocalicL" format="1">
  <advance width="800"/>
  <unicode hex="0D8F"/>
  <outline>
    <contour>
      <point x="625" y="52" type="curve" smooth="yes"/>
      <point x="625" y="38"/>
      <point x="635" y="27"/>
      <point x="649" y="27" type="curve" smooth="yes"/>
      <point x="663" y="27"/>
      <point x="674" y="38"/>
      <point x="674" y="52" type="curve" smooth="yes"/>
      <point x="674" y="66"/>
      <point x="663" y="76"/>
      <point x="649" y="76" type="curve" smooth="yes"/>
      <point x="635" y="76"/>
      <point x="625" y="66"/>
    </contour>
    <contour>
      <point x="568" y="435" type="curve" smooth="yes"/>
      <point x="568" y="456"/>
      <point x="584" y="470"/>
      <point x="615" y="470" type="curve" smooth="yes"/>
      <point x="700" y="470"/>
      <point x="755" y="369"/>
      <point x="755" y="234" type="curve" smooth="yes"/>
      <point x="755" y="143"/>
      <point x="724" y="1"/>
      <point x="650" y="1" type="curve" smooth="yes"/>
      <point x="622" y="1"/>
      <point x="600" y="23"/>
      <point x="600" y="52" type="curve" smooth="yes"/>
      <point x="600" y="76"/>
      <point x="618" y="103"/>
      <point x="650" y="103" type="curve" smooth="yes"/>
      <point x="667" y="103"/>
      <point x="684" y="95"/>
      <point x="694" y="76" type="curve"/>
      <point x="715" y="110"/>
      <point x="726" y="183"/>
      <point x="726" y="234" type="curve" smooth="yes"/>
      <point x="726" y="343"/>
      <point x="685" y="441"/>
      <point x="619" y="441" type="curve" smooth="yes"/>
      <point x="611" y="441"/>
      <point x="598" y="440"/>
      <point x="598" y="426" type="curve" smooth="yes"/>
      <point x="598" y="414"/>
      <point x="602" y="401"/>
      <point x="614" y="385" type="curve"/>
      <point x="601" y="394"/>
      <point x="583" y="409"/>
      <point x="575" y="412" type="curve"/>
      <point x="570" y="419"/>
      <point x="568" y="430"/>
    </contour>
    <contour>
      <point x="111" y="52" type="curve" smooth="yes"/>
      <point x="111" y="38"/>
      <point x="122" y="27"/>
      <point x="136" y="27" type="curve" smooth="yes"/>
      <point x="150" y="27"/>
      <point x="160" y="38"/>
      <point x="160" y="52" type="curve" smooth="yes"/>
      <point x="160" y="66"/>
      <point x="150" y="76"/>
      <point x="136" y="76" type="curve" smooth="yes"/>
      <point x="122" y="76"/>
      <point x="111" y="66"/>
    </contour>
    <contour>
      <point x="30" y="234" type="curve" smooth="yes"/>
      <point x="30" y="369"/>
      <point x="85" y="470"/>
      <point x="170" y="470" type="curve" smooth="yes"/>
      <point x="201" y="470"/>
      <point x="217" y="456"/>
      <point x="217" y="435" type="curve" smooth="yes"/>
      <point x="217" y="430"/>
      <point x="216" y="423"/>
      <point x="211" y="416" type="curve"/>
      <point x="203" y="413"/>
      <point x="182" y="404"/>
      <point x="169" y="395" type="curve"/>
      <point x="178" y="405"/>
      <point x="188" y="414"/>
      <point x="188" y="426" type="curve" smooth="yes"/>
      <point x="188" y="440"/>
      <point x="174" y="441"/>
      <point x="166" y="441" type="curve" smooth="yes"/>
      <point x="100" y="441"/>
      <point x="60" y="343"/>
      <point x="60" y="234" type="curve" smooth="yes"/>
      <point x="60" y="183"/>
      <point x="70" y="110"/>
      <point x="91" y="76" type="curve"/>
      <point x="101" y="95"/>
      <point x="118" y="103"/>
      <point x="135" y="103" type="curve" smooth="yes"/>
      <point x="167" y="103"/>
      <point x="186" y="76"/>
      <point x="186" y="52" type="curve" smooth="yes"/>
      <point x="186" y="23"/>
      <point x="163" y="1"/>
      <point x="135" y="1" type="curve" smooth="yes"/>
      <point x="61" y="1"/>
      <point x="30" y="143"/>
    </contour>
    <contour>
      <point x="130" y="180" type="curve" smooth="yes"/>
      <point x="130" y="269"/>
      <point x="196" y="319"/>
      <point x="301" y="319" type="curve" smooth="yes"/>
      <point x="314" y="319"/>
      <point x="324" y="318"/>
      <point x="337" y="317" type="curve"/>
      <point x="337" y="321"/>
      <point x="338" y="324"/>
      <point x="338" y="328" type="curve" smooth="yes"/>
      <point x="338" y="366"/>
      <point x="312" y="386"/>
      <point x="282" y="386" type="curve" smooth="yes"/>
      <point x="251" y="386"/>
      <point x="239" y="371"/>
      <point x="234" y="352" type="curve" smooth="yes"/>
      <point x="230" y="338"/>
      <point x="217" y="320"/>
      <point x="190" y="320" type="curve" smooth="yes"/>
      <point x="171" y="320"/>
      <point x="153" y="332"/>
      <point x="153" y="356" type="curve" smooth="yes"/>
      <point x="153" y="399"/>
      <point x="200" y="424"/>
      <point x="254" y="424" type="curve" smooth="yes"/>
      <point x="324" y="424"/>
      <point x="367" y="391"/>
      <point x="367" y="326" type="curve" smooth="yes"/>
      <point x="367" y="315"/>
      <point x="366" y="304"/>
      <point x="363" y="291" type="curve"/>
      <point x="345" y="293"/>
      <point x="312" y="295"/>
      <point x="311" y="295" type="curve" smooth="yes"/>
      <point x="236" y="295"/>
      <point x="166" y="269"/>
      <point x="166" y="196" type="curve" smooth="yes"/>
      <point x="166" y="104"/>
      <point x="287" y="69"/>
      <point x="398" y="69" type="curve" smooth="yes"/>
      <point x="502" y="69"/>
      <point x="626" y="107"/>
      <point x="626" y="200" type="curve" smooth="yes"/>
      <point x="626" y="271"/>
      <point x="559" y="297"/>
      <point x="483" y="297" type="curve" smooth="yes"/>
      <point x="461" y="297"/>
      <point x="437" y="294"/>
      <point x="415" y="290" type="curve"/>
      <point x="413" y="301"/>
      <point x="413" y="310"/>
      <point x="413" y="320" type="curve" smooth="yes"/>
      <point x="413" y="387"/>
      <point x="456" y="423"/>
      <point x="527" y="423" type="curve" smooth="yes"/>
      <point x="591" y="423"/>
      <point x="628" y="384"/>
      <point x="628" y="346" type="curve" smooth="yes"/>
      <point x="628" y="326"/>
      <point x="620" y="310"/>
      <point x="601" y="296" type="curve"/>
      <point x="640" y="273"/>
      <point x="660" y="235"/>
      <point x="660" y="182" type="curve" smooth="yes"/>
      <point x="660" y="54"/>
      <point x="536" y="0"/>
      <point x="398" y="0" type="curve" smooth="yes"/>
      <point x="253" y="0"/>
      <point x="130" y="45"/>
    </contour>
    <contour>
      <point x="444" y="328" type="curve" smooth="yes"/>
      <point x="444" y="324"/>
      <point x="443" y="321"/>
      <point x="444" y="317" type="curve"/>
      <point x="461" y="319"/>
      <point x="476" y="320"/>
      <point x="492" y="320" type="curve" smooth="yes"/>
      <point x="524" y="320"/>
      <point x="552" y="317"/>
      <point x="576" y="308" type="curve"/>
      <point x="587" y="319"/>
      <point x="593" y="330"/>
      <point x="593" y="343" type="curve" smooth="yes"/>
      <point x="593" y="371"/>
      <point x="567" y="396"/>
      <point x="521" y="396" type="curve" smooth="yes"/>
      <point x="479" y="396"/>
      <point x="444" y="372"/>
    </contour>
  </outline>
</glyph>
<glyph name="si_Os" format="1">
  <advance width="636"/>
  <unicode hex="0D94"/>
  <outline>
    <contour>
      <point x="274" y="363" type="curve" smooth="yes"/>
      <point x="274" y="337"/>
      <point x="295" y="316"/>
      <point x="321" y="316" type="curve" smooth="yes"/>
      <point x="347" y="316"/>
      <point x="368" y="337"/>
      <point x="368" y="363" type="curve" smooth="yes"/>
      <point x="368" y="389"/>
      <point x="347" y="410"/>
      <point x="321" y="410" type="curve" smooth="yes"/>
      <point x="295" y="410"/>
      <point x="274" y="389"/>
    </contour>
    <contour>
      <point x="30" y="224" type="curve" smooth="yes"/>
      <point x="30" y="332"/>
      <point x="74" y="432"/>
      <point x="148" y="432" type="curve" smooth="yes"/>
      <point x="167" y="432"/>
      <point x="173" y="428"/>
      <point x="180" y="423" type="curve" smooth="yes"/>
      <point x="191" y="415"/>
      <point x="199" y="401"/>
      <point x="199" y="371" type="curve" smooth="yes"/>
      <point x="199" y="357"/>
      <point x="199" y="340"/>
      <point x="199" y="337" type="curve" smooth="yes"/>
      <point x="199" y="284"/>
      <point x="240" y="253"/>
      <point x="295" y="253" type="curve" smooth="yes"/>
      <point x="348" y="253"/>
      <point x="389" y="281"/>
      <point x="389" y="326" type="curve" smooth="yes"/>
      <point x="389" y="327"/>
      <point x="389" y="329"/>
      <point x="388" y="331" type="curve"/>
      <point x="382" y="318"/>
      <point x="359" y="289"/>
      <point x="318" y="289" type="curve" smooth="yes"/>
      <point x="271" y="289"/>
      <point x="245" y="324"/>
      <point x="245" y="360" type="curve" smooth="yes"/>
      <point x="245" y="402"/>
      <point x="277" y="434"/>
      <point x="322" y="434" type="curve" smooth="yes"/>
      <point x="381" y="434"/>
      <point x="418" y="389"/>
      <point x="418" y="330" type="curve" smooth="yes"/>
      <point x="418" y="268"/>
      <point x="367" y="224"/>
      <point x="296" y="224" type="curve" smooth="yes"/>
      <point x="225" y="224"/>
      <point x="172" y="267"/>
      <point x="172" y="339" type="curve" smooth="yes"/>
      <point x="172" y="344"/>
      <point x="172" y="363"/>
      <point x="172" y="372" type="curve" smooth="yes"/>
      <point x="172" y="392"/>
      <point x="168" y="406"/>
      <point x="145" y="406" type="curve" smooth="yes"/>
      <point x="94" y="406"/>
      <point x="61" y="327"/>
      <point x="61" y="254" type="curve" smooth="yes"/>
      <point x="61" y="150"/>
      <point x="116" y="70"/>
      <point x="199" y="70" type="curve" smooth="yes"/>
      <point x="273" y="70"/>
      <point x="293" y="108"/>
      <point x="293" y="141" type="curve" smooth="yes"/>
      <point x="293" y="167" type="line"/>
      <point x="317" y="167" type="line"/>
      <point x="317" y="140" type="line" smooth="yes"/>
      <point x="317" y="96"/>
      <point x="356" y="71"/>
      <point x="410" y="71" type="curve" smooth="yes"/>
      <point x="506" y="71"/>
      <point x="554" y="182"/>
      <point x="554" y="286" type="curve" smooth="yes"/>
      <point x="554" y="433"/>
      <point x="458" y="555"/>
      <point x="298" y="555" type="curve" smooth="yes"/>
      <point x="199" y="555"/>
      <point x="139" y="525"/>
      <point x="92" y="466" type="curve"/>
      <point x="62" y="466" type="line"/>
      <point x="107" y="531"/>
      <point x="175" y="578"/>
      <point x="302" y="578" type="curve" smooth="yes"/>
      <point x="486" y="578"/>
      <point x="590" y="431"/>
      <point x="590" y="254" type="curve" smooth="yes"/>
      <point x="590" y="127"/>
      <point x="543" y="0"/>
      <point x="406" y="0" type="curve" smooth="yes"/>
      <point x="365" y="0"/>
      <point x="321" y="16"/>
      <point x="305" y="55" type="curve"/>
      <point x="283" y="15"/>
      <point x="246" y="0"/>
      <point x="196" y="0" type="curve" smooth="yes"/>
      <point x="78" y="0"/>
      <point x="30" y="127"/>
    </contour>
  </outline>
</glyph>
<glyph name="si_Oo" format="1">
  <advance width="636"/>
  <unicode hex="0D95"/>
  <outline>
    <contour>
      <point x="139" y="543" type="curve" smooth="yes"/>
      <point x="139" y="531"/>
      <point x="163" y="526"/>
      <point x="163" y="515" type="curve" smooth="yes"/>
      <point x="163" y="513"/>
      <point x="162" y="510"/>
      <point x="160" y="508" type="curve"/>
      <point x="193" y="514"/>
      <point x="233" y="519"/>
      <point x="279" y="519" type="curve" smooth="yes"/>
      <point x="387" y="519"/>
      <point x="472" y="490"/>
      <point x="530" y="422" type="curve"/>
      <point x="497" y="537"/>
      <point x="400" y="590"/>
      <point x="284" y="590" type="curve" smooth="yes"/>
      <point x="212" y="590"/>
      <point x="139" y="567"/>
    </contour>
    <contour>
      <point x="42" y="442" type="curve"/>
      <point x="42" y="473" type="line"/>
      <point x="74" y="485"/>
      <point x="126" y="499"/>
      <point x="126" y="508" type="curve" smooth="yes"/>
      <point x="126" y="520"/>
      <point x="98" y="524"/>
      <point x="98" y="546" type="curve" smooth="yes"/>
      <point x="98" y="583"/>
      <point x="163" y="629"/>
      <point x="278" y="629" type="curve" smooth="yes"/>
      <point x="486" y="629"/>
      <point x="560" y="490"/>
      <point x="572" y="356" type="curve"/>
      <point x="583" y="329"/>
      <point x="590" y="292"/>
      <point x="590" y="245" type="curve"/>
      <point x="552" y="250" type="line"/>
      <point x="553" y="257"/>
      <point x="553" y="265"/>
      <point x="553" y="272" type="curve" smooth="yes"/>
      <point x="553" y="410"/>
      <point x="443" y="494"/>
      <point x="282" y="494" type="curve" smooth="yes"/>
      <point x="206" y="494"/>
      <point x="123" y="480"/>
    </contour>
    <contour>
      <point x="274" y="363" type="curve" smooth="yes"/>
      <point x="274" y="337"/>
      <point x="295" y="316"/>
      <point x="321" y="316" type="curve" smooth="yes"/>
      <point x="347" y="316"/>
      <point x="368" y="337"/>
      <point x="368" y="363" type="curve" smooth="yes"/>
      <point x="368" y="389"/>
      <point x="347" y="410"/>
      <point x="321" y="410" type="curve" smooth="yes"/>
      <point x="295" y="410"/>
      <point x="274" y="389"/>
    </contour>
    <contour>
      <point x="30" y="224" type="curve" smooth="yes"/>
      <point x="30" y="332"/>
      <point x="74" y="432"/>
      <point x="148" y="432" type="curve" smooth="yes"/>
      <point x="167" y="432"/>
      <point x="173" y="428"/>
      <point x="180" y="423" type="curve" smooth="yes"/>
      <point x="191" y="415"/>
      <point x="199" y="401"/>
      <point x="199" y="371" type="curve" smooth="yes"/>
      <point x="199" y="357"/>
      <point x="199" y="340"/>
      <point x="199" y="337" type="curve" smooth="yes"/>
      <point x="199" y="284"/>
      <point x="240" y="253"/>
      <point x="295" y="253" type="curve" smooth="yes"/>
      <point x="348" y="253"/>
      <point x="389" y="281"/>
      <point x="389" y="326" type="curve" smooth="yes"/>
      <point x="389" y="327"/>
      <point x="389" y="329"/>
      <point x="388" y="331" type="curve"/>
      <point x="382" y="318"/>
      <point x="359" y="289"/>
      <point x="318" y="289" type="curve" smooth="yes"/>
      <point x="271" y="289"/>
      <point x="245" y="324"/>
      <point x="245" y="360" type="curve" smooth="yes"/>
      <point x="245" y="402"/>
      <point x="277" y="434"/>
      <point x="322" y="434" type="curve" smooth="yes"/>
      <point x="381" y="434"/>
      <point x="418" y="389"/>
      <point x="418" y="330" type="curve" smooth="yes"/>
      <point x="418" y="268"/>
      <point x="367" y="224"/>
      <point x="296" y="224" type="curve" smooth="yes"/>
      <point x="225" y="224"/>
      <point x="172" y="267"/>
      <point x="172" y="339" type="curve" smooth="yes"/>
      <point x="172" y="344"/>
      <point x="172" y="363"/>
      <point x="172" y="372" type="curve" smooth="yes"/>
      <point x="172" y="392"/>
      <point x="168" y="406"/>
      <point x="145" y="406" type="curve" smooth="yes"/>
      <point x="94" y="406"/>
      <point x="61" y="327"/>
      <point x="61" y="254" type="curve" smooth="yes"/>
      <point x="61" y="150"/>
      <point x="116" y="70"/>
      <point x="199" y="70" type="curve" smooth="yes"/>
      <point x="273" y="70"/>
      <point x="293" y="108"/>
      <point x="293" y="141" type="curve" smooth="yes"/>
      <point x="293" y="167" type="line"/>
      <point x="317" y="167" type="line"/>
      <point x="317" y="140" type="line" smooth="yes"/>
      <point x="317" y="96"/>
      <point x="356" y="71"/>
      <point x="410" y="71" type="curve" smooth="yes"/>
      <point x="506" y="71"/>
      <point x="554" y="182"/>
      <point x="554" y="286" type="curve"/>
      <point x="570" y="274"/>
      <point x="576" y="264"/>
      <point x="590" y="254" type="curve"/>
      <point x="590" y="127"/>
      <point x="543" y="0"/>
      <point x="406" y="0" type="curve" smooth="yes"/>
      <point x="365" y="0"/>
      <point x="321" y="16"/>
      <point x="305" y="55" type="curve"/>
      <point x="283" y="15"/>
      <point x="246" y="0"/>
      <point x="196" y="0" type="curve" smooth="yes"/>
      <point x="78" y="0"/>
      <point x="30" y="127"/>
    </contour>
  </outline>
</glyph>
<glyph name="si_Ka" format="1">
  <advance width="746"/>
  <unicode hex="0D9A"/>
  <outline>
    <contour>
      <point x="21" y="22" type="line"/>
      <point x="29" y="91"/>
      <point x="74" y="184"/>
      <point x="109" y="232" type="curve" smooth="yes"/>
      <point x="135" y="268"/>
      <point x="150" y="282"/>
      <point x="168" y="301" type="curve"/>
      <point x="180" y="314"/>
      <point x="193" y="330"/>
      <point x="193" y="352" type="curve" smooth="yes"/>
      <point x="193" y="374"/>
      <point x="183" y="392"/>
      <point x="158" y="392" type="curve" smooth="yes"/>
      <point x="144" y="392"/>
      <point x="122" y="384"/>
      <point x="116" y="363" type="curve" smooth="yes"/>
      <point x="109" y="340"/>
      <point x="113" y="340"/>
      <point x="106" y="323" type="curve" smooth="yes"/>
      <point x="99" y="305"/>
      <point x="84" y="297"/>
      <point x="69" y="297" type="curve" smooth="yes"/>
      <point x="35" y="297"/>
      <point x="29" y="328"/>
      <point x="29" y="340" type="curve" smooth="yes"/>
      <point x="29" y="394"/>
      <point x="79" y="433"/>
      <point x="136" y="433" type="curve" smooth="yes"/>
      <point x="186" y="433"/>
      <point x="220" y="402"/>
      <point x="220" y="356" type="curve" smooth="yes"/>
      <point x="220" y="351"/>
      <point x="220" y="346"/>
      <point x="219" y="341" type="curve"/>
      <point x="281" y="401"/>
      <point x="366" y="434"/>
      <point x="453" y="434" type="curve" smooth="yes"/>
      <point x="603" y="434"/>
      <point x="701" y="328"/>
      <point x="701" y="192" type="curve" smooth="yes"/>
      <point x="701" y="110"/>
      <point x="659" y="-1"/>
      <point x="556" y="-1" type="curve" smooth="yes"/>
      <point x="540" y="-1"/>
      <point x="518" y="2"/>
      <point x="506" y="11" type="curve"/>
      <point x="506" y="38" type="line"/>
      <point x="516" y="31"/>
      <point x="533" y="26"/>
      <point x="557" y="26" type="curve" smooth="yes"/>
      <point x="607" y="26"/>
      <point x="649" y="80"/>
      <point x="649" y="153" type="curve" smooth="yes"/>
      <point x="649" y="285"/>
      <point x="534" y="368"/>
      <point x="400" y="368" type="curve" smooth="yes"/>
      <point x="327" y="368"/>
      <point x="266" y="348"/>
      <point x="219" y="308" type="curve"/>
      <point x="243" y="314"/>
      <point x="275" y="316"/>
      <point x="302" y="316" type="curve" smooth="yes"/>
      <point x="422" y="316"/>
      <point x="515" y="251"/>
      <point x="515" y="126" type="curve" smooth="yes"/>
      <point x="515" y="68"/>
      <point x="482" y="-1"/>
      <point x="397" y="-1" type="curve" smooth="yes"/>
      <point x="351" y="-1"/>
      <point x="317" y="20"/>
      <point x="296" y="63" type="curve"/>
      <point x="279" y="22"/>
      <point x="246" y="-1"/>
      <point x="204" y="-1" type="curve" smooth="yes"/>
      <point x="117" y="-1"/>
      <point x="120" y="73"/>
      <point x="87" y="73" type="curve" smooth="yes"/>
      <point x="65" y="73"/>
      <point x="50" y="51"/>
      <point x="47" y="11" type="curve"/>
    </contour>
    <contour>
      <point x="70" y="95" type="curve"/>
      <point x="76" y="98"/>
      <point x="82" y="100"/>
      <point x="89" y="100" type="curve" smooth="yes"/>
      <point x="118" y="100"/>
      <point x="142" y="71"/>
      <point x="199" y="71" type="curve" smooth="yes"/>
      <point x="250" y="71"/>
      <point x="281" y="102"/>
      <point x="281" y="162" type="curve" smooth="yes"/>
      <point x="281" y="164"/>
      <point x="281" y="161"/>
      <point x="281" y="163" type="curve"/>
      <point x="307" y="163" type="line"/>
      <point x="307" y="162"/>
      <point x="307" y="163"/>
      <point x="307" y="162" type="curve" smooth="yes"/>
      <point x="307" y="97"/>
      <point x="334" y="71"/>
      <point x="392" y="71" type="curve" smooth="yes"/>
      <point x="454" y="71"/>
      <point x="474" y="123"/>
      <point x="474" y="159" type="curve" smooth="yes"/>
      <point x="474" y="242"/>
      <point x="401" y="291"/>
      <point x="298" y="291" type="curve" smooth="yes"/>
      <point x="241" y="291"/>
      <point x="203" y="282"/>
      <point x="182" y="273" type="curve"/>
      <point x="165" y="258"/>
      <point x="145" y="235"/>
      <point x="129" y="212" type="curve" smooth="yes"/>
      <point x="100" y="171"/>
      <point x="81" y="132"/>
    </contour>
    <contour>
      <point x="69" y="-1" type="move" name="_cursive"/>
    </contour>
  </outline>
</glyph>
<glyph name="si_Kha" format="1">
  <advance width="630"/>
  <unicode hex="0D9B"/>
  <outline>
    <contour>
      <point x="39" y="0" type="move" name="_cursive"/>
    </contour>
    <contour>
      <point x="93" y="72" type="curve" smooth="yes"/>
      <point x="93" y="48"/>
      <point x="112" y="29"/>
      <point x="136" y="29" type="curve" smooth="yes"/>
      <point x="160" y="29"/>
      <point x="179" y="48"/>
      <point x="179" y="72" type="curve" smooth="yes"/>
      <point x="179" y="96"/>
      <point x="160" y="115"/>
      <point x="136" y="115" type="curve" smooth="yes"/>
      <point x="112" y="115"/>
      <point x="93" y="96"/>
    </contour>
    <contour>
      <point x="32" y="183" type="curve" smooth="yes"/>
      <point x="32" y="322"/>
      <point x="124" y="396"/>
      <point x="240" y="396" type="curve" smooth="yes"/>
      <point x="333" y="396"/>
      <point x="413" y="343"/>
      <point x="413" y="258" type="curve" smooth="yes"/>
      <point x="413" y="201"/>
      <point x="385" y="153"/>
      <point x="346" y="115" type="curve"/>
      <point x="349" y="116"/>
      <point x="352" y="116"/>
      <point x="355" y="116" type="curve" smooth="yes"/>
      <point x="384" y="116"/>
      <point x="390" y="67"/>
      <point x="434" y="67" type="curve" smooth="yes"/>
      <point x="500" y="67"/>
      <point x="546" y="198"/>
      <point x="546" y="301" type="curve" smooth="yes"/>
      <point x="546" y="467"/>
      <point x="445" y="576"/>
      <point x="294" y="576" type="curve" smooth="yes"/>
      <point x="205" y="576"/>
      <point x="139" y="543"/>
      <point x="97" y="470" type="curve"/>
      <point x="64" y="470" type="line"/>
      <point x="109" y="553"/>
      <point x="186" y="601"/>
      <point x="298" y="601" type="curve" smooth="yes"/>
      <point x="464" y="601"/>
      <point x="584" y="473"/>
      <point x="584" y="286" type="curve" smooth="yes"/>
      <point x="584" y="150"/>
      <point x="524" y="0"/>
      <point x="416" y="0" type="curve" smooth="yes"/>
      <point x="352" y="0"/>
      <point x="348" y="54"/>
      <point x="321" y="54" type="curve" smooth="yes"/>
      <point x="308" y="54"/>
      <point x="282" y="34"/>
      <point x="240" y="-21" type="curve"/>
      <point x="204" y="-18" type="line"/>
      <point x="217" y="-5"/>
      <point x="246" y="34"/>
      <point x="288" y="84" type="curve" smooth="yes"/>
      <point x="340" y="146"/>
      <point x="367" y="194"/>
      <point x="367" y="232" type="curve" smooth="yes"/>
      <point x="367" y="286"/>
      <point x="328" y="320"/>
      <point x="236" y="320" type="curve" smooth="yes"/>
      <point x="156" y="320"/>
      <point x="63" y="272"/>
      <point x="63" y="156" type="curve" smooth="yes"/>
      <point x="63" y="144"/>
      <point x="66" y="118"/>
      <point x="72" y="101" type="curve"/>
      <point x="80" y="129"/>
      <point x="108" y="145"/>
      <point x="135" y="145" type="curve" smooth="yes"/>
      <point x="181" y="145"/>
      <point x="210" y="116"/>
      <point x="210" y="72" type="curve" smooth="yes"/>
      <point x="210" y="37"/>
      <point x="180" y="-1"/>
      <point x="141" y="-1" type="curve" smooth="yes"/>
      <point x="56" y="-1"/>
      <point x="32" y="108"/>
    </contour>
  </outline>
</glyph>
<glyph name="si_Ga" format="1">
  <advance width="636"/>
  <unicode hex="0D9C"/>
  <outline>
    <contour>
      <point x="34" y="207" type="curve" smooth="yes"/>
      <point x="34" y="330"/>
      <point x="109" y="432"/>
      <point x="220" y="432" type="curve" smooth="yes"/>
      <point x="224" y="432"/>
      <point x="229" y="431"/>
      <point x="233" y="431" type="curve"/>
      <point x="233" y="408" type="line"/>
      <point x="230" y="408"/>
      <point x="225" y="408"/>
      <point x="222" y="408" type="curve" smooth="yes"/>
      <point x="136" y="408"/>
      <point x="69" y="332"/>
      <point x="69" y="230" type="curve" smooth="yes"/>
      <point x="69" y="147"/>
      <point x="117" y="71"/>
      <point x="206" y="71" type="curve" smooth="yes"/>
      <point x="265" y="71"/>
      <point x="318" y="99"/>
      <point x="318" y="158" type="curve" smooth="yes"/>
      <point x="318" y="196"/>
      <point x="298" y="217"/>
      <point x="267" y="217" type="curve" smooth="yes"/>
      <point x="260" y="217"/>
      <point x="250" y="215"/>
      <point x="243" y="210" type="curve"/>
      <point x="242" y="204"/>
      <point x="241" y="195"/>
      <point x="241" y="192" type="curve"/>
      <point x="216" y="192" type="line"/>
      <point x="226" y="317"/>
      <point x="288" y="432"/>
      <point x="410" y="432" type="curve" smooth="yes"/>
      <point x="522" y="432"/>
      <point x="586" y="332"/>
      <point x="586" y="217" type="curve" smooth="yes"/>
      <point x="586" y="95"/>
      <point x="500" y="-1"/>
      <point x="369" y="-1" type="curve" smooth="yes"/>
      <point x="359" y="-1"/>
      <point x="349" y="0"/>
      <point x="338" y="1" type="curve"/>
      <point x="338" y="26" type="line"/>
      <point x="346" y="25"/>
      <point x="354" y="24"/>
      <point x="362" y="24" type="curve" smooth="yes"/>
      <point x="469" y="24"/>
      <point x="543" y="100"/>
      <point x="543" y="200" type="curve" smooth="yes"/>
      <point x="543" y="301"/>
      <point x="484" y="371"/>
      <point x="393" y="371" type="curve" smooth="yes"/>
      <point x="316" y="371"/>
      <point x="263" y="313"/>
      <point x="247" y="236" type="curve"/>
      <point x="255" y="240"/>
      <point x="263" y="241"/>
      <point x="270" y="241" type="curve" smooth="yes"/>
      <point x="318" y="241"/>
      <point x="352" y="202"/>
      <point x="352" y="136" type="curve" smooth="yes"/>
      <point x="352" y="56"/>
      <point x="295" y="-2"/>
      <point x="208" y="-2" type="curve" smooth="yes"/>
      <point x="97" y="-2"/>
      <point x="34" y="96"/>
    </contour>
  </outline>
</glyph>
<glyph name="si_Gha" format="1">
  <advance width="661"/>
  <unicode hex="0D9D"/>
  <outline>
    <contour>
      <point x="50" y="150" type="curve" smooth="yes"/>
      <point x="50" y="220"/>
      <point x="90" y="262"/>
      <point x="141" y="278" type="curve"/>
      <point x="174" y="290"/>
      <point x="227" y="301"/>
      <point x="263" y="301" type="curve" smooth="yes"/>
      <point x="274" y="301" type="line"/>
      <point x="274" y="303"/>
      <point x="274" y="303"/>
      <point x="274" y="305" type="curve" smooth="yes"/>
      <point x="274" y="352"/>
      <point x="243" y="386"/>
      <point x="207" y="386" type="curve" smooth="yes"/>
      <point x="169" y="386"/>
      <point x="158" y="363"/>
      <point x="152" y="347" type="curve" smooth="yes"/>
      <point x="145" y="328"/>
      <point x="136" y="315"/>
      <point x="115" y="315" type="curve" smooth="yes"/>
      <point x="99" y="315"/>
      <point x="80" y="326"/>
      <point x="80" y="351" type="curve" smooth="yes"/>
      <point x="80" y="397"/>
      <point x="129" y="422"/>
      <point x="183" y="422" type="curve" smooth="yes"/>
      <point x="269" y="422"/>
      <point x="306" y="360"/>
      <point x="306" y="289" type="curve" smooth="yes"/>
      <point x="306" y="286"/>
      <point x="306" y="279"/>
      <point x="306" y="276" type="curve"/>
      <point x="211" y="276" type="line" smooth="yes"/>
      <point x="159" y="276"/>
      <point x="87" y="242"/>
      <point x="87" y="171" type="curve" smooth="yes"/>
      <point x="87" y="113"/>
      <point x="139" y="69"/>
      <point x="207" y="69" type="curve" smooth="yes"/>
      <point x="223" y="69"/>
      <point x="236" y="71"/>
      <point x="239" y="74" type="curve"/>
      <point x="237" y="84"/>
      <point x="236" y="96"/>
      <point x="236" y="104" type="curve" smooth="yes"/>
      <point x="236" y="176"/>
      <point x="288" y="195"/>
      <point x="324" y="195" type="curve" smooth="yes"/>
      <point x="360" y="195"/>
      <point x="412" y="176"/>
      <point x="412" y="104" type="curve" smooth="yes"/>
      <point x="412" y="96"/>
      <point x="411" y="84"/>
      <point x="409" y="74" type="curve"/>
      <point x="412" y="71"/>
      <point x="425" y="69"/>
      <point x="441" y="69" type="curve" smooth="yes"/>
      <point x="508" y="69"/>
      <point x="579" y="106"/>
      <point x="579" y="174" type="curve" smooth="yes"/>
      <point x="579" y="242"/>
      <point x="529" y="284"/>
      <point x="438" y="284" type="curve" smooth="yes"/>
      <point x="403" y="284"/>
      <point x="377" y="282"/>
      <point x="345" y="275" type="curve"/>
      <point x="345" y="279"/>
      <point x="345" y="280"/>
      <point x="345" y="284" type="curve" smooth="yes"/>
      <point x="345" y="366"/>
      <point x="392" y="422"/>
      <point x="465" y="422" type="curve" smooth="yes"/>
      <point x="518" y="422"/>
      <point x="565" y="399"/>
      <point x="565" y="342" type="curve" smooth="yes"/>
      <point x="565" y="321"/>
      <point x="552" y="299"/>
      <point x="537" y="290" type="curve"/>
      <point x="583" y="268"/>
      <point x="613" y="216"/>
      <point x="613" y="162" type="curve" smooth="yes"/>
      <point x="613" y="57"/>
      <point x="544" y="-1"/>
      <point x="454" y="-1" type="curve" smooth="yes"/>
      <point x="435" y="-1"/>
      <point x="408" y="2"/>
      <point x="378" y="11" type="curve"/>
      <point x="375" y="17"/>
      <point x="374" y="27"/>
      <point x="374" y="34" type="curve" smooth="yes"/>
      <point x="374" y="67"/>
      <point x="383" y="70"/>
      <point x="383" y="104" type="curve" smooth="yes"/>
      <point x="383" y="150"/>
      <point x="349" y="167"/>
      <point x="324" y="167" type="curve" smooth="yes"/>
      <point x="299" y="167"/>
      <point x="266" y="150"/>
      <point x="266" y="104" type="curve" smooth="yes"/>
      <point x="266" y="70"/>
      <point x="274" y="67"/>
      <point x="274" y="34" type="curve" smooth="yes"/>
      <point x="274" y="27"/>
      <point x="274" y="17"/>
      <point x="271" y="11" type="curve"/>
      <point x="241" y="2"/>
      <point x="213" y="-1"/>
      <point x="194" y="-1" type="curve" smooth="yes"/>
      <point x="105" y="-1"/>
      <point x="50" y="74"/>
    </contour>
    <contour>
      <point x="5" y="270" type="curve"/>
      <point x="5" y="301" type="line"/>
      <point x="272" y="301" type="line"/>
      <point x="302" y="276" type="line"/>
      <point x="144" y="276" type="line" smooth="yes"/>
      <point x="75" y="275"/>
      <point x="21" y="273"/>
    </contour>
    <contour>
      <point x="373" y="303" type="curve"/>
      <point x="386" y="307"/>
      <point x="410" y="309"/>
      <point x="435" y="309" type="curve" smooth="yes"/>
      <point x="468" y="309"/>
      <point x="500" y="304"/>
      <point x="513" y="299" type="curve"/>
      <point x="525" y="312"/>
      <point x="527" y="326"/>
      <point x="527" y="338" type="curve" smooth="yes"/>
      <point x="527" y="370"/>
      <point x="494" y="384"/>
      <point x="459" y="384" type="curve" smooth="yes"/>
      <point x="408" y="384"/>
      <point x="378" y="357"/>
    </contour>
    <contour>
      <point x="54" y="0" type="move" name="_cursive"/>
    </contour>
  </outline>
</glyph>
<glyph name="si_Nga" format="1">
  <advance width="602"/>
  <unicode hex="0D9E"/>
  <outline>
    <contour>
      <point x="42" y="0" type="move" name="_cursive"/>
    </contour>
    <contour>
      <point x="86" y="339" type="curve" smooth="yes"/>
      <point x="86" y="313"/>
      <point x="110" y="291"/>
      <point x="139" y="291" type="curve" smooth="yes"/>
      <point x="168" y="291"/>
      <point x="190" y="313"/>
      <point x="190" y="339" type="curve" smooth="yes"/>
      <point x="190" y="365"/>
      <point x="168" y="387"/>
      <point x="139" y="387" type="curve" smooth="yes"/>
      <point x="110" y="387"/>
      <point x="86" y="365"/>
    </contour>
    <contour>
      <point x="45" y="457" type="line"/>
      <point x="103" y="531"/>
      <point x="179" y="568"/>
      <point x="274" y="568" type="curve" smooth="yes"/>
      <point x="430" y="568"/>
      <point x="557" y="435"/>
      <point x="557" y="254" type="curve" smooth="yes"/>
      <point x="557" y="111"/>
      <point x="504" y="0"/>
      <point x="406" y="0" type="curve" smooth="yes"/>
      <point x="345" y="0"/>
      <point x="321" y="21"/>
      <point x="291" y="58" type="curve"/>
      <point x="261" y="20"/>
      <point x="228" y="0"/>
      <point x="184" y="0" type="curve" smooth="yes"/>
      <point x="105" y="0"/>
      <point x="50" y="59"/>
      <point x="50" y="137" type="curve" smooth="yes"/>
      <point x="50" y="207"/>
      <point x="107" y="252"/>
      <point x="175" y="252" type="curve" smooth="yes"/>
      <point x="210" y="252"/>
      <point x="239" y="245"/>
      <point x="273" y="245" type="curve" smooth="yes"/>
      <point x="318" y="245"/>
      <point x="335" y="268"/>
      <point x="335" y="303" type="curve" smooth="yes"/>
      <point x="335" y="373"/>
      <point x="261" y="401"/>
      <point x="209" y="401" type="curve" smooth="yes"/>
      <point x="195" y="401"/>
      <point x="186" y="400"/>
      <point x="178" y="399" type="curve"/>
      <point x="197" y="389"/>
      <point x="217" y="371"/>
      <point x="217" y="337" type="curve" smooth="yes"/>
      <point x="217" y="302"/>
      <point x="185" y="266"/>
      <point x="138" y="266" type="curve" smooth="yes"/>
      <point x="98" y="266"/>
      <point x="59" y="296"/>
      <point x="59" y="338" type="curve" smooth="yes"/>
      <point x="59" y="393"/>
      <point x="117" y="424"/>
      <point x="203" y="424" type="curve" smooth="yes"/>
      <point x="304" y="424"/>
      <point x="363" y="369"/>
      <point x="363" y="299" type="curve" smooth="yes"/>
      <point x="363" y="259"/>
      <point x="338" y="219"/>
      <point x="273" y="219" type="curve" smooth="yes"/>
      <point x="233" y="219"/>
      <point x="219" y="225"/>
      <point x="177" y="225" type="curve" smooth="yes"/>
      <point x="129" y="225"/>
      <point x="87" y="199"/>
      <point x="87" y="152" type="curve" smooth="yes"/>
      <point x="87" y="101"/>
      <point x="127" y="69"/>
      <point x="182" y="69" type="curve" smooth="yes"/>
      <point x="230" y="69"/>
      <point x="277" y="94"/>
      <point x="277" y="141" type="curve" smooth="yes"/>
      <point x="277" y="173" type="line"/>
      <point x="304" y="173" type="line"/>
      <point x="304" y="141" type="line" smooth="yes"/>
      <point x="304" y="96"/>
      <point x="353" y="68"/>
      <point x="402" y="68" type="curve" smooth="yes"/>
      <point x="480" y="68"/>
      <point x="522" y="156"/>
      <point x="522" y="275" type="curve" smooth="yes"/>
      <point x="522" y="428"/>
      <point x="415" y="545"/>
      <point x="271" y="545" type="curve" smooth="yes"/>
      <point x="194" y="545"/>
      <point x="129" y="516"/>
      <point x="76" y="457" type="curve"/>
    </contour>
  </outline>
</glyph>
<glyph name="si_Nnga" format="1">
  <advance width="749"/>
  <unicode hex="0D9F"/>
  <outline>
    <contour>
      <point x="151" y="207" type="curve" smooth="yes"/>
      <point x="151" y="330"/>
      <point x="226" y="432"/>
      <point x="337" y="432" type="curve" smooth="yes"/>
      <point x="341" y="432"/>
      <point x="346" y="431"/>
      <point x="350" y="431" type="curve"/>
      <point x="350" y="408" type="line"/>
      <point x="347" y="408"/>
      <point x="342" y="408"/>
      <point x="339" y="408" type="curve" smooth="yes"/>
      <point x="253" y="408"/>
      <point x="186" y="332"/>
      <point x="186" y="230" type="curve" smooth="yes"/>
      <point x="186" y="147"/>
      <point x="234" y="71"/>
      <point x="323" y="71" type="curve" smooth="yes"/>
      <point x="382" y="71"/>
      <point x="435" y="99"/>
      <point x="435" y="158" type="curve" smooth="yes"/>
      <point x="435" y="196"/>
      <point x="415" y="217"/>
      <point x="384" y="217" type="curve" smooth="yes"/>
      <point x="377" y="217"/>
      <point x="367" y="215"/>
      <point x="360" y="210" type="curve"/>
      <point x="359" y="204"/>
      <point x="358" y="195"/>
      <point x="358" y="192" type="curve"/>
      <point x="333" y="192" type="line"/>
      <point x="343" y="317"/>
      <point x="405" y="432"/>
      <point x="527" y="432" type="curve" smooth="yes"/>
      <point x="639" y="432"/>
      <point x="703" y="332"/>
      <point x="703" y="217" type="curve" smooth="yes"/>
      <point x="703" y="95"/>
      <point x="617" y="-1"/>
      <point x="486" y="-1" type="curve" smooth="yes"/>
      <point x="476" y="-1"/>
      <point x="466" y="0"/>
      <point x="455" y="1" type="curve"/>
      <point x="455" y="26" type="line"/>
      <point x="463" y="25"/>
      <point x="471" y="24"/>
      <point x="479" y="24" type="curve" smooth="yes"/>
      <point x="586" y="24"/>
      <point x="660" y="100"/>
      <point x="660" y="200" type="curve" smooth="yes"/>
      <point x="660" y="301"/>
      <point x="601" y="371"/>
      <point x="510" y="371" type="curve" smooth="yes"/>
      <point x="433" y="371"/>
      <point x="380" y="313"/>
      <point x="364" y="236" type="curve"/>
      <point x="372" y="240"/>
      <point x="380" y="241"/>
      <point x="387" y="241" type="curve" smooth="yes"/>
      <point x="435" y="241"/>
      <point x="469" y="202"/>
      <point x="469" y="136" type="curve" smooth="yes"/>
      <point x="469" y="56"/>
      <point x="412" y="-2"/>
      <point x="325" y="-2" type="curve" smooth="yes"/>
      <point x="214" y="-2"/>
      <point x="151" y="96"/>
    </contour>
    <contour>
      <point x="27" y="221" type="curve" smooth="yes"/>
      <point x="27" y="353"/>
      <point x="100" y="433"/>
      <point x="239" y="433" type="curve" smooth="yes"/>
      <point x="248" y="433"/>
      <point x="311" y="434"/>
      <point x="337" y="432" type="curve"/>
      <point x="316" y="421"/>
      <point x="273" y="415"/>
      <point x="256" y="409" type="curve"/>
      <point x="120" y="409"/>
      <point x="56" y="342"/>
      <point x="56" y="218" type="curve" smooth="yes"/>
      <point x="56" y="137"/>
      <point x="83" y="75"/>
      <point x="135" y="30" type="curve"/>
      <point x="135" y="0" type="line"/>
      <point x="69" y="33"/>
      <point x="27" y="120"/>
    </contour>
    <contour>
      <point x="43" y="0" type="move" name="_cursive"/>
    </contour>
  </outline>
</glyph>
<glyph name="si_Ca" format="1">
  <advance width="583"/>
  <unicode hex="0DA0"/>
  <outline>
    <contour>
      <point x="62" y="161" type="curve" smooth="yes"/>
      <point x="62" y="191"/>
      <point x="73" y="222"/>
      <point x="95" y="242" type="curve" smooth="yes"/>
      <point x="111" y="256"/>
      <point x="129" y="266"/>
      <point x="154" y="271" type="curve"/>
      <point x="187" y="283"/>
      <point x="228" y="295"/>
      <point x="264" y="295" type="curve" smooth="yes"/>
      <point x="280" y="295" type="line"/>
      <point x="280" y="297"/>
      <point x="280" y="299"/>
      <point x="280" y="301" type="curve" smooth="yes"/>
      <point x="280" y="354"/>
      <point x="247" y="386"/>
      <point x="211" y="386" type="curve" smooth="yes"/>
      <point x="167" y="386"/>
      <point x="160" y="363"/>
      <point x="154" y="347" type="curve" smooth="yes"/>
      <point x="147" y="328"/>
      <point x="137" y="315"/>
      <point x="116" y="315" type="curve" smooth="yes"/>
      <point x="100" y="315"/>
      <point x="81" y="326"/>
      <point x="81" y="351" type="curve" smooth="yes"/>
      <point x="81" y="397"/>
      <point x="130" y="422"/>
      <point x="184" y="422" type="curve" smooth="yes"/>
      <point x="270" y="422"/>
      <point x="312" y="367"/>
      <point x="312" y="283" type="curve" smooth="yes"/>
      <point x="312" y="280"/>
      <point x="312" y="274"/>
      <point x="312" y="271" type="curve"/>
      <point x="244" y="271" type="line" smooth="yes"/>
      <point x="201" y="271"/>
      <point x="162" y="259"/>
      <point x="138" y="243" type="curve" smooth="yes"/>
      <point x="112" y="226"/>
      <point x="99" y="201"/>
      <point x="99" y="176" type="curve" smooth="yes"/>
      <point x="99" y="92"/>
      <point x="203" y="69"/>
      <point x="291" y="69" type="curve" smooth="yes"/>
      <point x="440" y="69"/>
      <point x="528" y="154"/>
      <point x="528" y="293" type="curve" smooth="yes"/>
      <point x="528" y="432"/>
      <point x="427" y="540"/>
      <point x="296" y="540" type="curve" smooth="yes"/>
      <point x="219" y="540"/>
      <point x="157" y="513"/>
      <point x="113" y="459" type="curve"/>
      <point x="82" y="459" type="line"/>
      <point x="130" y="527"/>
      <point x="200" y="563"/>
      <point x="296" y="563" type="curve" smooth="yes"/>
      <point x="452" y="563"/>
      <point x="562" y="433"/>
      <point x="562" y="268" type="curve" smooth="yes"/>
      <point x="562" y="112"/>
      <point x="467" y="0"/>
      <point x="288" y="0" type="curve" smooth="yes"/>
      <point x="170" y="0"/>
      <point x="62" y="45"/>
    </contour>
    <contour>
      <point x="14" y="264" type="curve"/>
      <point x="14" y="295" type="line"/>
      <point x="278" y="295" type="line"/>
      <point x="308" y="271" type="line"/>
      <point x="145" y="271" type="line" smooth="yes"/>
      <point x="76" y="270"/>
      <point x="30" y="267"/>
    </contour>
    <contour>
      <point x="71" y="0" type="move" name="_cursive"/>
    </contour>
  </outline>
</glyph>
<glyph name="si_Cha" format="1">
  <advance width="598"/>
  <unicode hex="0DA1"/>
  <outline>
    <contour>
      <point x="33" y="170" type="curve" smooth="yes"/>
      <point x="33" y="249.202"/>
      <point x="96" y="312"/>
      <point x="208" y="312" type="curve" smooth="yes"/>
      <point x="212.688" y="312"/>
      <point x="222.032" y="311.805"/>
      <point x="227" y="311.25" type="curve"/>
      <point x="228.333" y="317.917"/>
      <point x="229" y="324.333"/>
      <point x="229" y="331" type="curve" smooth="yes"/>
      <point x="229" y="362"/>
      <point x="214" y="391"/>
      <point x="177" y="391" type="curve" smooth="yes"/>
      <point x="154.99" y="391"/>
      <point x="143.896" y="378.048"/>
      <point x="137" y="363" type="curve" smooth="yes"/>
      <point x="126" y="339"/>
      <point x="118.029" y="322"/>
      <point x="91" y="322" type="curve" smooth="yes"/>
      <point x="72" y="322"/>
      <point x="53" y="334.667"/>
      <point x="53" y="360" type="curve" smooth="yes"/>
      <point x="53" y="408.774"/>
      <point x="100.898" y="432"/>
      <point x="148" y="432" type="curve" smooth="yes"/>
      <point x="214.893" y="432"/>
      <point x="258" y="393.393"/>
      <point x="258" y="326" type="curve" smooth="yes"/>
      <point x="258" y="314"/>
      <point x="256.667" y="301.333"/>
      <point x="254" y="288" type="curve"/>
      <point x="247.471" y="289.195"/>
      <point x="238" y="290"/>
      <point x="229" y="290" type="curve" smooth="yes"/>
      <point x="110" y="290"/>
      <point x="70" y="233"/>
      <point x="70" y="186" type="curve" smooth="yes"/>
      <point x="70" y="97"/>
      <point x="189.23" y="71"/>
      <point x="292" y="71" type="curve" smooth="yes"/>
      <point x="398" y="71"/>
      <point x="514" y="97"/>
      <point x="514" y="186" type="curve" smooth="yes"/>
      <point x="514" y="239"/>
      <point x="470" y="289"/>
      <point x="355" y="289" type="curve" smooth="yes"/>
      <point x="333" y="289"/>
      <point x="298" y="286"/>
      <point x="284" y="285" type="curve"/>
      <point x="282" y="292"/>
      <point x="279" y="308"/>
      <point x="279" y="319" type="curve" smooth="yes"/>
      <point x="279" y="401"/>
      <point x="336" y="435"/>
      <point x="406" y="435" type="curve" smooth="yes"/>
      <point x="478" y="435"/>
      <point x="532" y="392"/>
      <point x="532" y="297" type="curve" smooth="yes"/>
      <point x="532" y="240"/>
      <point x="506" y="160"/>
      <point x="433" y="160" type="curve" smooth="yes"/>
      <point x="373" y="160"/>
      <point x="348.515" y="223"/>
      <point x="348.515" y="293" type="curve" smooth="yes"/>
      <point x="348.515" y="396.658"/>
      <point x="389.831" y="495.584"/>
      <point x="430" y="545.5" type="curve" smooth="yes"/>
      <point x="462.835" y="586.302"/>
      <point x="505.045" y="617"/>
      <point x="541.75" y="617" type="curve" smooth="yes"/>
      <point x="557.75" y="617"/>
      <point x="568" y="606"/>
      <point x="568" y="596" type="curve" smooth="yes"/>
      <point x="568" y="555.894"/>
      <point x="519.951" y="589.361"/>
      <point x="451.75" y="516" type="curve" smooth="yes"/>
      <point x="411.392" y="472.589"/>
      <point x="376.518" y="391"/>
      <point x="376.518" y="292" type="curve" smooth="yes"/>
      <point x="376.518" y="245"/>
      <point x="388" y="187"/>
      <point x="435" y="187" type="curve" smooth="yes"/>
      <point x="478" y="187"/>
      <point x="504" y="244"/>
      <point x="504" y="295" type="curve" smooth="yes"/>
      <point x="504" y="378"/>
      <point x="464" y="410"/>
      <point x="402" y="410" type="curve" smooth="yes"/>
      <point x="358" y="410"/>
      <point x="306" y="389"/>
      <point x="306" y="324" type="curve" smooth="yes"/>
      <point x="306" y="319"/>
      <point x="306" y="314"/>
      <point x="307" y="310" type="curve"/>
      <point x="314" y="311"/>
      <point x="334" y="312.319"/>
      <point x="350" y="312.319" type="curve" smooth="yes"/>
      <point x="388" y="312.319"/>
      <point x="433.868" y="309.014"/>
      <point x="473" y="291" type="curve" smooth="yes"/>
      <point x="516.536" y="270.96"/>
      <point x="549" y="228"/>
      <point x="549" y="168" type="curve" smooth="yes"/>
      <point x="549" y="45"/>
      <point x="423.685" y="0"/>
      <point x="298" y="0" type="curve" smooth="yes"/>
      <point x="160.148" y="0"/>
      <point x="33" y="44"/>
    </contour>
  </outline>
</glyph>
<glyph name="uni0DA1" format="1">
  <advance width="598"/>
  <unicode hex="0DA1"/>
  <outline>
    <contour>
      <point x="33" y="170" type="curve" smooth="yes"/>
      <point x="33" y="249"/>
      <point x="96" y="312"/>
      <point x="208" y="312" type="curve" smooth="yes"/>
      <point x="213" y="312"/>
      <point x="222" y="312"/>
      <point x="227" y="311" type="curve"/>
      <point x="228" y="318"/>
      <point x="229" y="324"/>
      <point x="229" y="331" type="curve" smooth="yes"/>
      <point x="229" y="362"/>
      <point x="214" y="391"/>
      <point x="177" y="391" type="curve" smooth="yes"/>
      <point x="155" y="391"/>
      <point x="144" y="378"/>
      <point x="137" y="363" type="curve" smooth="yes"/>
      <point x="126" y="339"/>
      <point x="118" y="322"/>
      <point x="91" y="322" type="curve" smooth="yes"/>
      <point x="72" y="322"/>
      <point x="53" y="335"/>
      <point x="53" y="360" type="curve" smooth="yes"/>
      <point x="53" y="409"/>
      <point x="101" y="432"/>
      <point x="148" y="432" type="curve" smooth="yes"/>
      <point x="215" y="432"/>
      <point x="258" y="393"/>
      <point x="258" y="326" type="curve" smooth="yes"/>
      <point x="258" y="314"/>
      <point x="257" y="301"/>
      <point x="254" y="288" type="curve"/>
      <point x="247" y="289"/>
      <point x="238" y="290"/>
      <point x="229" y="290" type="curve" smooth="yes"/>
      <point x="110" y="290"/>
      <point x="70" y="233"/>
      <point x="70" y="186" type="curve" smooth="yes"/>
      <point x="70" y="97"/>
      <point x="189" y="71"/>
      <point x="292" y="71" type="curve" smooth="yes"/>
      <point x="398" y="71"/>
      <point x="514" y="97"/>
      <point x="514" y="186" type="curve" smooth="yes"/>
      <point x="514" y="239"/>
      <point x="470" y="289"/>
      <point x="355" y="289" type="curve" smooth="yes"/>
      <point x="333" y="289"/>
      <point x="298" y="286"/>
      <point x="284" y="285" type="curve"/>
      <point x="282" y="292"/>
      <point x="279" y="308"/>
      <point x="279" y="319" type="curve" smooth="yes"/>
      <point x="279" y="401"/>
      <point x="336" y="435"/>
      <point x="406" y="435" type="curve" smooth="yes"/>
      <point x="478" y="435"/>
      <point x="532" y="392"/>
      <point x="532" y="297" type="curve" smooth="yes"/>
      <point x="532" y="240"/>
      <point x="506" y="160"/>
      <point x="433" y="160" type="curve" smooth="yes"/>
      <point x="373" y="160"/>
      <point x="349" y="223"/>
      <point x="349" y="293" type="curve" smooth="yes"/>
      <point x="349" y="397"/>
      <point x="390" y="496"/>
      <point x="430" y="546" type="curve" smooth="yes"/>
      <point x="463" y="587"/>
      <point x="505" y="617"/>
      <point x="542" y="617" type="curve" smooth="yes"/>
      <point x="558" y="617"/>
      <point x="568" y="606"/>
      <point x="568" y="596" type="curve" smooth="yes"/>
      <point x="568" y="556"/>
      <point x="520" y="589"/>
      <point x="452" y="516" type="curve" smooth="yes"/>
      <point x="412" y="473"/>
      <point x="377" y="391"/>
      <point x="377" y="292" type="curve" smooth="yes"/>
      <point x="377" y="245"/>
      <point x="388" y="187"/>
      <point x="435" y="187" type="curve" smooth="yes"/>
      <point x="478" y="187"/>
      <point x="504" y="244"/>
      <point x="504" y="295" type="curve" smooth="yes"/>
      <point x="504" y="378"/>
      <point x="464" y="410"/>
      <point x="402" y="410" type="curve" smooth="yes"/>
      <point x="358" y="410"/>
      <point x="306" y="389"/>
      <point x="306" y="324" type="curve" smooth="yes"/>
      <point x="306" y="319"/>
      <point x="306" y="314"/>
      <point x="307" y="310" type="curve"/>
      <point x="314" y="311"/>
      <point x="334" y="312"/>
      <point x="350" y="312" type="curve" smooth="yes"/>
      <point x="388" y="312"/>
      <point x="434" y="309"/>
      <point x="473" y="291" type="curve" smooth="yes"/>
      <point x="517" y="271"/>
      <point x="549" y="228"/>
      <point x="549" y="168" type="curve" smooth="yes"/>
      <point x="549" y="45"/>
      <point x="424" y="0"/>
      <point x="298" y="0" type="curve" smooth="yes"/>
      <point x="160" y="0"/>
      <point x="33" y="44"/>
    </contour>
  </outline>
</glyph>
<glyph name="si_Ja" format="1">
  <advance width="598"/>
  <unicode hex="0DA2"/>
  <outline>
    <contour>
      <point x="48" y="0" type="move" name="_cursive"/>
    </contour>
    <contour>
      <point x="33" y="170" type="curve" smooth="yes"/>
      <point x="33" y="249"/>
      <point x="96" y="312"/>
      <point x="208" y="312" type="curve" smooth="yes"/>
      <point x="226" y="312"/>
      <point x="227" y="312"/>
      <point x="235" y="311" type="curve"/>
      <point x="236" y="318"/>
      <point x="237" y="324"/>
      <point x="237" y="331" type="curve" smooth="yes"/>
      <point x="237" y="362"/>
      <point x="220" y="391"/>
      <point x="183" y="391" type="curve" smooth="yes"/>
      <point x="161" y="391"/>
      <point x="145" y="378"/>
      <point x="138" y="363" type="curve" smooth="yes"/>
      <point x="127" y="339"/>
      <point x="118" y="322"/>
      <point x="91" y="322" type="curve" smooth="yes"/>
      <point x="72" y="322"/>
      <point x="55" y="336"/>
      <point x="55" y="361" type="curve" smooth="yes"/>
      <point x="55" y="410"/>
      <point x="107" y="432"/>
      <point x="154" y="432" type="curve" smooth="yes"/>
      <point x="221" y="432"/>
      <point x="266" y="393"/>
      <point x="266" y="326" type="curve" smooth="yes"/>
      <point x="266" y="314"/>
      <point x="265" y="301"/>
      <point x="262" y="288" type="curve"/>
      <point x="250" y="289"/>
      <point x="238" y="290"/>
      <point x="229" y="290" type="curve" smooth="yes"/>
      <point x="110" y="290"/>
      <point x="70" y="233"/>
      <point x="70" y="186" type="curve" smooth="yes"/>
      <point x="70" y="97"/>
      <point x="189" y="71"/>
      <point x="292" y="71" type="curve" smooth="yes"/>
      <point x="398" y="71"/>
      <point x="514" y="97"/>
      <point x="514" y="186" type="curve" smooth="yes"/>
      <point x="514" y="237"/>
      <point x="470" y="289"/>
      <point x="355" y="289" type="curve" smooth="yes"/>
      <point x="333" y="289"/>
      <point x="314" y="286"/>
      <point x="300" y="285" type="curve"/>
      <point x="295" y="301"/>
      <point x="293" y="316"/>
      <point x="293" y="331" type="curve" smooth="yes"/>
      <point x="293" y="409"/>
      <point x="350" y="434"/>
      <point x="419" y="434" type="curve" smooth="yes"/>
      <point x="460" y="434"/>
      <point x="520" y="412"/>
      <point x="520" y="353" type="curve" smooth="yes"/>
      <point x="520" y="324"/>
      <point x="503" y="285"/>
      <point x="438" y="285" type="curve" smooth="yes"/>
      <point x="384" y="285"/>
      <point x="363" y="332"/>
      <point x="363" y="375" type="curve" smooth="yes"/>
      <point x="363" y="462"/>
      <point x="412" y="531"/>
      <point x="456" y="571" type="curve" smooth="yes"/>
      <point x="493" y="605"/>
      <point x="524" y="617"/>
      <point x="544" y="617" type="curve" smooth="yes"/>
      <point x="560" y="617"/>
      <point x="568" y="606"/>
      <point x="568" y="596" type="curve" smooth="yes"/>
      <point x="568" y="569"/>
      <point x="498" y="561"/>
      <point x="449" y="511" type="curve" smooth="yes"/>
      <point x="426" y="488"/>
      <point x="391" y="444"/>
      <point x="391" y="374" type="curve" smooth="yes"/>
      <point x="391" y="339"/>
      <point x="407" y="311"/>
      <point x="440" y="311" type="curve" smooth="yes"/>
      <point x="469" y="311"/>
      <point x="489" y="329"/>
      <point x="489" y="355" type="curve" smooth="yes"/>
      <point x="489" y="388"/>
      <point x="459" y="407"/>
      <point x="415" y="407" type="curve" smooth="yes"/>
      <point x="344" y="407"/>
      <point x="323" y="374"/>
      <point x="323" y="334" type="curve" smooth="yes"/>
      <point x="323" y="327"/>
      <point x="324" y="318"/>
      <point x="326" y="309" type="curve"/>
      <point x="334" y="310"/>
      <point x="343" y="311"/>
      <point x="356" y="311" type="curve" smooth="yes"/>
      <point x="447" y="311"/>
      <point x="549" y="283"/>
      <point x="549" y="168" type="curve" smooth="yes"/>
      <point x="549" y="45"/>
      <point x="424" y="0"/>
      <point x="298" y="0" type="curve" smooth="yes"/>
      <point x="160" y="0"/>
      <point x="33" y="44"/>
    </contour>
  </outline>
</glyph>
<glyph name="si_Jha" format="1">
  <advance width="1061"/>
  <unicode hex="0DA3"/>
  <outline>
    <contour>
      <point x="68" y="93" type="curve"/>
      <point x="74" y="96"/>
      <point x="80" y="98"/>
      <point x="87" y="98" type="curve" smooth="yes"/>
      <point x="115" y="98"/>
      <point x="138" y="69"/>
      <point x="194" y="69" type="curve" smooth="yes"/>
      <point x="244" y="69"/>
      <point x="274" y="99"/>
      <point x="274" y="158" type="curve" smooth="yes"/>
      <point x="274" y="160"/>
      <point x="274" y="157"/>
      <point x="274" y="159" type="curve"/>
      <point x="300" y="159" type="line"/>
      <point x="300" y="158"/>
      <point x="300" y="159"/>
      <point x="300" y="158" type="curve" smooth="yes"/>
      <point x="300" y="95"/>
      <point x="326" y="69"/>
      <point x="383" y="69" type="curve" smooth="yes"/>
      <point x="444" y="69"/>
      <point x="463" y="120"/>
      <point x="463" y="155" type="curve" smooth="yes"/>
      <point x="463" y="236"/>
      <point x="392" y="284"/>
      <point x="291" y="284" type="curve" smooth="yes"/>
      <point x="235" y="284"/>
      <point x="199" y="276"/>
      <point x="178" y="267" type="curve"/>
      <point x="161" y="252"/>
      <point x="142" y="229"/>
      <point x="126" y="207" type="curve" smooth="yes"/>
      <point x="98" y="167"/>
      <point x="79" y="129"/>
    </contour>
    <contour>
      <point x="21" y="21" type="line"/>
      <point x="29" y="88"/>
      <point x="72" y="180"/>
      <point x="106" y="227" type="curve" smooth="yes"/>
      <point x="131" y="262"/>
      <point x="146" y="275"/>
      <point x="164" y="294" type="curve"/>
      <point x="176" y="307"/>
      <point x="188" y="323"/>
      <point x="188" y="344" type="curve" smooth="yes"/>
      <point x="188" y="365"/>
      <point x="178" y="383"/>
      <point x="154" y="383" type="curve" smooth="yes"/>
      <point x="140" y="383"/>
      <point x="119" y="375"/>
      <point x="113" y="354" type="curve" smooth="yes"/>
      <point x="106" y="332"/>
      <point x="111" y="332"/>
      <point x="104" y="315" type="curve" smooth="yes"/>
      <point x="97" y="297"/>
      <point x="82" y="290"/>
      <point x="67" y="290" type="curve" smooth="yes"/>
      <point x="34" y="290"/>
      <point x="28" y="320"/>
      <point x="28" y="332" type="curve" smooth="yes"/>
      <point x="28" y="385"/>
      <point x="77" y="423"/>
      <point x="133" y="423" type="curve" smooth="yes"/>
      <point x="182" y="423"/>
      <point x="215" y="393"/>
      <point x="215" y="348" type="curve" smooth="yes"/>
      <point x="215" y="343"/>
      <point x="215" y="338"/>
      <point x="214" y="333" type="curve"/>
      <point x="274" y="388"/>
      <point x="362" y="424"/>
      <point x="464" y="424" type="curve" smooth="yes"/>
      <point x="562" y="424"/>
      <point x="627" y="405"/>
      <point x="655" y="389" type="curve"/>
      <point x="600" y="381" type="line"/>
      <point x="557" y="393"/>
      <point x="506" y="396"/>
      <point x="463" y="396" type="curve" smooth="yes"/>
      <point x="334" y="396"/>
      <point x="261" y="342"/>
      <point x="214" y="301" type="curve"/>
      <point x="237" y="307"/>
      <point x="269" y="309"/>
      <point x="295" y="309" type="curve" smooth="yes"/>
      <point x="412" y="309"/>
      <point x="503" y="245"/>
      <point x="503" y="123" type="curve" smooth="yes"/>
      <point x="503" y="66"/>
      <point x="471" y="-1"/>
      <point x="388" y="-1" type="curve" smooth="yes"/>
      <point x="343" y="-1"/>
      <point x="310" y="20"/>
      <point x="289" y="62" type="curve"/>
      <point x="272" y="22"/>
      <point x="240" y="-1"/>
      <point x="199" y="-1" type="curve" smooth="yes"/>
      <point x="114" y="-1"/>
      <point x="117" y="71"/>
      <point x="85" y="71" type="curve" smooth="yes"/>
      <point x="64" y="71"/>
      <point x="49" y="50"/>
      <point x="46" y="11" type="curve"/>
    </contour>
    <contour>
      <point x="472" y="190" type="curve" smooth="yes"/>
      <point x="472" y="281"/>
      <point x="524" y="356"/>
      <point x="588" y="378" type="curve" smooth="yes"/>
      <point x="609" y="385"/>
      <point x="631" y="389"/>
      <point x="655" y="389" type="curve"/>
      <point x="655" y="364" type="line"/>
      <point x="652" y="364"/>
      <point x="649" y="364"/>
      <point x="646" y="364" type="curve" smooth="yes"/>
      <point x="569" y="364"/>
      <point x="505" y="294"/>
      <point x="505" y="207" type="curve" smooth="yes"/>
      <point x="505" y="133"/>
      <point x="552" y="69"/>
      <point x="623" y="69" type="curve" smooth="yes"/>
      <point x="673" y="69"/>
      <point x="723" y="90"/>
      <point x="723" y="152" type="curve" smooth="yes"/>
      <point x="723" y="191" type="line"/>
      <point x="750" y="191" type="line"/>
      <point x="750" y="152" type="line" smooth="yes"/>
      <point x="750" y="90"/>
      <point x="799" y="69"/>
      <point x="847" y="69" type="curve" smooth="yes"/>
      <point x="941" y="69"/>
      <point x="981" y="176"/>
      <point x="981" y="277" type="curve" smooth="yes"/>
      <point x="981" y="431"/>
      <point x="871" y="543"/>
      <point x="727" y="543" type="curve" smooth="yes"/>
      <point x="648" y="543"/>
      <point x="586" y="515"/>
      <point x="534" y="457" type="curve"/>
      <point x="503" y="457" type="line"/>
      <point x="559" y="530"/>
      <point x="634" y="566"/>
      <point x="731" y="566" type="curve" smooth="yes"/>
      <point x="890" y="566"/>
      <point x="1015" y="436"/>
      <point x="1015" y="255" type="curve" smooth="yes"/>
      <point x="1015" y="136"/>
      <point x="975" y="0"/>
      <point x="852" y="0" type="curve" smooth="yes"/>
      <point x="804" y="0"/>
      <point x="764" y="20"/>
      <point x="735" y="58" type="curve"/>
      <point x="705" y="20"/>
      <point x="669" y="0"/>
      <point x="625" y="0" type="curve" smooth="yes"/>
      <point x="525" y="0"/>
      <point x="472" y="93"/>
    </contour>
    <contour>
      <point x="69" y="-1" type="move" name="_cursive"/>
    </contour>
  </outline>
</glyph>
<glyph name="si_Jnya" format="1">
  <advance width="822"/>
  <unicode hex="0DA5"/>
  <outline>
    <contour>
      <point x="411" y="165" type="curve" smooth="yes"/>
      <point x="411" y="268"/>
      <point x="483" y="310"/>
      <point x="599" y="310" type="curve" smooth="yes"/>
      <point x="716" y="310" type="line"/>
      <point x="706" y="355"/>
      <point x="678" y="387"/>
      <point x="635" y="387" type="curve" smooth="yes"/>
      <point x="616" y="387"/>
      <point x="601" y="375"/>
      <point x="592" y="357" type="curve" smooth="yes"/>
      <point x="582" y="336"/>
      <point x="567" y="328"/>
      <point x="552" y="328" type="curve" smooth="yes"/>
      <point x="528" y="328"/>
      <point x="515" y="342"/>
      <point x="515" y="363" type="curve" smooth="yes"/>
      <point x="515" y="398"/>
      <point x="553" y="423"/>
      <point x="607" y="423" type="curve" smooth="yes"/>
      <point x="691" y="423"/>
      <point x="733" y="380"/>
      <point x="751" y="287" type="curve"/>
      <point x="617" y="287" type="line" smooth="yes"/>
      <point x="531" y="287"/>
      <point x="486" y="251"/>
      <point x="486" y="169" type="curve" smooth="yes"/>
      <point x="486" y="87"/>
      <point x="555" y="26"/>
      <point x="636" y="26" type="curve" smooth="yes"/>
      <point x="681" y="26"/>
      <point x="717" y="45"/>
      <point x="756" y="90" type="curve"/>
      <point x="778" y="73" type="line"/>
      <point x="748" y="38"/>
      <point x="680" y="-28"/>
      <point x="680" y="-102" type="curve" smooth="yes"/>
      <point x="680" y="-166"/>
      <point x="718" y="-190"/>
      <point x="780" y="-205" type="curve"/>
      <point x="780" y="-232" type="line"/>
      <point x="766" y="-235"/>
      <point x="749" y="-236"/>
      <point x="728" y="-236" type="curve" smooth="yes"/>
      <point x="659" y="-234"/>
      <point x="624" y="-195"/>
      <point x="624" y="-139" type="curve" smooth="yes"/>
      <point x="624" y="-101"/>
      <point x="646" y="-52"/>
      <point x="692" y="10" type="curve"/>
      <point x="658" y="0"/>
      <point x="635" y="-1"/>
      <point x="609" y="-1" type="curve" smooth="yes"/>
      <point x="481" y="-1"/>
      <point x="411" y="67"/>
    </contour>
    <contour>
      <point x="131" y="202" type="curve" smooth="yes"/>
      <point x="131" y="322"/>
      <point x="204" y="422"/>
      <point x="312" y="422" type="curve" smooth="yes"/>
      <point x="316" y="422"/>
      <point x="321" y="421"/>
      <point x="325" y="421" type="curve"/>
      <point x="325" y="398" type="line"/>
      <point x="322" y="398"/>
      <point x="317" y="398"/>
      <point x="314" y="398" type="curve" smooth="yes"/>
      <point x="230" y="398"/>
      <point x="165" y="325"/>
      <point x="165" y="225" type="curve" smooth="yes"/>
      <point x="165" y="144"/>
      <point x="212" y="69"/>
      <point x="299" y="69" type="curve" smooth="yes"/>
      <point x="357" y="69"/>
      <point x="408" y="96"/>
      <point x="408" y="154" type="curve" smooth="yes"/>
      <point x="408" y="191"/>
      <point x="388" y="212"/>
      <point x="358" y="212" type="curve" smooth="yes"/>
      <point x="351" y="212"/>
      <point x="341" y="209"/>
      <point x="336" y="205" type="curve"/>
      <point x="335" y="199"/>
      <point x="334" y="191"/>
      <point x="334" y="188" type="curve"/>
      <point x="308" y="188" type="line"/>
      <point x="322" y="344"/>
      <point x="397" y="428"/>
      <point x="547" y="428" type="curve" smooth="yes"/>
      <point x="577" y="428"/>
      <point x="626" y="426"/>
      <point x="658" y="416" type="curve"/>
      <point x="540" y="399" type="line"/>
      <point x="534" y="399"/>
      <point x="531" y="400"/>
      <point x="525" y="400" type="curve" smooth="yes"/>
      <point x="421" y="400"/>
      <point x="360" y="332"/>
      <point x="339" y="230" type="curve"/>
      <point x="347" y="234"/>
      <point x="354" y="235"/>
      <point x="361" y="235" type="curve" smooth="yes"/>
      <point x="408" y="235"/>
      <point x="441" y="197"/>
      <point x="441" y="133" type="curve" smooth="yes"/>
      <point x="441" y="55"/>
      <point x="386" y="-2"/>
      <point x="301" y="-2" type="curve" smooth="yes"/>
      <point x="193" y="-2"/>
      <point x="131" y="94"/>
    </contour>
    <contour>
      <point x="26" y="216" type="curve" smooth="yes"/>
      <point x="26" y="345"/>
      <point x="97" y="423"/>
      <point x="233" y="423" type="curve" smooth="yes"/>
      <point x="242" y="423"/>
      <point x="294" y="424"/>
      <point x="316" y="422" type="curve"/>
      <point x="312" y="422"/>
      <point x="226" y="396"/>
      <point x="226" y="396" type="curve"/>
      <point x="95" y="396"/>
      <point x="55" y="305"/>
      <point x="55" y="213" type="curve" smooth="yes"/>
      <point x="55" y="134"/>
      <point x="81" y="73"/>
      <point x="132" y="29" type="curve"/>
      <point x="132" y="0" type="line"/>
      <point x="68" y="32"/>
      <point x="26" y="117"/>
    </contour>
    <contour>
      <point x="51" y="0" type="move" name="_cursive"/>
    </contour>
  </outline>
</glyph>
<glyph name="si_Tta" format="1">
  <advance width="588"/>
  <unicode hex="0DA7"/>
  <outline>
    <contour>
      <point x="31" y="203" type="curve" smooth="yes"/>
      <point x="31" y="315"/>
      <point x="123" y="382"/>
      <point x="227" y="382" type="curve" smooth="yes"/>
      <point x="253" y="382"/>
      <point x="285" y="377"/>
      <point x="313" y="366" type="curve"/>
      <point x="313" y="338" type="line"/>
      <point x="287" y="351"/>
      <point x="260" y="356"/>
      <point x="229" y="356" type="curve" smooth="yes"/>
      <point x="145" y="356"/>
      <point x="64" y="307"/>
      <point x="64" y="213" type="curve" smooth="yes"/>
      <point x="64" y="113"/>
      <point x="172" y="69"/>
      <point x="270" y="69" type="curve" smooth="yes"/>
      <point x="409" y="69"/>
      <point x="511" y="145"/>
      <point x="511" y="289" type="curve" smooth="yes"/>
      <point x="511" y="422"/>
      <point x="406" y="540"/>
      <point x="269" y="540" type="curve" smooth="yes"/>
      <point x="190" y="540"/>
      <point x="130" y="513"/>
      <point x="88" y="459" type="curve"/>
      <point x="56" y="459" type="line"/>
      <point x="102" y="526"/>
      <point x="173" y="563"/>
      <point x="267" y="563" type="curve" smooth="yes"/>
      <point x="436" y="563"/>
      <point x="544" y="423"/>
      <point x="544" y="265" type="curve" smooth="yes"/>
      <point x="544" y="113"/>
      <point x="436" y="-1"/>
      <point x="278" y="-1" type="curve" smooth="yes"/>
      <point x="130" y="-1"/>
      <point x="31" y="79"/>
    </contour>
    <contour>
      <point x="37" y="0" type="move" name="_cursive"/>
    </contour>
  </outline>
</glyph>
<glyph name="uni0DA8" format="1">
  <advance width="614"/>
  <unicode hex="0DA8"/>
  <outline>
    <contour>
      <point x="33" y="195" type="curve" smooth="yes"/>
      <point x="33" y="288"/>
      <point x="86" y="364"/>
      <point x="152" y="387" type="curve" smooth="yes"/>
      <point x="173" y="394"/>
      <point x="196" y="398"/>
      <point x="221" y="398" type="curve"/>
      <point x="221" y="373" type="line"/>
      <point x="218" y="373"/>
      <point x="214" y="373"/>
      <point x="211" y="373" type="curve" smooth="yes"/>
      <point x="132" y="373"/>
      <point x="67" y="301"/>
      <point x="67" y="212" type="curve" smooth="yes"/>
      <point x="67" y="136"/>
      <point x="115" y="71"/>
      <point x="188" y="71" type="curve" smooth="yes"/>
      <point x="239" y="71"/>
      <point x="290" y="92"/>
      <point x="290" y="156" type="curve" smooth="yes"/>
      <point x="290" y="196" type="line"/>
      <point x="318" y="196" type="line"/>
      <point x="318" y="156" type="line" smooth="yes"/>
      <point x="318" y="92"/>
      <point x="368" y="71"/>
      <point x="417" y="71" type="curve" smooth="yes"/>
      <point x="513" y="71"/>
      <point x="555" y="158"/>
      <point x="555" y="247" type="curve" smooth="yes"/>
      <point x="555" y="318"/>
      <point x="525" y="388"/>
      <point x="504" y="420" type="curve"/>
      <point x="489" y="387"/>
      <point x="459" y="367"/>
      <point x="416" y="367" type="curve" smooth="yes"/>
      <point x="353" y="367"/>
      <point x="316" y="422"/>
      <point x="316" y="488" type="curve" smooth="yes"/>
      <point x="316" y="538"/>
      <point x="331" y="574"/>
      <point x="358" y="605" type="curve"/>
      <point x="419" y="572"/>
      <point x="490" y="500"/>
      <point x="526" y="438" type="curve" smooth="yes"/>
      <point x="565" y="371"/>
      <point x="589" y="307"/>
      <point x="589" y="232" type="curve" smooth="yes"/>
      <point x="589" y="130"/>
      <point x="548" y="0"/>
      <point x="422" y="0" type="curve" smooth="yes"/>
      <point x="373" y="0"/>
      <point x="333" y="20"/>
      <point x="303" y="59" type="curve"/>
      <point x="272" y="20"/>
      <point x="235" y="0"/>
      <point x="190" y="0" type="curve" smooth="yes"/>
      <point x="88" y="0"/>
      <point x="33" y="96"/>
    </contour>
    <contour>
      <point x="346" y="492" type="curve" smooth="yes"/>
      <point x="346" y="443"/>
      <point x="366" y="403"/>
      <point x="423" y="403" type="curve" smooth="yes"/>
      <point x="447" y="403"/>
      <point x="475" y="414"/>
      <point x="485" y="448" type="curve"/>
      <point x="455" y="494"/>
      <point x="405" y="540"/>
      <point x="367" y="568" type="curve"/>
      <point x="355" y="550"/>
      <point x="346" y="527"/>
    </contour>
  </outline>
</glyph>
<glyph name="si_Ddha" format="1">
  <advance width="647"/>
  <unicode hex="0DAA"/>
  <outline>
    <contour>
      <point x="53" y="0" type="move" name="_cursive"/>
    </contour>
    <contour>
      <point x="15" y="288" type="line"/>
      <point x="15" y="315" type="line"/>
      <point x="258" y="315" type="line"/>
      <point x="255" y="358"/>
      <point x="225" y="391"/>
      <point x="195" y="391" type="curve" smooth="yes"/>
      <point x="177" y="391"/>
      <point x="162" y="387"/>
      <point x="148" y="363" type="curve" smooth="yes"/>
      <point x="137" y="344"/>
      <point x="124" y="339"/>
      <point x="110" y="339" type="curve" smooth="yes"/>
      <point x="90" y="339"/>
      <point x="73" y="353"/>
      <point x="73" y="374" type="curve" smooth="yes"/>
      <point x="73" y="414"/>
      <point x="120" y="432"/>
      <point x="162" y="432" type="curve" smooth="yes"/>
      <point x="246" y="432"/>
      <point x="291" y="374"/>
      <point x="292" y="288" type="curve"/>
      <point x="220" y="288" type="line" smooth="yes"/>
      <point x="127" y="288"/>
      <point x="83" y="230"/>
      <point x="83" y="174" type="curve" smooth="yes"/>
      <point x="83" y="122"/>
      <point x="123" y="71"/>
      <point x="198" y="71" type="curve" smooth="yes"/>
      <point x="247" y="71"/>
      <point x="299" y="95"/>
      <point x="299" y="143" type="curve" smooth="yes"/>
      <point x="299" y="178" type="line"/>
      <point x="326" y="178" type="line"/>
      <point x="326" y="143" type="line" smooth="yes"/>
      <point x="326" y="97"/>
      <point x="374" y="71"/>
      <point x="424" y="71" type="curve" smooth="yes"/>
      <point x="520" y="71"/>
      <point x="561" y="159"/>
      <point x="561" y="263" type="curve" smooth="yes"/>
      <point x="561" y="323"/>
      <point x="542" y="378"/>
      <point x="515" y="424" type="curve"/>
      <point x="499" y="395"/>
      <point x="471" y="363"/>
      <point x="422" y="363" type="curve" smooth="yes"/>
      <point x="356" y="363"/>
      <point x="318" y="411"/>
      <point x="318" y="477" type="curve" smooth="yes"/>
      <point x="318" y="541"/>
      <point x="348" y="586"/>
      <point x="359" y="603" type="curve"/>
      <point x="473" y="558"/>
      <point x="598" y="407"/>
      <point x="598" y="249" type="curve" smooth="yes"/>
      <point x="598" y="123"/>
      <point x="553" y="0"/>
      <point x="426" y="0" type="curve" smooth="yes"/>
      <point x="364" y="0"/>
      <point x="335" y="29"/>
      <point x="313" y="59" type="curve"/>
      <point x="283" y="22"/>
      <point x="250" y="0"/>
      <point x="199" y="0" type="curve" smooth="yes"/>
      <point x="98" y="0"/>
      <point x="46" y="81"/>
      <point x="46" y="162" type="curve" smooth="yes"/>
      <point x="46" y="212"/>
      <point x="71" y="264"/>
      <point x="125" y="288" type="curve"/>
    </contour>
    <contour>
      <point x="347" y="481" type="curve" smooth="yes"/>
      <point x="347" y="423"/>
      <point x="376" y="393"/>
      <point x="424" y="393" type="curve" smooth="yes"/>
      <point x="460" y="393"/>
      <point x="484" y="424"/>
      <point x="497" y="451" type="curve"/>
      <point x="456" y="509"/>
      <point x="405" y="550"/>
      <point x="373" y="566" type="curve"/>
      <point x="361" y="552"/>
      <point x="347" y="515"/>
    </contour>
  </outline>
</glyph>
<glyph name="si_Nndda" format="1">
  <advance width="713"/>
  <unicode hex="0DAC"/>
  <outline>
    <contour>
      <point x="100" y="281" type="line"/>
      <point x="100" y="308" type="line"/>
      <point x="340" y="308" type="line"/>
      <point x="337" y="350"/>
      <point x="307" y="382"/>
      <point x="278" y="382" type="curve" smooth="yes"/>
      <point x="260" y="382"/>
      <point x="246" y="377"/>
      <point x="232" y="354" type="curve" smooth="yes"/>
      <point x="221" y="335"/>
      <point x="209" y="331"/>
      <point x="195" y="331" type="curve" smooth="yes"/>
      <point x="175" y="331"/>
      <point x="159" y="344"/>
      <point x="159" y="365" type="curve" smooth="yes"/>
      <point x="159" y="404"/>
      <point x="205" y="422"/>
      <point x="246" y="422" type="curve" smooth="yes"/>
      <point x="328" y="422"/>
      <point x="372" y="365"/>
      <point x="373" y="281" type="curve"/>
      <point x="300" y="281" type="line" smooth="yes"/>
      <point x="209" y="281"/>
      <point x="166" y="225"/>
      <point x="166" y="170" type="curve" smooth="yes"/>
      <point x="166" y="119"/>
      <point x="205" y="69"/>
      <point x="278" y="69" type="curve" smooth="yes"/>
      <point x="326" y="69"/>
      <point x="377" y="93"/>
      <point x="377" y="140" type="curve" smooth="yes"/>
      <point x="377" y="174" type="line"/>
      <point x="403" y="174" type="line"/>
      <point x="403" y="140" type="line" smooth="yes"/>
      <point x="403" y="95"/>
      <point x="450" y="69"/>
      <point x="499" y="69" type="curve" smooth="yes"/>
      <point x="593" y="69"/>
      <point x="634" y="163"/>
      <point x="634" y="267" type="curve" smooth="yes"/>
      <point x="634" y="418"/>
      <point x="530" y="543"/>
      <point x="376" y="543" type="curve" smooth="yes"/>
      <point x="298" y="543"/>
      <point x="234" y="513"/>
      <point x="188" y="457" type="curve"/>
      <point x="156" y="457" type="line"/>
      <point x="209" y="533"/>
      <point x="290" y="568"/>
      <point x="382" y="568" type="curve" smooth="yes"/>
      <point x="553" y="568"/>
      <point x="669" y="434"/>
      <point x="669" y="252" type="curve" smooth="yes"/>
      <point x="669" y="123"/>
      <point x="619" y="0"/>
      <point x="503" y="0" type="curve" smooth="yes"/>
      <point x="440" y="0"/>
      <point x="412" y="29"/>
      <point x="391" y="58" type="curve"/>
      <point x="362" y="22"/>
      <point x="329" y="0"/>
      <point x="279" y="0" type="curve" smooth="yes"/>
      <point x="180" y="0"/>
      <point x="130" y="79"/>
      <point x="130" y="158" type="curve" smooth="yes"/>
      <point x="130" y="207"/>
      <point x="154" y="258"/>
      <point x="207" y="281" type="curve"/>
    </contour>
    <contour>
      <point x="26" y="216" type="curve" smooth="yes"/>
      <point x="26" y="345"/>
      <point x="97" y="423"/>
      <point x="233" y="423" type="curve" smooth="yes"/>
      <point x="242" y="423"/>
      <point x="265" y="423"/>
      <point x="286" y="417" type="curve"/>
      <point x="265" y="406"/>
      <point x="190" y="397"/>
      <point x="173" y="391" type="curve"/>
      <point x="100" y="373"/>
      <point x="55" y="312"/>
      <point x="55" y="213" type="curve" smooth="yes"/>
      <point x="55" y="134"/>
      <point x="81" y="73"/>
      <point x="132" y="29" type="curve"/>
      <point x="132" y="0" type="line"/>
      <point x="68" y="32"/>
      <point x="26" y="117"/>
    </contour>
    <contour>
      <point x="36" y="0" type="move" name="_cursive"/>
    </contour>
  </outline>
</glyph>
<glyph name="si_Ta" format="1">
  <advance width="687"/>
  <unicode hex="0DAD"/>
  <outline>
    <contour>
      <point x="21" y="24" type="line"/>
      <point x="34" y="127"/>
      <point x="100" y="237"/>
      <point x="155" y="299" type="curve"/>
      <point x="163" y="308"/>
      <point x="175" y="322"/>
      <point x="175" y="341" type="curve" smooth="yes"/>
      <point x="175" y="362"/>
      <point x="166" y="379"/>
      <point x="147" y="379" type="curve" smooth="yes"/>
      <point x="130" y="379"/>
      <point x="117" y="369"/>
      <point x="116" y="348" type="curve" smooth="yes"/>
      <point x="115" y="319"/>
      <point x="108" y="288"/>
      <point x="74" y="288" type="curve" smooth="yes"/>
      <point x="49" y="288"/>
      <point x="36" y="310"/>
      <point x="36" y="334" type="curve" smooth="yes"/>
      <point x="36" y="383"/>
      <point x="76" y="423"/>
      <point x="124" y="423" type="curve" smooth="yes"/>
      <point x="173" y="423"/>
      <point x="201" y="390"/>
      <point x="201" y="348" type="curve" smooth="yes"/>
      <point x="201" y="343"/>
      <point x="201" y="344"/>
      <point x="200" y="339" type="curve"/>
      <point x="264" y="410"/>
      <point x="351" y="425"/>
      <point x="413" y="425" type="curve" smooth="yes"/>
      <point x="549" y="425"/>
      <point x="648" y="327"/>
      <point x="648" y="181" type="curve" smooth="yes"/>
      <point x="648" y="83"/>
      <point x="599" y="-1"/>
      <point x="509" y="-1" type="curve" smooth="yes"/>
      <point x="483" y="-1"/>
      <point x="461" y="5"/>
      <point x="444" y="14" type="curve"/>
      <point x="444" y="43" type="line"/>
      <point x="457" y="35"/>
      <point x="478" y="26"/>
      <point x="499" y="26" type="curve" smooth="yes"/>
      <point x="564" y="26"/>
      <point x="596" y="83"/>
      <point x="596" y="147" type="curve" smooth="yes"/>
      <point x="596" y="265"/>
      <point x="496" y="370"/>
      <point x="358" y="370" type="curve" smooth="yes"/>
      <point x="289" y="370"/>
      <point x="235" y="347"/>
      <point x="196" y="299" type="curve"/>
      <point x="217" y="308"/>
      <point x="243" y="312"/>
      <point x="274" y="312" type="curve" smooth="yes"/>
      <point x="373" y="312"/>
      <point x="448" y="262"/>
      <point x="448" y="158" type="curve" smooth="yes"/>
      <point x="448" y="68"/>
      <point x="382" y="-2"/>
      <point x="275" y="-2" type="curve" smooth="yes"/>
      <point x="130" y="-2"/>
      <point x="137" y="77"/>
      <point x="87" y="77" type="curve" smooth="yes"/>
      <point x="64" y="77"/>
      <point x="52" y="52"/>
      <point x="43" y="9" type="curve"/>
    </contour>
    <contour>
      <point x="69" y="98" type="curve"/>
      <point x="78" y="105"/>
      <point x="90" y="106"/>
      <point x="101" y="106" type="curve" smooth="yes"/>
      <point x="137" y="106"/>
      <point x="172" y="71"/>
      <point x="248" y="71" type="curve" smooth="yes"/>
      <point x="333" y="71"/>
      <point x="407" y="101"/>
      <point x="407" y="184" type="curve" smooth="yes"/>
      <point x="407" y="254"/>
      <point x="341" y="289"/>
      <point x="276" y="289" type="curve" smooth="yes"/>
      <point x="228" y="289"/>
      <point x="183" y="277"/>
      <point x="153" y="254" type="curve"/>
      <point x="123" y="217"/>
      <point x="90" y="161"/>
    </contour>
    <contour>
      <point x="66" y="0" type="move" name="_cursive"/>
    </contour>
  </outline>
</glyph>
<glyph name="si_Tha" format="1">
  <advance width="614"/>
  <unicode hex="0DAE"/>
  <outline>
    <contour>
      <point x="33" y="235" type="curve" smooth="yes"/>
      <point x="33" y="345"/>
      <point x="134" y="430"/>
      <point x="245" y="430" type="curve"/>
      <point x="245" y="405" type="line"/>
      <point x="148" y="405"/>
      <point x="67" y="336"/>
      <point x="67" y="242" type="curve" smooth="yes"/>
      <point x="67" y="122"/>
      <point x="173" y="71"/>
      <point x="305" y="71" type="curve" smooth="yes"/>
      <point x="433" y="71"/>
      <point x="531" y="154"/>
      <point x="531" y="281" type="curve" smooth="yes"/>
      <point x="531" y="338"/>
      <point x="514" y="388"/>
      <point x="493" y="420" type="curve"/>
      <point x="478" y="387"/>
      <point x="448" y="367"/>
      <point x="405" y="367" type="curve" smooth="yes"/>
      <point x="342" y="367"/>
      <point x="305" y="422"/>
      <point x="305" y="488" type="curve" smooth="yes"/>
      <point x="305" y="538"/>
      <point x="320" y="574"/>
      <point x="347" y="605" type="curve"/>
      <point x="408" y="572"/>
      <point x="479" y="500"/>
      <point x="515" y="438" type="curve" smooth="yes"/>
      <point x="554" y="371"/>
      <point x="566" y="322"/>
      <point x="566" y="252" type="curve" smooth="yes"/>
      <point x="566" y="103"/>
      <point x="450" y="-1"/>
      <point x="295" y="-1" type="curve" smooth="yes"/>
      <point x="151" y="-1"/>
      <point x="33" y="92"/>
    </contour>
    <contour>
      <point x="335" y="492" type="curve" smooth="yes"/>
      <point x="335" y="443"/>
      <point x="355" y="403"/>
      <point x="412" y="403" type="curve" smooth="yes"/>
      <point x="436" y="403"/>
      <point x="464" y="414"/>
      <point x="474" y="448" type="curve"/>
      <point x="444" y="494"/>
      <point x="394" y="540"/>
      <point x="356" y="568" type="curve"/>
      <point x="344" y="550"/>
      <point x="335" y="527"/>
    </contour>
  </outline>
</glyph>
<glyph name="si_Da" format="1">
  <advance width="445"/>
  <unicode hex="0DAF"/>
  <outline>
    <contour>
      <point x="30" y="165" type="curve" smooth="yes"/>
      <point x="30" y="268"/>
      <point x="102" y="310"/>
      <point x="218" y="310" type="curve" smooth="yes"/>
      <point x="335" y="310" type="line"/>
      <point x="325" y="355"/>
      <point x="297" y="387"/>
      <point x="254" y="387" type="curve" smooth="yes"/>
      <point x="235" y="387"/>
      <point x="220" y="375"/>
      <point x="211" y="357" type="curve" smooth="yes"/>
      <point x="201" y="336"/>
      <point x="186" y="328"/>
      <point x="171" y="328" type="curve" smooth="yes"/>
      <point x="147" y="328"/>
      <point x="134" y="342"/>
      <point x="134" y="363" type="curve" smooth="yes"/>
      <point x="134" y="398"/>
      <point x="173" y="423"/>
      <point x="227" y="423" type="curve" smooth="yes"/>
      <point x="311" y="423"/>
      <point x="352" y="380"/>
      <point x="370" y="287" type="curve"/>
      <point x="236" y="287" type="line" smooth="yes"/>
      <point x="150" y="287"/>
      <point x="105" y="251"/>
      <point x="105" y="169" type="curve" smooth="yes"/>
      <point x="105" y="87"/>
      <point x="174" y="26"/>
      <point x="255" y="26" type="curve" smooth="yes"/>
      <point x="300" y="26"/>
      <point x="336" y="45"/>
      <point x="375" y="90" type="curve"/>
      <point x="397" y="73" type="line"/>
      <point x="367" y="38"/>
      <point x="299" y="-28"/>
      <point x="299" y="-102" type="curve" smooth="yes"/>
      <point x="299" y="-166"/>
      <point x="337" y="-190"/>
      <point x="399" y="-205" type="curve"/>
      <point x="399" y="-232" type="line"/>
      <point x="385" y="-235"/>
      <point x="368" y="-236"/>
      <point x="347" y="-236" type="curve" smooth="yes"/>
      <point x="278" y="-234"/>
      <point x="243" y="-195"/>
      <point x="243" y="-139" type="curve" smooth="yes"/>
      <point x="243" y="-101"/>
      <point x="266" y="-52"/>
      <point x="312" y="10" type="curve"/>
      <point x="278" y="0"/>
      <point x="255" y="-1"/>
      <point x="229" y="-1" type="curve" smooth="yes"/>
      <point x="101" y="-1"/>
      <point x="30" y="67"/>
    </contour>
    <contour>
      <point x="50" y="0" type="move" name="_cursive"/>
    </contour>
  </outline>
</glyph>
<glyph name="si_Dha" format="1">
  <advance width="623"/>
  <unicode hex="0DB0"/>
  <outline>
    <contour>
      <point x="32" y="190" type="curve" smooth="yes"/>
      <point x="32" y="281"/>
      <point x="84" y="356"/>
      <point x="148" y="378" type="curve" smooth="yes"/>
      <point x="169" y="385"/>
      <point x="192" y="389"/>
      <point x="216" y="389" type="curve"/>
      <point x="216" y="364" type="line"/>
      <point x="213" y="364"/>
      <point x="209" y="364"/>
      <point x="206" y="364" type="curve" smooth="yes"/>
      <point x="129" y="364"/>
      <point x="65" y="294"/>
      <point x="65" y="207" type="curve" smooth="yes"/>
      <point x="65" y="133"/>
      <point x="113" y="69"/>
      <point x="184" y="69" type="curve" smooth="yes"/>
      <point x="234" y="69"/>
      <point x="283" y="90"/>
      <point x="283" y="152" type="curve" smooth="yes"/>
      <point x="283" y="191" type="line"/>
      <point x="311" y="191" type="line"/>
      <point x="311" y="152" type="line" smooth="yes"/>
      <point x="311" y="90"/>
      <point x="359" y="69"/>
      <point x="407" y="69" type="curve" smooth="yes"/>
      <point x="501" y="69"/>
      <point x="542" y="176"/>
      <point x="542" y="277" type="curve" smooth="yes"/>
      <point x="542" y="431"/>
      <point x="431" y="543"/>
      <point x="287" y="543" type="curve" smooth="yes"/>
      <point x="208" y="543"/>
      <point x="147" y="515"/>
      <point x="95" y="457" type="curve"/>
      <point x="63" y="457" type="line"/>
      <point x="119" y="530"/>
      <point x="195" y="566"/>
      <point x="292" y="566" type="curve" smooth="yes"/>
      <point x="451" y="566"/>
      <point x="575" y="436"/>
      <point x="575" y="255" type="curve" smooth="yes"/>
      <point x="575" y="136"/>
      <point x="535" y="0"/>
      <point x="412" y="0" type="curve" smooth="yes"/>
      <point x="364" y="0"/>
      <point x="325" y="20"/>
      <point x="296" y="58" type="curve"/>
      <point x="266" y="20"/>
      <point x="230" y="0"/>
      <point x="186" y="0" type="curve" smooth="yes"/>
      <point x="86" y="0"/>
      <point x="32" y="93"/>
    </contour>
    <contour>
      <point x="45" y="0" type="move" name="_cursive"/>
    </contour>
  </outline>
</glyph>
<glyph name="uni0DB1" format="1">
  <advance width="806"/>
  <unicode hex="0DB1"/>
  <outline>
    <contour>
      <point x="27" y="124" type="curve"/>
      <point x="41" y="118"/>
      <point x="53" y="115"/>
      <point x="63" y="115" type="curve" smooth="yes"/>
      <point x="124" y="115"/>
      <point x="130" y="201"/>
      <point x="207" y="278" type="curve"/>
      <point x="222" y="293"/>
      <point x="226" y="314"/>
      <point x="226" y="327" type="curve" smooth="yes"/>
      <point x="226" y="365"/>
      <point x="210" y="389"/>
      <point x="176" y="389" type="curve" smooth="yes"/>
      <point x="147" y="389"/>
      <point x="135" y="367"/>
      <point x="134" y="345" type="curve" smooth="yes"/>
      <point x="133" y="326"/>
      <point x="125" y="297"/>
      <point x="93" y="297" type="curve" smooth="yes"/>
      <point x="69" y="297"/>
      <point x="55" y="315"/>
      <point x="55" y="341" type="curve" smooth="yes"/>
      <point x="55" y="383"/>
      <point x="89" y="431"/>
      <point x="154" y="431" type="curve" smooth="yes"/>
      <point x="224" y="431"/>
      <point x="253" y="380"/>
      <point x="253" y="333" type="curve" smooth="yes"/>
      <point x="253" y="332"/>
      <point x="253" y="322"/>
      <point x="251" y="315" type="curve"/>
      <point x="302" y="375"/>
      <point x="401" y="433"/>
      <point x="506" y="433" type="curve" smooth="yes"/>
      <point x="646" y="433"/>
      <point x="760" y="335"/>
      <point x="760" y="183" type="curve" smooth="yes"/>
      <point x="760" y="63"/>
      <point x="687" y="-1"/>
      <point x="613" y="-1" type="curve" smooth="yes"/>
      <point x="581" y="-1"/>
      <point x="555" y="10"/>
      <point x="542" y="21" type="curve"/>
      <point x="542" y="52" type="line"/>
      <point x="566" y="30"/>
      <point x="592" y="26"/>
      <point x="610" y="26" type="curve" smooth="yes"/>
      <point x="661" y="26"/>
      <point x="704" y="70"/>
      <point x="704" y="149" type="curve" smooth="yes"/>
      <point x="704" y="293"/>
      <point x="570" y="370"/>
      <point x="448" y="370" type="curve" smooth="yes"/>
      <point x="375" y="370"/>
      <point x="310" y="345"/>
      <point x="266" y="295" type="curve"/>
      <point x="292" y="304"/>
      <point x="317" y="308"/>
      <point x="345" y="308" type="curve" smooth="yes"/>
      <point x="429" y="308"/>
      <point x="498" y="249"/>
      <point x="498" y="169" type="curve" smooth="yes"/>
      <point x="498" y="53"/>
      <point x="398" y="-1"/>
      <point x="276" y="-1" type="curve" smooth="yes"/>
      <point x="150" y="-1"/>
      <point x="67" y="41"/>
    </contour>
    <contour>
      <point x="107" y="102" type="curve"/>
      <point x="153" y="82"/>
      <point x="206" y="72"/>
      <point x="264" y="72" type="curve" smooth="yes"/>
      <point x="374" y="72"/>
      <point x="454" y="110"/>
      <point x="454" y="190" type="curve" smooth="yes"/>
      <point x="454" y="246"/>
      <point x="399" y="284"/>
      <point x="338" y="284" type="curve" smooth="yes"/>
      <point x="160" y="284"/>
      <point x="180" y="144"/>
    </contour>
  </outline>
</glyph>
<glyph name="si_Nda" format="1">
  <advance width="526"/>
  <unicode hex="0DB3"/>
  <outline>
    <contour>
      <point x="115" y="169" type="curve" smooth="yes"/>
      <point x="115" y="274"/>
      <point x="188" y="317"/>
      <point x="307" y="317" type="curve" smooth="yes"/>
      <point x="427" y="317" type="line"/>
      <point x="416" y="362"/>
      <point x="372" y="394"/>
      <point x="330" y="394" type="curve" smooth="yes"/>
      <point x="311" y="394"/>
      <point x="295" y="383"/>
      <point x="286" y="366" type="curve" smooth="yes"/>
      <point x="276" y="344"/>
      <point x="260" y="336"/>
      <point x="245" y="336" type="curve" smooth="yes"/>
      <point x="220" y="336"/>
      <point x="207" y="351"/>
      <point x="207" y="372" type="curve" smooth="yes"/>
      <point x="207" y="410"/>
      <point x="244" y="432"/>
      <point x="296" y="432" type="curve" smooth="yes"/>
      <point x="379" y="432"/>
      <point x="444" y="388"/>
      <point x="463" y="294" type="curve"/>
      <point x="326" y="294" type="line" smooth="yes"/>
      <point x="238" y="294"/>
      <point x="192" y="257"/>
      <point x="192" y="173" type="curve" smooth="yes"/>
      <point x="192" y="89"/>
      <point x="262" y="27"/>
      <point x="345" y="27" type="curve" smooth="yes"/>
      <point x="391" y="27"/>
      <point x="428" y="46"/>
      <point x="468" y="92" type="curve"/>
      <point x="491" y="75" type="line"/>
      <point x="460" y="39"/>
      <point x="390" y="-28"/>
      <point x="390" y="-104" type="curve" smooth="yes"/>
      <point x="390" y="-170"/>
      <point x="429" y="-195"/>
      <point x="493" y="-210" type="curve"/>
      <point x="493" y="-238" type="line"/>
      <point x="479" y="-241"/>
      <point x="461" y="-242"/>
      <point x="439" y="-242" type="curve" smooth="yes"/>
      <point x="368" y="-240"/>
      <point x="333" y="-199"/>
      <point x="333" y="-142" type="curve" smooth="yes"/>
      <point x="333" y="-103"/>
      <point x="356" y="-53"/>
      <point x="403" y="10" type="curve"/>
      <point x="368" y="0"/>
      <point x="345" y="-1"/>
      <point x="318" y="-1" type="curve" smooth="yes"/>
      <point x="187" y="-1"/>
      <point x="115" y="69"/>
    </contour>
    <contour>
      <point x="27" y="221" type="curve" smooth="yes"/>
      <point x="27" y="353"/>
      <point x="98" y="435"/>
      <point x="255" y="435" type="curve" smooth="yes"/>
      <point x="260" y="435"/>
      <point x="301" y="434"/>
      <point x="329" y="428" type="curve"/>
      <point x="313" y="418"/>
      <point x="266" y="410"/>
      <point x="225" y="405" type="curve"/>
      <point x="119" y="397"/>
      <point x="56" y="342"/>
      <point x="56" y="218" type="curve" smooth="yes"/>
      <point x="56" y="137"/>
      <point x="83" y="75"/>
      <point x="135" y="30" type="curve"/>
      <point x="135" y="0" type="line"/>
      <point x="69" y="33"/>
      <point x="27" y="120"/>
    </contour>
  </outline>
</glyph>
